<svg width="369" height="319" viewBox="0 0 369 319" fill="none" xmlns="http://www.w3.org/2000/svg">
<path d="M161.228 109.659C155.136 108.399 151.284 111.388 155.241 112.811C163.965 115.98 171.725 121.031 177.935 127.581C184.145 134.131 188.642 142.01 191.087 150.622C198.295 177.729 184.004 176.134 177.867 173.608C174.093 171.18 169.714 169.686 165.105 169.252C160.496 168.819 155.793 169.46 151.397 171.12C135.97 175.886 119.591 175.721 112.797 171.315C107.663 167.303 103.731 162.08 101.362 156.124C98.9934 150.168 98.2632 143.671 99.2384 137.229C100.618 119.038 110.359 87.0738 128.201 74.3245C146.043 61.5751 180.095 39.8084 200.979 37.2393C200.979 37.2393 230.889 55.0592 244.501 55.6393C256.626 58.608 269.638 57.5639 281.45 52.6746C307.142 44.6818 308.586 60.2931 308.586 60.2931L318.926 90.4359C319.244 95.5807 317.983 100.773 315.295 105.383C312.606 109.994 308.607 113.826 303.78 116.415C291.046 121.365 279.712 129.294 270.869 139.44C263.712 151.228 257.836 163.64 253.338 176.473C249.247 189.662 253.643 229.703 259.099 242.008C267.375 259.355 97 283.421 97 283.421C97 283.421 106.79 291.795 67.2625 283.421C63.0218 247.275 99.2707 271.413 115.138 245.405C125.267 228.701 140.479 206.807 137.844 190.042C136.517 181.406 161.201 179.637 171.026 181.296C175.439 182.668 180.19 182.962 184.858 182.151C189.525 181.341 193.963 179.451 197.775 176.651C205.705 171.013 209.22 152.658 190.671 131.604C182.921 122.099 172.833 114.579 161.228 109.659Z" fill="#F6BD60"/>
<path d="M216.405 54.8938C224.992 56.1649 230.944 64.0115 229.699 72.4198C228.454 80.828 220.484 86.6137 211.898 85.3426C203.311 84.0715 197.36 76.2248 198.604 67.8166C199.849 59.4084 207.819 53.6227 216.405 54.8938Z" fill="#FDFDFE"/>
<path d="M218.167 56.7958C226.152 57.9779 231.687 65.2747 230.529 73.0937C229.372 80.9127 221.96 86.293 213.975 85.111C205.991 83.9289 200.456 76.6321 201.613 68.8131C202.771 60.9941 210.182 55.6138 218.167 56.7958Z" fill="#040000"/>
<path d="M304.45 52.36C306.256 52.9165 307.433 54.6671 307.004 56.5072C306.465 58.8181 305.442 61.769 303.584 63.1538C301.786 64.493 300.163 65.5053 298.813 66.2549C296.733 67.4102 294.368 66.0873 293.901 63.754L292.097 54.7312C291.502 51.7589 294.301 49.2312 297.197 50.1241L304.45 52.36Z" fill="#030303"/>
</svg>
