<svg width="41" height="40" viewBox="0 0 41 40" fill="none" xmlns="http://www.w3.org/2000/svg">
<path d="M11.7903 30.2063C11.3773 30.6212 10.7059 30.6219 10.292 30.208C9.87805 29.794 9.87879 29.1227 10.2937 28.7097L19.042 20L10.2937 11.2903C9.87879 10.8773 9.87805 10.2059 10.292 9.79199C10.7059 9.37805 11.3773 9.37879 11.7903 9.79365L20.5 18.542L29.2097 9.79365C29.6227 9.37879 30.294 9.37805 30.708 9.79199C31.1219 10.2059 31.1212 10.8773 30.7063 11.2903L21.958 20L30.7063 28.7097C31.1212 29.1227 31.1219 29.794 30.708 30.208C30.294 30.6219 29.6227 30.6212 29.2097 30.2063L20.5 21.458L11.7903 30.2063Z" fill="#E4A52A"/>
</svg>
