<svg width="17" height="41" viewBox="0 0 17 41" fill="none" xmlns="http://www.w3.org/2000/svg">
<path fill-rule="evenodd" clip-rule="evenodd" d="M7.25189 3.41799C6.79236 4.10728 6.97862 5.03858 7.66791 5.49811L13.6679 9.49811C14.3572 9.95764 15.2885 9.77138 15.748 9.08209C16.2076 8.39279 16.0213 7.46149 15.332 7.00196L9.33201 3.00196C8.64272 2.54243 7.71142 2.72869 7.25189 3.41799Z" fill="#6C584C"/>
<path fill-rule="evenodd" clip-rule="evenodd" d="M15.7481 31.418C16.2076 32.1073 16.0214 33.0386 15.3321 33.4981L9.33209 37.4981C8.64279 37.9576 7.71149 37.7714 7.25196 37.0821C6.79243 36.3928 6.97869 35.4615 7.66799 35.002L13.668 31.002C14.3573 30.5424 15.2886 30.7287 15.7481 31.418Z" fill="#6C584C"/>
<path fill-rule="evenodd" clip-rule="evenodd" d="M14 20.25C14 19.4216 13.3284 18.75 12.5 18.75H2.5C1.67157 18.75 1 19.4216 1 20.25C1 21.0784 1.67157 21.75 2.5 21.75H12.5C13.3284 21.75 14 21.0784 14 20.25Z" fill="#6C584C"/>
</svg>
