<svg width="17" height="41" viewBox="0 0 17 41" fill="none" xmlns="http://www.w3.org/2000/svg">
<path fill-rule="evenodd" clip-rule="evenodd" d="M9.74811 3.41799C10.2076 4.10728 10.0214 5.03858 9.33209 5.49811L3.33209 9.49811C2.64279 9.95764 1.71149 9.77138 1.25196 9.08209C0.792433 8.39279 0.978694 7.46149 1.66799 7.00196L7.66799 3.00196C8.35728 2.54243 9.28858 2.72869 9.74811 3.41799Z" fill="#6C584C"/>
<path fill-rule="evenodd" clip-rule="evenodd" d="M1.25189 31.418C0.792358 32.1073 0.97862 33.0386 1.66791 33.4981L7.66791 37.4981C8.35721 37.9576 9.28851 37.7714 9.74804 37.0821C10.2076 36.3928 10.0213 35.4615 9.33201 35.002L3.33201 31.002C2.64272 30.5424 1.71142 30.7287 1.25189 31.418Z" fill="#6C584C"/>
<path fill-rule="evenodd" clip-rule="evenodd" d="M3 20.25C3 19.4216 3.67157 18.75 4.5 18.75H14.5C15.3284 18.75 16 19.4216 16 20.25C16 21.0784 15.3284 21.75 14.5 21.75H4.5C3.67157 21.75 3 21.0784 3 20.25Z" fill="#6C584C"/>
</svg>
