<svg width="61" height="60" viewBox="0 0 61 60" fill="none" xmlns="http://www.w3.org/2000/svg">
<circle cx="30.5" cy="30" r="27" fill="white"/>
<path fill-rule="evenodd" clip-rule="evenodd" d="M30.5 18C27.241 18 26.8323 18.0138 25.5524 18.0722C24.2752 18.1305 23.4028 18.3333 22.6395 18.63C21.8504 18.9366 21.1812 19.3469 20.5141 20.0141C19.8469 20.6812 19.4366 21.3504 19.13 22.1395C18.8333 22.9028 18.6305 23.7752 18.5722 25.0524C18.5138 26.3323 18.5 26.741 18.5 30C18.5 33.259 18.5138 33.6677 18.5722 34.9476C18.6305 36.2248 18.8333 37.0972 19.13 37.8605C19.4366 38.6496 19.8469 39.3188 20.5141 39.9859C21.1812 40.653 21.8504 41.0634 22.6395 41.37C23.4028 41.6667 24.2752 41.8695 25.5524 41.9278C26.8323 41.9862 27.241 42 30.5 42C33.759 42 34.1677 41.9862 35.4476 41.9278C36.7248 41.8695 37.5972 41.6667 38.3605 41.37C39.1496 41.0634 39.8188 40.653 40.4859 39.9859C41.153 39.3188 41.5634 38.6496 41.87 37.8605C42.1667 37.0972 42.3695 36.2248 42.4278 34.9476C42.4862 33.6677 42.5 33.259 42.5 30C42.5 26.741 42.4862 26.3323 42.4278 25.0524C42.3695 23.7752 42.1667 22.9028 41.87 22.1395C41.5634 21.3504 41.153 20.6812 40.4859 20.0141C39.8188 19.3469 39.1496 18.9366 38.3605 18.63C37.5972 18.3333 36.7248 18.1305 35.4476 18.0722C34.1677 18.0138 33.759 18 30.5 18ZM30.5 20.1636C33.7041 20.1636 34.0836 20.1758 35.349 20.2335C36.519 20.2869 37.1544 20.4824 37.5772 20.6467C38.1373 20.8644 38.5371 21.1244 38.957 21.5444C39.3769 21.9643 39.637 22.364 39.8546 22.9242C40.019 23.347 40.2145 23.9824 40.2678 25.1524C40.3256 26.4177 40.3378 26.7973 40.3378 30.0014C40.3378 33.2055 40.3256 33.5851 40.2678 34.8504C40.2145 36.0204 40.019 36.6558 39.8546 37.0787C39.637 37.6388 39.3769 38.0385 38.957 38.4584C38.5371 38.8784 38.1373 39.1384 37.5772 39.3561C37.1544 39.5204 36.519 39.7159 35.349 39.7693C34.0838 39.827 33.7043 39.8393 30.5 39.8393C27.2956 39.8393 26.9161 39.827 25.6509 39.7693C24.4809 39.7159 23.8455 39.5204 23.4227 39.3561C22.8626 39.1384 22.4628 38.8784 22.0429 38.4584C21.623 38.0385 21.3629 37.6388 21.1453 37.0787C20.9809 36.6558 20.7854 36.0204 20.7321 34.8504C20.6744 33.5851 20.6621 33.2055 20.6621 30.0014C20.6621 26.7973 20.6744 26.4177 20.7321 25.1524C20.7854 23.9824 20.9809 23.347 21.1453 22.9242C21.3629 22.364 21.623 21.9643 22.0429 21.5444C22.4628 21.1244 22.8626 20.8644 23.4227 20.6467C23.8455 20.4824 24.4809 20.2869 25.6509 20.2335C26.9163 20.1758 27.2958 20.1636 30.5 20.1636ZM24.338 29.9996C24.338 26.5963 27.0968 23.8374 30.5001 23.8374C33.9034 23.8374 36.6623 26.5963 36.6623 29.9996C36.6623 33.4028 33.9034 36.1617 30.5001 36.1617C27.0968 36.1617 24.338 33.4028 24.338 29.9996ZM30.5001 34.0002C28.2909 34.0002 26.5001 32.2094 26.5001 30.0003C26.5001 27.7911 28.2909 26.0002 30.5001 26.0002C32.7092 26.0002 34.5001 27.7911 34.5001 30.0003C34.5001 32.2094 32.7092 34.0002 30.5001 34.0002ZM36.9056 25.0358C37.7009 25.0358 38.3456 24.3911 38.3456 23.5958C38.3456 22.8005 37.7009 22.1558 36.9056 22.1558C36.1104 22.1558 35.4656 22.8005 35.4656 23.5958C35.4656 24.3911 36.1104 25.0358 36.9056 25.0358Z" fill="#E4A52A"/>
</svg>
