<svg width="16" height="16" viewBox="0 0 16 16" fill="none" xmlns="http://www.w3.org/2000/svg">
<path d="M7.99992 0C12.4114 0 16 2.91233 16 6.49208C16 7.92478 15.4447 9.215 14.2853 10.4864C12.6069 12.4183 8.85384 14.7713 7.99992 15.1311C7.17013 15.4808 7.26596 14.9342 7.30393 14.7176C7.30502 14.7114 7.30607 14.7055 7.30704 14.6998C7.32728 14.5796 7.42114 14.015 7.42114 14.015C7.44813 13.8108 7.47604 13.4939 7.39537 13.2916C7.30566 13.069 6.95109 12.9533 6.69053 12.8972C2.84607 12.389 0 9.70131 0 6.49208C0 2.91233 3.58911 0 7.99992 0ZM5.02188 7.68627H3.49717V4.91795C3.49717 4.83192 3.42739 4.76214 3.3415 4.76214H2.7802C2.69417 4.76214 2.62439 4.83192 2.62439 4.91795V8.40354C2.62439 8.44541 2.6411 8.48329 2.66794 8.5112L2.66887 8.51232L2.67009 8.5135L2.67239 8.51565C2.70045 8.54264 2.73818 8.5592 2.78005 8.5592H5.02188C5.10792 8.5592 5.17739 8.48927 5.17739 8.40324V7.84209C5.17739 7.75605 5.10792 7.68627 5.02188 7.68627ZM5.81339 4.76223C5.72735 4.76223 5.65742 4.83201 5.65742 4.91774V8.40363C5.65742 8.48952 5.72735 8.55914 5.81339 8.55914H6.37454C6.46057 8.55914 6.53035 8.48952 6.53035 8.40363V4.91774C6.53035 4.83201 6.46057 4.76223 6.37454 4.76223H5.81339ZM9.67577 4.76223C9.58973 4.76223 9.51995 4.83201 9.51995 4.91774V6.98872L7.92255 4.8314C7.91887 4.82587 7.91473 4.82066 7.91043 4.8156L7.90936 4.81468C7.90629 4.81115 7.90322 4.80808 7.9 4.80502L7.89709 4.80241C7.89448 4.79996 7.89172 4.79766 7.88881 4.79551C7.88791 4.79461 7.88693 4.79387 7.88592 4.79312L7.88482 4.79229L7.87963 4.78869L7.87669 4.78677C7.87516 4.78569 7.87362 4.78477 7.87194 4.78401C7.86918 4.78232 7.86642 4.78063 7.86366 4.77925L7.86181 4.77835L7.85874 4.77695C7.85583 4.77557 7.85292 4.77419 7.84985 4.77312L7.84479 4.77128C7.84173 4.7702 7.83866 4.76913 7.83544 4.76836L7.83265 4.76756L7.83007 4.76683L7.82118 4.76484L7.81458 4.76407L7.81231 4.76366L7.80837 4.76321L7.8063 4.763L7.80097 4.76265L7.79832 4.76254L7.7928 4.76223H7.23181C7.14577 4.76223 7.07584 4.83201 7.07584 4.91774V8.40363C7.07584 8.48952 7.14577 8.55914 7.23181 8.55914H7.7928C7.87899 8.55914 7.94877 8.48952 7.94877 8.40363V6.33326L9.54817 8.49335C9.55921 8.50899 9.57286 8.52172 9.58774 8.53184L9.58927 8.53307L9.59894 8.5389C9.60047 8.53982 9.60185 8.54043 9.60338 8.5412C9.60568 8.54258 9.60829 8.54381 9.61074 8.54488L9.61841 8.5481L9.62301 8.54979C9.62669 8.55117 9.63007 8.55224 9.6336 8.55331C9.63436 8.55331 9.63513 8.55362 9.6359 8.55377C9.64862 8.55715 9.66197 8.55914 9.67577 8.55914H10.2369C10.3231 8.55914 10.3927 8.48952 10.3927 8.40363V4.91774C10.3927 4.83201 10.3231 4.76223 10.2369 4.76223H9.67577ZM13.4913 5.47926V4.91811C13.4913 4.83207 13.4218 4.76214 13.3358 4.76214H11.0938C11.0518 4.76214 11.0139 4.77901 10.9858 4.80615L10.985 4.80685L10.984 4.80784L10.9815 4.8106C10.9548 4.83851 10.9383 4.87624 10.9383 4.91795V8.40354C10.9383 8.44541 10.955 8.48329 10.9818 8.5112C10.9825 8.51197 10.9832 8.51289 10.984 8.5135C10.9846 8.51427 10.9855 8.51504 10.9863 8.51565C11.0142 8.54249 11.0521 8.5592 11.0938 8.5592H13.3358C13.4218 8.5592 13.4913 8.48927 13.4913 8.40339V7.84209C13.4913 7.75621 13.4218 7.68627 13.3358 7.68627H11.8112V7.09706H13.3358C13.4218 7.09706 13.4913 7.02728 13.4913 6.94125V6.3801C13.4913 6.29406 13.4218 6.22413 13.3358 6.22413H11.8112V5.63507H13.3358C13.4218 5.63507 13.4913 5.56544 13.4913 5.47926Z" fill="black"/>
</svg>
