<svg width="26" height="26" viewBox="0 0 26 26" fill="none" xmlns="http://www.w3.org/2000/svg">
<g clip-path="url(#clip0_123_1228)">
<path d="M12.0365 24.9956C4.94189 14.7105 3.625 13.6549 3.625 9.875C3.625 4.69731 7.82231 0.5 13 0.5C18.1777 0.5 22.375 4.69731 22.375 9.875C22.375 13.6549 21.0581 14.7105 13.9635 24.9956C13.4979 25.6682 12.5021 25.6681 12.0365 24.9956ZM13 13.7812C15.1574 13.7812 16.9062 12.0324 16.9062 9.875C16.9062 7.71763 15.1574 5.96875 13 5.96875C10.8426 5.96875 9.09375 7.71763 9.09375 9.875C9.09375 12.0324 10.8426 13.7812 13 13.7812Z" fill="#E4A52A"/>
</g>
<defs>
<clipPath id="clip0_123_1228">
<rect width="25" height="25" fill="white" transform="translate(0.5 0.5)"/>
</clipPath>
</defs>
</svg>
