<svg width="41" height="40" viewBox="0 0 41 40" fill="none" xmlns="http://www.w3.org/2000/svg">
<path d="M6.95849 29.375C6.38329 29.375 5.91699 28.9087 5.91699 28.3335C5.91699 27.7583 6.38329 27.292 6.95849 27.292H34.0415C34.6167 27.292 35.083 27.7583 35.083 28.3335C35.083 28.9087 34.6167 29.375 34.0415 29.375H6.95849ZM6.95899 21.042C6.38351 21.042 5.91699 20.5755 5.91699 20C5.91699 19.4245 6.38351 18.958 6.95899 18.958H34.041C34.6165 18.958 35.083 19.4245 35.083 20C35.083 20.5755 34.6165 21.042 34.041 21.042H6.95899ZM6.95849 12.708C6.38329 12.708 5.91699 12.2417 5.91699 11.6665C5.91699 11.0913 6.38329 10.625 6.95849 10.625H34.0415C34.6167 10.625 35.083 11.0913 35.083 11.6665C35.083 12.2417 34.6167 12.708 34.0415 12.708H6.95849Z" fill="#E4A52A"/>
</svg>
