<svg width="330" height="300" viewBox="0 0 330 330" fill="none" xmlns="http://www.w3.org/2000/svg">
    <path fill-rule="evenodd" clip-rule="evenodd"
        d="M30 0.500004L30 120.5C13.4315 120.5 1.45619e-05 133.931 1.31134e-05 150.5C1.16649e-05 167.069 13.4315 180.5 30 180.5L30 300.5C195.685 300.5 330 166.185 330 0.500031L210 0.50002C210 17.0686 196.569 30.5 180 30.5C163.431 30.5 150 17.0686 150 0.500015L30 0.500004Z"
        fill="#E6D4C2" />
    <path opacity="0.2"
        d="M270.424 114.9C266.857 114.9 263.54 114.25 260.474 112.95C257.407 111.617 254.757 109.75 252.524 107.35C250.324 104.917 248.707 102.033 247.674 98.7L256.224 96.25C257.324 99.5833 259.157 102.117 261.724 103.85C264.29 105.583 267.174 106.433 270.374 106.4C273.307 106.333 275.84 105.667 277.974 104.4C280.14 103.1 281.807 101.333 282.974 99.1C284.174 96.8667 284.774 94.2833 284.774 91.35C284.774 86.8833 283.44 83.2667 280.774 80.5C278.107 77.7 274.607 76.3 270.274 76.3C269.074 76.3 267.807 76.4667 266.474 76.8C265.174 77.1333 263.957 77.6 262.824 78.2L258.524 71.15L285.224 47L286.374 50H250.524V41.5H292.974V50.05L270.224 71.85L270.124 68.7C274.89 68.3667 279.057 69.15 282.624 71.05C286.19 72.95 288.957 75.6667 290.924 79.2C292.924 82.7333 293.924 86.7833 293.924 91.35C293.924 95.95 292.89 100.017 290.824 103.55C288.757 107.083 285.957 109.867 282.424 111.9C278.89 113.9 274.89 114.9 270.424 114.9Z"
        fill="white" />
    <path opacity="0.2"
        d="M212.376 115C207.71 115 203.543 113.95 199.876 111.85C196.243 109.717 193.36 106.833 191.226 103.2C189.126 99.5333 188.076 95.3667 188.076 90.7V64.3C188.076 59.6333 189.126 55.4667 191.226 51.8C193.36 48.1333 196.243 45.25 199.876 43.15C203.543 41.05 207.71 40 212.376 40C217.043 40 221.21 41.05 224.876 43.15C228.543 45.25 231.426 48.1333 233.526 51.8C235.626 55.4667 236.676 59.6333 236.676 64.3V90.7C236.676 95.3667 235.626 99.5333 233.526 103.2C231.426 106.833 228.543 109.717 224.876 111.85C221.21 113.95 217.043 115 212.376 115ZM212.376 106.45C215.21 106.45 217.776 105.767 220.076 104.4C222.376 103.033 224.21 101.2 225.576 98.9C226.943 96.5667 227.626 94 227.626 91.2V63.75C227.626 60.9167 226.943 58.35 225.576 56.05C224.21 53.75 222.376 51.9167 220.076 50.55C217.776 49.1833 215.21 48.5 212.376 48.5C209.576 48.5 207.01 49.1833 204.676 50.55C202.376 51.9167 200.543 53.75 199.176 56.05C197.81 58.35 197.126 60.9167 197.126 63.75V91.2C197.126 94 197.81 96.5667 199.176 98.9C200.543 101.2 202.376 103.033 204.676 104.4C207.01 105.767 209.576 106.45 212.376 106.45Z"
        fill="white" />
    <text x="110" y="150" style="fill:#202020;font-size:24px;font-weight:bold;">認養申請
    </text>
</svg>