<svg width="300" height="331" viewBox="0 0 300 331" fill="none" xmlns="http://www.w3.org/2000/svg">
<path fill-rule="evenodd" clip-rule="evenodd" d="M-1.31134e-05 300.5L120 300.5C120 317.069 133.431 330.5 150 330.5C166.569 330.5 180 317.069 180 300.5L300 300.5C300 134.815 165.685 0.499994 0 0.499987L-5.24537e-06 120.5C16.5685 120.5 30 133.931 30 150.5C30 167.069 16.5685 180.5 -7.86805e-06 180.5L-1.31134e-05 300.5Z" fill="#FCEEE3"/>
<path opacity="0.1" d="M216.893 263.45L216.943 255.45L248.893 226.7C251.559 224.3 253.343 222.033 254.243 219.9C255.176 217.733 255.643 215.517 255.643 213.25C255.643 210.483 255.009 207.983 253.743 205.75C252.476 203.517 250.743 201.75 248.543 200.45C246.376 199.15 243.909 198.5 241.143 198.5C238.276 198.5 235.726 199.183 233.493 200.55C231.259 201.883 229.493 203.667 228.193 205.9C226.926 208.133 226.309 210.567 226.343 213.2H217.243C217.243 208.667 218.293 204.667 220.393 201.2C222.493 197.7 225.343 194.967 228.943 193C232.576 191 236.693 190 241.293 190C245.759 190 249.759 191.033 253.293 193.1C256.826 195.133 259.609 197.917 261.643 201.45C263.709 204.95 264.743 208.917 264.743 213.35C264.743 216.483 264.343 219.2 263.543 221.5C262.776 223.8 261.576 225.933 259.943 227.9C258.309 229.833 256.259 231.9 253.793 234.1L227.243 257.95L226.093 254.95H264.743V263.45H216.893Z" fill="#A98467"/>
<path opacity="0.1" d="M180.595 265C175.928 265 171.762 263.95 168.095 261.85C164.462 259.717 161.578 256.833 159.445 253.2C157.345 249.533 156.295 245.367 156.295 240.7V214.3C156.295 209.633 157.345 205.467 159.445 201.8C161.578 198.133 164.462 195.25 168.095 193.15C171.762 191.05 175.928 190 180.595 190C185.262 190 189.428 191.05 193.095 193.15C196.762 195.25 199.645 198.133 201.745 201.8C203.845 205.467 204.895 209.633 204.895 214.3V240.7C204.895 245.367 203.845 249.533 201.745 253.2C199.645 256.833 196.762 259.717 193.095 261.85C189.428 263.95 185.262 265 180.595 265ZM180.595 256.45C183.428 256.45 185.995 255.767 188.295 254.4C190.595 253.033 192.428 251.2 193.795 248.9C195.162 246.567 195.845 244 195.845 241.2V213.75C195.845 210.917 195.162 208.35 193.795 206.05C192.428 203.75 190.595 201.917 188.295 200.55C185.995 199.183 183.428 198.5 180.595 198.5C177.795 198.5 175.228 199.183 172.895 200.55C170.595 201.917 168.762 203.75 167.395 206.05C166.028 208.35 165.345 210.917 165.345 213.75V241.2C165.345 244 166.028 246.567 167.395 248.9C168.762 251.2 170.595 253.033 172.895 254.4C175.228 255.767 177.795 256.45 180.595 256.45Z" fill="#A98467"/>
</svg>
