<svg width="330" height="300" viewBox="0 0 330 330" fill="none" xmlns="http://www.w3.org/2000/svg">
    <path fill-rule="evenodd" clip-rule="evenodd"
        d="M300 30.5L180 30.5C180 13.9315 166.569 0.500022 150 0.50002C133.432 0.500017 120 13.9315 120 30.5L3.93403e-05 30.5C1.76132e-05 196.185 134.315 330.5 300 330.5L300 210.5C283.431 210.5 270 197.069 270 180.5C270 163.931 283.431 150.5 300 150.5L300 30.5Z"
        fill="#DBC2AA" />
    <path opacity="0.2"
        d="M131.114 143.5V130.25H98.0137V121.8L121.764 71.5H131.864L108.114 121.8H131.114V101.55H140.114V121.8H147.614V130.25H140.114V143.5H131.114Z"
        fill="white" />
    <path opacity="0.2"
        d="M61.716 145C57.0494 145 52.8827 143.95 49.216 141.85C45.5827 139.717 42.6993 136.833 40.566 133.2C38.466 129.533 37.416 125.367 37.416 120.7V94.3C37.416 89.6333 38.466 85.4667 40.566 81.8C42.6993 78.1333 45.5827 75.25 49.216 73.15C52.8827 71.05 57.0494 70 61.716 70C66.3827 70 70.5494 71.05 74.216 73.15C77.8827 75.25 80.766 78.1333 82.866 81.8C84.966 85.4667 86.016 89.6333 86.016 94.3V120.7C86.016 125.367 84.966 129.533 82.866 133.2C80.766 136.833 77.8827 139.717 74.216 141.85C70.5494 143.95 66.3827 145 61.716 145ZM61.716 136.45C64.5494 136.45 67.116 135.767 69.416 134.4C71.716 133.033 73.5494 131.2 74.916 128.9C76.2827 126.567 76.966 124 76.966 121.2V93.75C76.966 90.9167 76.2827 88.35 74.916 86.05C73.5494 83.75 71.716 81.9167 69.416 80.55C67.116 79.1833 64.5494 78.5 61.716 78.5C58.916 78.5 56.3494 79.1833 54.016 80.55C51.716 81.9167 49.8827 83.75 48.516 86.05C47.1493 88.35 46.466 90.9167 46.466 93.75V121.2C46.466 124 47.1493 126.567 48.516 128.9C49.8827 131.2 51.716 133.033 54.016 134.4C56.3494 135.767 58.916 136.45 61.716 136.45Z"
        fill="white" />
    <text x="110" y="180" style="fill:#202020;font-size:24px;font-weight:bold;">迎接新家人
    </text>
</svg>