<svg width="330" height="301" viewBox="0 0 330 301" fill="none" xmlns="http://www.w3.org/2000/svg">
<path fill-rule="evenodd" clip-rule="evenodd" d="M300 300.5V180.5C316.569 180.5 330 167.069 330 150.5C330 133.931 316.569 120.5 300 120.5V0.5C134.315 0.5 0 134.815 0 300.5H120C120 283.931 133.431 270.5 150 270.5C166.569 270.5 180 283.931 180 300.5H300Z" fill="#FFFCF9"/>
<path opacity="0.1" d="M112.536 263.5V201.35L98.9863 209.55V199.6L112.536 191.5H121.586V263.5H112.536Z" fill="#A98467"/>
<path opacity="0.1" d="M61.6887 265C57.022 265 52.8553 263.95 49.1887 261.85C45.5553 259.717 42.672 256.833 40.5387 253.2C38.4387 249.533 37.3887 245.367 37.3887 240.7V214.3C37.3887 209.633 38.4387 205.467 40.5387 201.8C42.672 198.133 45.5553 195.25 49.1887 193.15C52.8553 191.05 57.022 190 61.6887 190C66.3553 190 70.522 191.05 74.1887 193.15C77.8553 195.25 80.7387 198.133 82.8387 201.8C84.9387 205.467 85.9887 209.633 85.9887 214.3V240.7C85.9887 245.367 84.9387 249.533 82.8387 253.2C80.7387 256.833 77.8553 259.717 74.1887 261.85C70.522 263.95 66.3553 265 61.6887 265ZM61.6887 256.45C64.522 256.45 67.0887 255.767 69.3887 254.4C71.6887 253.033 73.522 251.2 74.8887 248.9C76.2553 246.567 76.9387 244 76.9387 241.2V213.75C76.9387 210.917 76.2553 208.35 74.8887 206.05C73.522 203.75 71.6887 201.917 69.3887 200.55C67.0887 199.183 64.522 198.5 61.6887 198.5C58.8887 198.5 56.322 199.183 53.9887 200.55C51.6887 201.917 49.8553 203.75 48.4887 206.05C47.122 208.35 46.4387 210.917 46.4387 213.75V241.2C46.4387 244 47.122 246.567 48.4887 248.9C49.8553 251.2 51.6887 253.033 53.9887 254.4C56.322 255.767 58.8887 256.45 61.6887 256.45Z" fill="#A98467"/>
</svg>
