<svg width="100" height="173" viewBox="0 0 100 173" fill="none" xmlns="http://www.w3.org/2000/svg">
<g clip-path="url(#clip0_166_308)">
<path fill-rule="evenodd" clip-rule="evenodd" d="M50 96.0556C74.9843 96.0556 95.2381 75.7343 95.2381 50.6667C95.2381 25.5991 74.9843 5.27778 50 5.27778C25.0157 5.27778 4.7619 25.5991 4.7619 50.6667C4.7619 75.7343 25.0157 96.0556 50 96.0556ZM50 100.833C77.6142 100.833 100 78.373 100 50.6667C100 22.9604 77.6142 0.5 50 0.5C22.3858 0.5 0 22.9604 0 50.6667C0 78.373 22.3858 100.833 50 100.833Z" fill="#E4A52A"/>
<path d="M55.9281 89.1497C52.8863 85.9783 51.602 82.2988 51.4803 81.9144C52.7241 84.4269 54.2653 86.9393 55.9281 89.1497Z" fill="#E4A52A"/>
<path d="M72.0022 96.2478L71.867 96.3576H71.7454C71.84 96.3165 71.9211 96.289 72.0022 96.2478Z" fill="#E4A52A"/>
<path d="M99.7704 46.9458C99.3784 42.882 98.5537 39.0515 97.3776 35.4544C97.3776 35.3858 97.3505 35.3034 97.3235 35.2348C97.31 35.1799 97.2829 35.1387 97.2694 35.0838C86.4001 1.9139 43.3827 -12.1448 15.5336 14.3526C-5.19106 33.9854 -5.09957 66.1643 15.6251 85.7833C20.0593 89.9982 24.9844 94.2059 29.9999 96.4438C29.4862 94.2471 29.2283 94.1058 29.2283 94.1058C29.2013 93.6802 29.2013 93.2683 29.1878 92.8427C29.1878 92.0327 29.1878 91.2364 29.1607 90.495C29.1607 89.9458 29.1472 89.4378 29.1202 88.9848C29.1066 88.8475 29.0931 88.7102 29.0661 88.5729C28.3631 82.5458 22.3336 82.9302 18.305 80.5413C16.6692 79.5665 15.3713 78.1524 14.8847 75.6537C14.6954 74.7338 14.6278 73.6629 14.6954 72.4273C14.8982 68.3909 24.402 72.0429 29.0661 63.5445C36.4069 61.7459 49.615 67.3063 46.3298 76.6834C44.3155 79.3194 40.4896 76.9991 38.6916 79.6901C38.0562 80.3491 37.164 81.3788 36.7313 77.3973C36.4745 74.8574 36.8395 73.5668 38.3131 71.1642C38.6105 70.67 38.1103 70.5739 37.4208 71.0544C34.2033 73.8414 33.2705 84.1246 38.651 82.6831C40.1517 82.1476 44.5589 78.7702 45.6133 81.2003C47.0328 84.4541 48.6281 87.9551 49.8313 90.3165C50.8317 92.2661 51.8862 93.8449 52.9677 95.1217C53.3462 95.5748 53.7112 95.9867 54.0897 96.3574C54.1303 96.3986 54.1709 96.426 54.2114 96.4672C56.5772 98.6639 59.4323 99.3458 59.9865 99.5792H60.0001C81.8751 95.1217 102.244 72.3999 99.7704 46.9458ZM79.9786 13.6524C82.8041 16.1237 85.3727 18.9794 87.6168 22.2057C88.4145 24.169 88.8606 26.3245 88.8606 28.5898C88.8606 31.4455 88.1576 34.1227 86.9139 36.4841C83.9802 41.2482 78.7484 44.5844 72.2052 44.2961C63.7693 44.0352 56.6043 36.745 56.3474 28.1779C56.2122 24.979 56.9152 22.0822 58.1995 19.6109C61.1467 14.8743 66.3244 11.7029 72.2458 11.7029C75.0307 11.7029 77.6669 12.4168 79.9786 13.6524ZM69.5 90.8C63 92.8066 58.9701 91.4972 56.1717 88.5729C53.1299 85.4014 51.6023 82.2986 51.4806 81.9142C51.4806 81.9142 51.4761 81.9051 51.4671 81.8868C48.2225 75.3242 47.0193 68.7753 51.1832 67.526C57.7264 64.6291 69.1499 62.2539 56.1717 56.5975C55.4552 56.2954 54.8062 55.8424 54.6711 54.7166C54.4818 53.1514 53.3868 50.0761 52.8866 48.7032C52.3188 46.2319 49.7637 44.3647 50.5883 43.1977C58.4969 31.9672 46.0459 35.1387 40.3274 39.5869C36.1906 41.2756 31.878 39.4085 28.1603 47.3028C26.511 50.79 26.7679 54.8813 25.443 55.0598C23.0231 56.3229 20.9547 58.2313 19.4676 60.5378C12.5864 68.3772 7.6566 62.3022 7.14287 60.8195C5.3085 60.1467 5.33012 52.0877 5.35716 50.0695C4.95159 25.8923 27.7953 5.45605 51.9132 4.68721C56.1717 4.45381 60.322 4.85196 64.2966 5.78555C64.2966 5.78555 64.3101 5.78555 64.3507 5.79927C64.3777 5.79927 64.4318 5.82673 64.4859 5.84046C65.5809 6.18369 70.8263 7.99595 68.3928 10.3025C60.3085 11.744 53.211 18.4027 52.8595 28.1779C52.2512 38.8456 61.7145 48.4423 72.2052 47.8245C80.8168 47.5087 86.9815 41.6875 89.1986 34.5895C89.8475 32.7086 90.2125 30.6904 90.2125 28.5898C90.2125 27.7112 90.1449 26.8462 90.0232 26.0087C90.6045 27.0522 91.1723 28.1093 91.6861 29.2076C103.867 55.2795 91.4278 79.9813 69.5 90.8Z" fill="#E4A52A"/>
<path fill-rule="evenodd" clip-rule="evenodd" d="M71.25 13.6688C63.377 13.6688 56.875 20.3393 56.875 28.7188C56.875 37.0982 63.377 43.7687 71.25 43.7687C79.123 43.7687 85.625 37.0982 85.625 28.7188C85.625 20.3393 79.123 13.6688 71.25 13.6688ZM53.125 28.7188C53.125 18.3964 61.1738 9.90625 71.25 9.90625C81.3262 9.90625 89.375 18.3964 89.375 28.7188C89.375 39.0411 81.3262 47.5312 71.25 47.5312C61.1738 47.5312 53.125 39.0411 53.125 28.7188Z" fill="#E4A52A"/>
<path fill-rule="evenodd" clip-rule="evenodd" d="M94.0476 50.6667C94.0476 75.0746 74.3268 94.8611 50 94.8611C25.6732 94.8611 5.95238 75.0746 5.95238 50.6667C5.95238 26.2587 25.6732 6.47222 50 6.47222C58.5838 6.47222 66.5941 8.93575 73.367 13.1966C79.4436 14.0937 84.3498 18.7964 85.8075 24.9235C90.9939 32.1729 94.0476 41.062 94.0476 50.6667ZM100 50.6667C100 78.373 77.6142 100.833 50 100.833C22.3858 100.833 0 78.373 0 50.6667C0 22.9604 22.3858 0.5 50 0.5C77.6142 0.5 100 22.9604 100 50.6667Z" fill="#E4A52A"/>
<path d="M70.6909 37.872C68.8253 37.872 66.9597 37.0894 65.378 35.5929C63.5124 33.8219 62.6066 31.5016 63.1879 29.9502C63.3231 29.5933 63.7151 29.4285 64.0666 29.5521C64.4181 29.6894 64.5939 30.0875 64.4587 30.4445C64.1342 31.3094 64.7426 33.0942 66.3108 34.5907C67.0678 35.3046 69.7716 37.5013 73.0703 35.9499C73.4083 35.7851 73.8138 35.9499 73.9625 36.2794C74.1248 36.6226 73.9625 37.0345 73.6381 37.1855C72.6782 37.6386 71.6913 37.8583 70.7045 37.8583L70.6909 37.872Z" fill="#E4A52A"/>
<path fill-rule="evenodd" clip-rule="evenodd" d="M63.7445 30.1618C63.5236 30.7529 63.5652 31.5599 63.9199 32.4722C64.2713 33.3761 64.9104 34.3268 65.7866 35.1587C67.2018 36.4976 68.8322 37.2051 70.4471 37.2699L70.4557 37.2611H70.7045C71.6011 37.2611 72.5017 37.0619 73.3847 36.6451L73.3876 36.6438L73.3876 36.6438C73.3962 36.6398 73.414 36.6259 73.4246 36.5971C73.4345 36.5704 73.4315 36.5496 73.4247 36.5353L73.4202 36.5258L73.4203 36.5258C73.4147 36.5133 73.4002 36.4969 73.3761 36.4877C73.3544 36.4794 73.34 36.4824 73.3304 36.4871L73.3229 36.4907L73.3229 36.4907C69.6562 38.2152 66.6783 35.7569 65.9031 35.0259L65.9006 35.0235C65.0609 34.2222 64.4671 33.3339 64.1254 32.5103C63.7956 31.7152 63.6603 30.8773 63.9016 30.2341L63.9023 30.2324C63.921 30.1828 63.8984 30.1329 63.8591 30.1125C63.8315 30.1054 63.806 30.1087 63.7865 30.1173C63.7669 30.126 63.7531 30.1396 63.7445 30.1618ZM62.6315 29.7381C62.8889 29.0584 63.6281 28.7651 64.2634 28.9885L64.2731 28.9918L64.2826 28.9956C64.9409 29.2527 65.265 29.9949 65.0155 30.6555C64.9326 30.8775 64.9395 31.3643 65.2245 32.0513C65.4978 32.71 65.9919 33.4619 66.7197 34.1567C67.4599 34.8543 69.8871 36.7853 72.8146 35.4106C73.4675 35.0954 74.2222 35.4139 74.5026 36.0283C74.8064 36.6779 74.5038 37.44 73.89 37.7266C72.935 38.1772 71.949 38.4164 70.9575 38.4511L70.9396 38.4692H70.6909C68.6537 38.4692 66.6465 37.614 64.9696 36.0275L64.9689 36.0268C63.9797 35.0878 63.2333 33.9929 62.8108 32.9063C62.3918 31.8285 62.271 30.7002 62.6307 29.7401L62.6315 29.7381L62.6315 29.7381Z" fill="#E4A52A"/>
<path d="M69.7719 24.8566C65.8649 24.8566 64.54 24.1427 63.08 21.3282C62.9042 20.9987 63.0259 20.5731 63.3639 20.3946C63.6883 20.2161 64.1074 20.3534 64.2697 20.6829C65.4188 22.9071 66.2029 23.4837 69.7584 23.4837C69.8125 23.4837 69.853 23.4837 69.9071 23.4837C70.2856 23.4837 70.583 23.7858 70.583 24.1702C70.583 24.5958 70.191 24.8566 69.7719 24.8566Z" fill="#E4A52A"/>
<path fill-rule="evenodd" clip-rule="evenodd" d="M63.6961 20.9171C63.6731 20.9097 63.6578 20.9141 63.6501 20.9183L63.6412 20.9232C63.6224 20.9331 63.6073 20.9502 63.5995 20.9761C63.5914 21.0033 63.5951 21.0283 63.6048 21.0465L63.608 21.0525C64.3168 22.4187 64.9423 23.1731 65.786 23.6196C66.6516 24.0777 67.8336 24.2594 69.7719 24.2594C69.8649 24.2594 69.934 24.2293 69.9672 24.2032C69.9818 24.1917 69.9858 24.1841 69.9861 24.1834L69.9868 24.1815C69.9871 24.1805 69.9878 24.1771 69.9878 24.1702C69.9878 24.1358 69.9757 24.1148 69.9636 24.1025C69.9517 24.0905 69.9343 24.081 69.9071 24.081H69.759C67.9784 24.081 66.7575 23.9429 65.8302 23.4436C64.8759 22.9299 64.3233 22.0844 63.7412 20.9578L63.7359 20.9475C63.7315 20.9385 63.7197 20.9247 63.6961 20.9171ZM64.8003 20.4124C64.4891 19.7889 63.7056 19.5289 63.0822 19.8685C62.45 20.2055 62.2287 20.9933 62.5533 21.6066C63.3042 23.0535 64.0709 24.0624 65.2307 24.6761C66.3693 25.2787 67.8033 25.4539 69.7719 25.4539C70.3772 25.4539 71.1783 25.0524 71.1783 24.1702C71.1783 23.4628 70.6211 22.8865 69.9071 22.8865H69.759C67.9841 22.8865 67.034 22.7362 66.3931 22.3912C65.7799 22.061 65.3662 21.5071 64.8003 20.4124Z" fill="#E4A52A"/>
<path d="M81.6824 30.3344C81.6824 30.3344 81.5877 30.3344 81.5336 30.3344C77.9782 30.3344 77.1941 29.7578 76.0449 27.5336C75.8692 27.2041 75.4636 27.0669 75.1392 27.2453C74.8012 27.4238 74.6795 27.8357 74.8553 28.1789C76.3153 30.9934 77.6402 31.7073 81.5472 31.7073C81.9663 31.7073 82.3718 31.4465 82.3583 31.0209C82.3583 30.6365 82.0609 30.3344 81.6824 30.3344Z" fill="#E4A52A"/>
<path fill-rule="evenodd" clip-rule="evenodd" d="M74.8574 26.7193C75.4946 26.372 76.2513 26.655 76.5697 27.2519L76.5734 27.2588C77.1404 28.3563 77.5543 28.9113 78.1683 29.2419C78.8092 29.587 79.7587 29.7373 81.5336 29.7373H81.6819C82.3928 29.7373 82.9485 30.3084 82.9534 31.0115C82.9638 31.4373 82.7584 31.7787 82.4798 31.9956C82.2106 32.2052 81.8716 32.3046 81.5471 32.3046C79.5785 32.3046 78.1445 32.1294 77.0059 31.5269C75.8454 30.9128 75.0785 29.903 74.3272 28.4547L74.3257 28.4519C74.0078 27.831 74.2221 27.0579 74.8574 26.7193ZM75.4645 27.7673C75.4458 27.7612 75.4342 27.7641 75.4253 27.7691L75.4164 27.774C75.3926 27.7865 75.3802 27.8036 75.3743 27.8233C75.3681 27.8438 75.3677 27.8723 75.3842 27.9052C76.0925 29.2702 76.7179 30.0241 77.5612 30.4704C78.4268 30.9284 79.6087 31.1102 81.5471 31.1102C81.6416 31.1102 81.7151 31.0791 81.75 31.0519C81.7568 31.0466 81.761 31.0425 81.7633 31.0398L81.763 31.0305V31.0209C81.763 30.9866 81.7509 30.9656 81.7388 30.9533C81.7269 30.9412 81.7095 30.9317 81.6823 30.9317H81.5336C79.753 30.9317 78.5327 30.7937 77.6054 30.2944C76.6525 29.7814 76.1001 28.9377 75.519 27.8136C75.5053 27.789 75.4845 27.7738 75.4645 27.7673Z" fill="#E4A52A"/>
</g>
<path d="M83.2634 121.472C83.1713 121.472 83.0946 121.441 83.0332 121.379C82.9719 121.318 82.9412 121.241 82.9412 121.149V113.001C82.9412 112.909 82.9719 112.832 83.0332 112.771C83.0946 112.71 83.1713 112.679 83.2634 112.679H84.4603C84.5524 112.679 84.6291 112.71 84.6905 112.771C84.7518 112.832 84.7825 112.909 84.7825 113.001V113.722C85.069 113.334 85.4066 113.032 85.7953 112.817C86.1943 112.592 86.629 112.479 87.0996 112.479C87.6827 112.479 88.2044 112.618 88.6648 112.894C89.1353 113.17 89.5036 113.554 89.7696 114.045C90.0356 114.536 90.1686 115.088 90.1686 115.702V121.149C90.1686 121.241 90.1379 121.318 90.0765 121.379C90.0151 121.441 89.9384 121.472 89.8463 121.472H88.6494C88.5573 121.472 88.4806 121.441 88.4192 121.379C88.3579 121.318 88.3272 121.241 88.3272 121.149V115.932C88.3272 115.39 88.1891 114.976 87.9129 114.689C87.6367 114.392 87.2479 114.244 86.7467 114.244C86.1431 114.244 85.6623 114.444 85.3043 114.843C84.9564 115.231 84.7825 115.768 84.7825 116.454V121.149C84.7825 121.241 84.7518 121.318 84.6905 121.379C84.6291 121.441 84.5524 121.472 84.4603 121.472H83.2634Z" fill="black"/>
<path d="M74.8972 121.671C74.0379 121.671 73.3372 121.431 72.795 120.95C72.263 120.459 71.9971 119.825 71.9971 119.047C71.9971 118.341 72.2426 117.758 72.7336 117.298C73.2247 116.827 73.9152 116.52 74.8052 116.377C75.0302 116.357 75.245 116.326 75.4496 116.285C76.1657 116.203 76.6005 116.142 76.7539 116.101C77.1325 116.039 77.3217 115.825 77.3217 115.456C77.3217 115.078 77.1631 114.776 76.846 114.551C76.5391 114.316 76.1504 114.198 75.6798 114.198C74.8512 114.198 74.2476 114.5 73.8691 115.103C73.7873 115.236 73.6901 115.303 73.5776 115.303C73.4957 115.303 73.4292 115.282 73.3781 115.242L72.5188 114.658C72.4267 114.597 72.3807 114.51 72.3807 114.398C72.3807 114.367 72.3909 114.321 72.4114 114.259C72.708 113.697 73.1479 113.262 73.731 112.955C74.3141 112.638 74.974 112.479 75.7105 112.479C76.3857 112.479 76.979 112.607 77.4905 112.863C78.002 113.119 78.3958 113.482 78.672 113.953C78.9585 114.423 79.1017 114.965 79.1017 115.579V121.149C79.1017 121.241 79.071 121.318 79.0096 121.379C78.9483 121.441 78.8715 121.472 78.7795 121.472H77.736C77.6439 121.472 77.5672 121.446 77.5058 121.395C77.4445 121.333 77.4138 121.252 77.4138 121.149V120.551C76.7079 121.298 75.8691 121.671 74.8972 121.671ZM75.0353 120.029C75.4343 120.029 75.8128 119.927 76.1708 119.722C76.5289 119.518 76.8153 119.252 77.0302 118.924C77.2552 118.587 77.3677 118.234 77.3677 117.866V117.559L76.2169 117.727C75.5929 117.799 75.1888 117.855 75.0046 117.896C74.1658 118.05 73.7464 118.413 73.7464 118.986C73.7464 119.303 73.864 119.559 74.0993 119.753C74.3346 119.937 74.6466 120.029 75.0353 120.029Z" fill="black"/>
<path d="M64.52 121.671C63.9369 121.671 63.4101 121.533 62.9395 121.257C62.4791 120.98 62.116 120.597 61.85 120.106C61.584 119.615 61.451 119.062 61.451 118.449V113.001C61.451 112.909 61.4817 112.832 61.5431 112.771C61.6045 112.71 61.6812 112.679 61.7733 112.679H62.9702C63.0623 112.679 63.139 112.71 63.2004 112.771C63.2617 112.832 63.2924 112.909 63.2924 113.001V118.218C63.2924 118.761 63.4305 119.18 63.7067 119.477C63.9829 119.763 64.3717 119.906 64.8729 119.906C65.4765 119.906 65.9522 119.712 66.3 119.323C66.658 118.924 66.8371 118.382 66.8371 117.697V113.001C66.8371 112.909 66.8678 112.832 66.9291 112.771C66.9905 112.71 67.0672 112.679 67.1593 112.679H68.3562C68.4483 112.679 68.525 112.71 68.5864 112.771C68.6477 112.832 68.6784 112.909 68.6784 113.001V121.149C68.6784 121.241 68.6477 121.318 68.5864 121.379C68.525 121.441 68.4483 121.472 68.3562 121.472H67.1593C67.0672 121.472 66.9905 121.441 66.9291 121.379C66.8678 121.318 66.8371 121.241 66.8371 121.149V120.428C66.5506 120.817 66.2079 121.124 65.809 121.349C65.4202 121.564 64.9906 121.671 64.52 121.671Z" fill="black"/>
<path d="M53.86 121.472C53.7679 121.472 53.6912 121.441 53.6298 121.379C53.5685 121.318 53.5378 121.241 53.5378 121.149V116.454L50.3 111.037C50.2591 110.986 50.2386 110.919 50.2386 110.838C50.2386 110.746 50.2745 110.669 50.3461 110.607C50.4177 110.536 50.5046 110.5 50.6069 110.5H51.8805C52.0238 110.5 52.1261 110.556 52.1874 110.669L54.4585 114.612H54.4892L56.7602 110.669C56.8216 110.556 56.9239 110.5 57.0671 110.5H58.3407C58.443 110.5 58.5299 110.536 58.6016 110.607C58.6732 110.669 58.709 110.746 58.709 110.838C58.709 110.919 58.6885 110.986 58.6476 111.037L55.4098 116.454V121.149C55.4098 121.241 55.3791 121.318 55.3178 121.379C55.2564 121.441 55.1797 121.472 55.0876 121.472H53.86Z" fill="black"/>
<path d="M43.3387 124.648C42.3157 124.648 41.4973 124.464 40.8835 124.095C40.2799 123.737 39.9782 123.175 39.9782 122.408C39.9782 121.845 40.1725 121.359 40.5613 120.95C40.193 120.653 40.0089 120.244 40.0089 119.722C40.0089 119.374 40.0907 119.047 40.2544 118.74C40.4283 118.423 40.6636 118.152 40.9602 117.927C40.6329 117.651 40.3771 117.318 40.193 116.929C40.0191 116.53 39.9321 116.096 39.9321 115.625C39.9321 115.001 40.0805 114.449 40.3771 113.968C40.684 113.487 41.0932 113.119 41.6047 112.863C42.1264 112.597 42.6993 112.464 43.3233 112.464C43.7734 112.464 44.2031 112.536 44.6123 112.679H47.6352C47.7273 112.679 47.804 112.71 47.8654 112.771C47.9268 112.832 47.9574 112.909 47.9574 113.001V114.014C47.9574 114.106 47.9268 114.183 47.8654 114.244C47.804 114.305 47.7273 114.336 47.6352 114.336H46.4383C46.6122 114.735 46.6992 115.165 46.6992 115.625C46.6992 116.239 46.5457 116.786 46.2388 117.267C45.9422 117.738 45.5381 118.106 45.0266 118.372C44.5151 118.628 43.9473 118.755 43.3233 118.755C42.8528 118.755 42.3873 118.674 41.927 118.51C41.7121 118.725 41.6047 118.95 41.6047 119.185C41.6047 119.39 41.6814 119.533 41.8349 119.615C41.9883 119.686 42.2134 119.732 42.5101 119.753C42.9192 119.773 43.3336 119.784 43.753 119.784L44.4435 119.799C45.3028 119.819 45.9984 119.973 46.5304 120.259C47.0726 120.546 47.3437 121.088 47.3437 121.886C47.3437 122.806 46.9703 123.497 46.2235 123.957C45.4869 124.418 44.5253 124.648 43.3387 124.648ZM43.3233 117.144C43.8041 117.144 44.1826 117.006 44.4588 116.73C44.735 116.454 44.8731 116.085 44.8731 115.625C44.8731 115.165 44.735 114.791 44.4588 114.505C44.1826 114.219 43.8041 114.075 43.3233 114.075C42.8425 114.075 42.4589 114.219 42.1725 114.505C41.8963 114.791 41.7582 115.165 41.7582 115.625C41.7582 116.085 41.8963 116.454 42.1725 116.73C42.4589 117.006 42.8425 117.144 43.3233 117.144ZM43.4768 123.067C44.8067 123.067 45.4716 122.75 45.4716 122.116C45.4716 121.85 45.3693 121.676 45.1647 121.594C44.9703 121.512 44.6941 121.471 44.3361 121.471H42.8323C42.4538 121.471 42.1418 121.456 41.8963 121.425C41.7837 121.61 41.7275 121.824 41.7275 122.07C41.7275 122.459 41.8758 122.72 42.1725 122.853C42.4794 122.996 42.9141 123.067 43.4768 123.067Z" fill="black"/>
<path d="M29.5716 121.472C29.4796 121.472 29.4028 121.441 29.3415 121.379C29.2801 121.318 29.2494 121.241 29.2494 121.149V113.001C29.2494 112.909 29.2801 112.832 29.3415 112.771C29.4028 112.71 29.4796 112.679 29.5716 112.679H30.7685C30.8606 112.679 30.9373 112.71 30.9987 112.771C31.0601 112.832 31.0908 112.909 31.0908 113.001V113.722C31.3772 113.334 31.7148 113.032 32.1035 112.817C32.5025 112.592 32.9373 112.479 33.4078 112.479C33.9909 112.479 34.5126 112.618 34.973 112.894C35.4436 113.17 35.8118 113.554 36.0778 114.045C36.3438 114.536 36.4768 115.088 36.4768 115.702V121.149C36.4768 121.241 36.4461 121.318 36.3847 121.379C36.3233 121.441 36.2466 121.472 36.1545 121.472H34.9576C34.8656 121.472 34.7889 121.441 34.7275 121.379C34.6661 121.318 34.6354 121.241 34.6354 121.149V115.932C34.6354 115.39 34.4973 114.976 34.2211 114.689C33.9449 114.392 33.5562 114.244 33.0549 114.244C32.4513 114.244 31.9705 114.444 31.6125 114.843C31.2647 115.231 31.0908 115.768 31.0908 116.454V121.149C31.0908 121.241 31.0601 121.318 30.9987 121.379C30.9373 121.441 30.8606 121.472 30.7685 121.472H29.5716Z" fill="black"/>
<path d="M21.2056 121.671C20.3463 121.671 19.6455 121.431 19.1033 120.95C18.5714 120.459 18.3054 119.825 18.3054 119.047C18.3054 118.341 18.5509 117.758 19.042 117.298C19.533 116.827 20.2235 116.52 21.1135 116.377C21.3386 116.357 21.5534 116.326 21.758 116.285C22.4741 116.203 22.9089 116.142 23.0623 116.101C23.4408 116.039 23.6301 115.825 23.6301 115.456C23.6301 115.078 23.4715 114.776 23.1544 114.551C22.8475 114.316 22.4587 114.198 21.9882 114.198C21.1595 114.198 20.556 114.5 20.1775 115.103C20.0956 115.236 19.9985 115.303 19.8859 115.303C19.8041 115.303 19.7376 115.282 19.6865 115.242L18.8271 114.658C18.7351 114.597 18.689 114.51 18.689 114.398C18.689 114.367 18.6993 114.321 18.7197 114.259C19.0164 113.697 19.4563 113.262 20.0394 112.955C20.6225 112.638 21.2823 112.479 22.0189 112.479C22.694 112.479 23.2874 112.607 23.7989 112.863C24.3103 113.119 24.7042 113.482 24.9804 113.953C25.2668 114.423 25.4101 114.965 25.4101 115.579V121.149C25.4101 121.241 25.3794 121.318 25.318 121.379C25.2566 121.441 25.1799 121.472 25.0878 121.472H24.0444C23.9523 121.472 23.8756 121.446 23.8142 121.395C23.7528 121.333 23.7221 121.252 23.7221 121.149V120.551C23.0163 121.298 22.1774 121.671 21.2056 121.671ZM21.3437 120.029C21.7426 120.029 22.1212 119.927 22.4792 119.722C22.8372 119.518 23.1237 119.252 23.3385 118.924C23.5636 118.587 23.6761 118.234 23.6761 117.866V117.559L22.5252 117.727C21.9012 117.799 21.4971 117.855 21.313 117.896C20.4741 118.05 20.0547 118.413 20.0547 118.986C20.0547 119.303 20.1724 119.559 20.4077 119.753C20.6429 119.937 20.955 120.029 21.3437 120.029Z" fill="black"/>
<path d="M10.4915 121.472C10.3074 121.472 10.1488 121.41 10.0158 121.287C9.89304 121.154 9.83167 120.996 9.83167 120.812V110.822C9.83167 110.73 9.86235 110.653 9.92373 110.592C9.98511 110.531 10.0618 110.5 10.1539 110.5H11.3815C11.4736 110.5 11.5503 110.531 11.6117 110.592C11.673 110.653 11.7037 110.73 11.7037 110.822V119.676H15.2637C15.3558 119.676 15.4325 119.707 15.4939 119.768C15.5553 119.83 15.586 119.906 15.586 119.998V121.149C15.586 121.241 15.5553 121.318 15.4939 121.379C15.4325 121.441 15.3558 121.472 15.2637 121.472H10.4915Z" fill="black"/>
<g clip-path="url(#clip1_166_308)">
<path d="M14.163 152.117C13.803 151.869 13.2069 151.498 12.3745 150.992C11.7671 150.609 11.0022 150.193 10.0911 149.743C8.89878 149.192 8.69631 148.36 9.47244 147.246C10.0574 146.414 10.7885 146.189 11.6771 146.582C13.3981 147.302 15.0403 148.146 16.6263 149.113C17.0988 149.451 17.3462 149.811 17.38 150.193C17.4025 150.553 17.245 151.014 16.8851 151.565C16.1089 152.735 15.2091 152.915 14.1855 152.105L14.163 152.117ZM11.0472 170.957C9.98986 170.159 9.77614 169.281 10.3836 168.337C11.2722 166.863 12.1608 165.333 13.0494 163.725C14.2642 161.453 15.1866 159.709 15.794 158.483C16.4351 157.122 17.3125 156.931 18.4598 157.898C19.2922 158.562 19.4722 159.383 18.9997 160.35C17.065 164.31 15.3215 167.684 13.803 170.451C13.1394 171.644 12.217 171.812 11.0584 170.946L11.0472 170.957ZM17.7399 141.656C17.3237 141.723 16.8513 141.543 16.3226 141.093C16.1314 140.958 15.8052 140.745 15.3665 140.475C15.0066 140.227 14.7254 140.047 14.5342 139.935C13.5331 139.327 12.7682 138.877 12.2508 138.607C11.0809 138.056 10.9235 137.224 11.7558 136.11C12.3408 135.312 13.0606 135.109 13.9155 135.525C15.8502 136.436 17.4812 137.359 18.786 138.27C19.2584 138.63 19.4947 138.99 19.5172 139.35C19.5284 139.71 19.3597 140.16 18.9997 140.677C18.5835 141.262 18.1674 141.588 17.7512 141.656H17.7399ZM42.5649 172.161C36.7158 169.473 32.5764 164.445 30.1355 157.066H25.4787V167.504C26.2774 167.369 27.5034 167.156 29.1344 166.886C30.4392 166.694 31.4066 166.537 32.0477 166.424C33.2401 166.199 33.8812 166.717 33.9599 167.965C34.0387 168.989 33.5438 169.619 32.4639 169.833C31.0241 170.114 28.8645 170.496 25.9737 171.002C23.589 171.419 21.868 171.722 20.822 171.914C20.237 172.026 19.7984 171.959 19.5172 171.722C19.2247 171.486 19.011 171.059 18.876 170.451C18.5948 169.18 19.101 168.46 20.372 168.292C20.6757 168.235 21.1594 168.157 21.8231 168.044V142.128C21.8231 141.329 22.0705 140.677 22.5767 140.171C23.0716 139.676 23.724 139.417 24.5339 139.417H30.3605V136.605C30.3605 135.3 31.0241 134.648 32.3514 134.648C33.6787 134.648 34.3086 135.3 34.3086 136.605V139.428H40.5402C41.3388 139.428 41.9912 139.676 42.4974 140.182C42.9923 140.677 43.251 141.329 43.251 142.139V154.366C43.251 155.165 43.0036 155.817 42.4974 156.323C42.0025 156.818 41.3501 157.077 40.5402 157.077H33.8025C34.6011 159.124 35.546 160.89 36.6258 162.352C38.538 161.183 40.2702 160.002 41.8225 158.776C42.5986 158.168 43.3748 158.247 44.1509 159.023C45.0058 159.878 44.972 160.688 44.0272 161.43C42.4187 162.6 40.6414 163.736 38.7067 164.838C40.3377 166.413 42.1599 167.695 44.1509 168.663C45.8944 169.304 46.2768 170.271 45.2757 171.576C44.6346 172.465 43.7347 172.656 42.5761 172.161H42.5649ZM25.4675 146.582H39.4829V143.838C39.4829 143.174 39.1454 142.837 38.4818 142.837H26.4686C25.8049 142.837 25.4675 143.174 25.4675 143.838V146.582ZM25.4675 153.646H38.4818C39.1454 153.646 39.4829 153.309 39.4829 152.645V149.856H25.4675V153.635V153.646Z" fill="#E4A52A"/>
<path d="M59.3585 171.115C58.5599 171.115 57.9075 170.867 57.4013 170.361C56.9064 169.866 56.6477 169.214 56.6477 168.404V139.181C56.6477 138.382 56.8952 137.73 57.4013 137.224C57.8963 136.729 58.5487 136.47 59.3585 136.47H88.3004C89.099 136.47 89.7514 136.718 90.2576 137.224C90.7525 137.719 91.0112 138.371 91.0112 139.181V168.415C91.0112 169.214 90.7638 169.866 90.2576 170.373C89.7627 170.867 89.1103 171.126 88.3004 171.126H59.3585V171.115ZM61.2708 167.617H86.2195C86.8831 167.617 87.2206 167.279 87.2206 166.616V140.97C87.2206 140.306 86.8831 139.968 86.2195 139.968H61.2708C60.6071 139.968 60.2697 140.306 60.2697 140.97V166.627C60.2697 167.291 60.6071 167.628 61.2708 167.628V167.617ZM81.5627 166.244C80.4828 165.547 79.0768 164.805 77.3671 163.995C76.7259 163.714 76.3885 163.399 76.3435 163.039C76.2985 162.679 76.5572 162.33 77.1083 162.004L77.1871 161.925H69.8307L71.0793 162.341C71.383 162.454 71.5629 162.589 71.5967 162.757C71.6417 162.926 71.5517 163.095 71.3267 163.252C69.4933 164.445 67.5023 165.457 65.3426 166.289C64.6227 166.571 63.9928 166.458 63.4754 165.952C62.5081 165.041 62.778 164.355 64.3078 163.916C66.1075 163.309 67.6373 162.645 68.8858 161.925H66.31C65.6126 161.925 65.0614 161.711 64.6452 161.306C64.2291 160.89 64.0266 160.339 64.0266 159.642V151.948C64.0266 151.149 64.274 150.497 64.7802 149.991C65.2864 149.484 65.9275 149.237 66.7374 149.237H80.7528C81.5514 149.237 82.2038 149.484 82.71 149.991C83.2162 150.497 83.4636 151.138 83.4636 151.948V159.225C83.4636 160.024 83.2162 160.677 82.71 161.183C82.2151 161.678 81.5627 161.936 80.7528 161.936H78.2557C80.3591 162.735 82.1813 163.556 83.6998 164.388C84.3073 164.782 84.5772 165.108 84.4872 165.39C84.4085 165.671 84.0035 165.974 83.2837 166.301C82.5863 166.604 82.0238 166.593 81.5739 166.256L81.5627 166.244ZM68.4584 147.82C67.6598 147.82 67.0074 147.572 66.5012 147.066C66.0063 146.571 65.7476 145.919 65.7476 145.109V144.648C65.7476 143.849 65.995 143.197 66.5012 142.691C66.9961 142.196 67.6485 141.937 68.4584 141.937H79.0993C79.8979 141.937 80.5503 142.184 81.0565 142.691C81.5514 143.185 81.8101 143.838 81.8101 144.648V145.109C81.8101 145.908 81.5627 146.56 81.0565 147.066C80.5616 147.561 79.9092 147.82 79.0993 147.82H68.4584ZM67.2886 152.814H80.0104V151.858C80.0104 151.419 79.7854 151.194 79.3468 151.194H68.2897C67.626 151.194 67.2886 151.532 67.2886 152.195V152.814ZM67.2886 156.346H80.0104V154.681H67.2886V156.346ZM68.0422 160.002H79.0206C79.6842 160.002 80.0216 159.664 80.0216 159.001V158.247H67.2998V159.248C67.2998 159.743 67.5473 160.002 68.0535 160.002H68.0422ZM69.707 145.863H77.5245C78.1882 145.863 78.5256 145.525 78.5256 144.861V144.738C78.5256 144.187 78.2444 143.905 77.6933 143.905H69.8757C69.212 143.905 68.8746 144.243 68.8746 144.906V145.03C68.8746 145.581 69.1558 145.863 69.707 145.863Z" fill="#E4A52A"/>
</g>
<defs>
<clipPath id="clip0_166_308">
<rect width="100" height="100.333" fill="white" transform="translate(0 0.5)"/>
</clipPath>
<clipPath id="clip1_166_308">
<rect width="82" height="37.7718" fill="white" transform="translate(9 134.648)"/>
</clipPath>
</defs>
</svg>
