<svg width="32" height="32" viewBox="0 0 32 32" fill="none" xmlns="http://www.w3.org/2000/svg">
<g clip-path="url(#clip0_578_3727)">
<path d="M16 32C24.8366 32 32 24.8366 32 16C32 7.16344 24.8366 0 16 0C7.16344 0 0 7.16344 0 16C0 24.8366 7.16344 32 16 32Z" fill="#F6BD60"/>
<path d="M15.9993 30.0895C23.5756 30.0895 29.7174 23.9477 29.7174 16.3714C29.7174 8.79511 23.5756 2.65332 15.9993 2.65332C8.42304 2.65332 2.28125 8.79511 2.28125 16.3714C2.28125 23.9477 8.42304 30.0895 15.9993 30.0895Z" fill="#FDFDFE"/>
<mask id="mask0_578_3727" style="mask-type:luminance" maskUnits="userSpaceOnUse" x="0" y="0" width="32" height="33">
<path d="M15.9682 32.4444C24.7871 32.4444 31.9363 25.1815 31.9363 16.2222C31.9363 7.26294 24.7871 0 15.9682 0C7.14919 0 0 7.26294 0 16.2222C0 25.1815 7.14919 32.4444 15.9682 32.4444Z" fill="white"/>
</mask>
<g mask="url(#mask0_578_3727)">
<path d="M17.7243 29.9036C16.5144 28.9431 14.986 26.5444 14.8162 24.9312C14.6464 23.3179 15.5963 22.8721 16.127 22.7023C17.28 22.2858 18.404 21.7929 19.4915 21.227C19.5897 21.1534 19.6652 21.0537 19.7093 20.9392C19.7534 20.8247 19.7644 20.7 19.7409 20.5796C19.7303 20.4877 19.6984 20.3995 19.6477 20.3221C19.597 20.2448 19.529 20.1803 19.449 20.1338C19.449 20.1338 18.2125 19.359 17.7668 19.168C17.528 19.0671 17.1883 18.9132 17.2732 18.5577C17.3581 18.2021 16.8487 17.0558 16.6842 16.6101C16.4909 16.2186 16.2365 15.8603 15.9306 15.5487C15.8722 15.4903 15.6228 15.3258 15.9306 14.827C16.2384 14.3282 16.8487 13.6277 16.7373 12.9325C16.7242 12.8147 16.6855 12.7011 16.6239 12.5999C16.5623 12.4986 16.4792 12.4121 16.3806 12.3463C16.282 12.2806 16.1702 12.2372 16.053 12.2193C15.9359 12.2014 15.8162 12.2093 15.7024 12.2426C14.6805 12.4998 13.7097 12.9287 12.8314 13.5109C12.746 13.5718 12.6533 13.6217 12.5555 13.6595L12.0619 13.8506C11.3046 14.1305 10.5774 14.486 9.89147 14.9119C9.48467 15.2509 9.15874 15.6765 8.93747 16.1576C8.7162 16.6387 8.60518 17.1632 8.61253 17.6927C8.61253 18.4834 8.6709 18.892 8.76112 19.7676C8.76226 19.8126 8.74908 19.8568 8.72345 19.8938C8.69782 19.9309 8.66109 19.9588 8.61855 19.9736C8.57602 19.9883 8.52989 19.9892 8.48684 19.976C8.44379 19.9629 8.40604 19.9363 8.37905 19.9003C8.2146 19.6801 8.10047 19.4265 8.04471 19.1574C7.92796 18.77 7.81121 18.6267 7.66262 18.6691C7.03371 18.9951 6.47754 19.4454 6.02783 19.9928C5.57811 20.5401 5.24421 21.173 5.04636 21.8532C4.41485 23.8114 4.16543 24.2094 4.46792 24.7029C4.77041 25.1965 4.62182 26.6718 4.58998 26.8893C4.58509 26.9049 4.58509 26.9216 4.58998 26.9371L9.30242 30.2486H9.32895C9.7588 30.2751 19.2739 31.1348 17.7243 29.9036Z" fill="#F6BD60"/>
<path d="M11.6021 23.8477C11.8303 23.6885 12.032 23.7522 11.894 23.8796C11.5954 24.1648 11.3652 24.5141 11.2209 24.901C11.0766 25.288 11.0219 25.7026 11.0608 26.1138C11.2041 27.4033 11.7507 27.0902 11.9577 26.8779C12.0693 26.7091 12.2204 26.57 12.398 26.4729C12.5756 26.3758 12.7742 26.3235 12.9766 26.3207C13.5583 26.3054 14.1132 26.0725 14.5315 25.668C14.6727 25.4072 14.7466 25.1154 14.7466 24.8189C14.7466 24.5224 14.6727 24.2305 14.5315 23.9698C14.1866 23.2162 13.2844 22.0116 12.3663 21.7622C11.4482 21.5128 9.71292 21.1731 8.85322 21.4172C8.85322 21.4172 7.93514 22.6909 7.39916 22.9509C6.96194 23.288 6.42278 23.4659 5.8708 23.4551C4.71391 23.5506 4.89964 24.2404 4.89964 24.2404L4.96863 25.6998C5.03897 25.9262 5.17291 26.1276 5.3545 26.2801C5.53609 26.4325 5.75767 26.5295 5.99284 26.5595C6.58263 26.5526 7.16413 26.6988 7.68042 26.9841C8.15457 27.369 8.58842 27.801 8.97528 28.2736C9.16632 28.6026 8.87444 30.0567 9.55901 30.6245C10.0897 31.0597 12.637 31.8345 14.6058 31.9778C15.9937 32.0681 17.387 32.0237 18.7663 31.8451C19.3235 31.7284 19.902 31.723 19.7215 31.5479C18.4235 30.5607 17.0521 29.6736 15.6194 28.8945C14.8605 28.4859 13.9849 27.6687 13.8257 26.9045C13.7408 26.5118 12.7272 26.8567 12.3504 27.0955C12.1977 27.2318 12.013 27.3272 11.8134 27.3726C11.6139 27.4181 11.4061 27.4122 11.2094 27.3555C10.8008 27.2494 10.3657 26.5224 10.7743 25.3018C10.9316 24.7586 11.2153 24.2603 11.6021 23.8477Z" fill="white"/>
</g>
<path d="M23.2918 16.5728C26.841 16.5728 29.7183 13.6955 29.7183 10.1463C29.7183 6.59698 26.841 3.71973 23.2918 3.71973C19.7425 3.71973 16.8652 6.59698 16.8652 10.1463C16.8652 13.6955 19.7425 16.5728 23.2918 16.5728Z" fill="#F6BD60"/>
<path d="M23.8708 14.5512C26.7108 14.5512 29.0131 12.2489 29.0131 9.40889C29.0131 6.56888 26.7108 4.2666 23.8708 4.2666C21.0308 4.2666 18.7285 6.56888 18.7285 9.40889C18.7285 12.2489 21.0308 14.5512 23.8708 14.5512Z" fill="white"/>
<path d="M21.4832 24.167L19.127 26.5232" stroke="#F6BD60" stroke-miterlimit="10" stroke-linecap="round"/>
<path d="M22.3107 24.9893L19.9492 27.3508" stroke="#F6BD60" stroke-miterlimit="10" stroke-linecap="round"/>
<path d="M23.1643 25.8438L20.8027 28.2053" stroke="#F6BD60" stroke-miterlimit="10" stroke-linecap="round"/>
<path d="M3.18449 15.9941C2.96184 16.6613 2.90589 17.3728 3.02152 18.0666C3.13715 18.7604 3.42085 19.4153 3.84784 19.9742" stroke="#F6BD60" stroke-miterlimit="10" stroke-linecap="round"/>
<path d="M4.63409 15.5693C4.40658 16.1655 4.32169 16.8067 4.38619 17.4416C4.45069 18.0765 4.6628 18.6875 5.00557 19.2257" stroke="#F6BD60" stroke-miterlimit="10" stroke-linecap="round"/>
<path d="M20.6436 10.1465C20.304 11.0327 21.9862 13.0387 23.7746 12.2108" stroke="#F6BD60" stroke-miterlimit="10" stroke-linecap="round"/>
<path d="M24.2734 9.27051C24.698 10.0771 25.0376 10.3 26.3219 10.2947" stroke="#F6BD60" stroke-miterlimit="10" stroke-linecap="round"/>
<path d="M21.3654 6.83984C21.3627 7.0352 21.4054 7.22851 21.4901 7.40457C21.5748 7.58062 21.6992 7.73462 21.8535 7.85446C22.0078 7.9743 22.1878 8.05669 22.3794 8.09519C22.5709 8.13369 22.7688 8.12725 22.9574 8.07634" stroke="#F6BD60" stroke-miterlimit="10" stroke-linecap="round"/>
</g>
<defs>
<clipPath id="clip0_578_3727">
<rect width="32" height="32" fill="white"/>
</clipPath>
</defs>
</svg>
