<svg width="157" height="73" viewBox="0 0 157 73" fill="none" xmlns="http://www.w3.org/2000/svg">
<g clip-path="url(#clip0_166_336)">
<path fill-rule="evenodd" clip-rule="evenodd" d="M35.8804 69.0714C53.8094 69.0714 68.3436 54.4887 68.3436 36.5C68.3436 18.5113 53.8094 3.92857 35.8804 3.92857C17.9515 3.92857 3.41718 18.5113 3.41718 36.5C3.41718 54.4887 17.9515 69.0714 35.8804 69.0714ZM35.8804 72.5C55.6966 72.5 71.7608 56.3823 71.7608 36.5C71.7608 16.6178 55.6966 0.5 35.8804 0.5C16.0642 0.5 0 16.6178 0 36.5C0 56.3823 16.0642 72.5 35.8804 72.5Z" fill="#E4A52A"/>
<path d="M40.1345 64.1157C37.9517 61.8398 37.0301 59.1994 36.9427 58.9236C37.8353 60.7265 38.9412 62.5295 40.1345 64.1157Z" fill="#E4A52A"/>
<path d="M51.6693 69.2094L51.5723 69.2882H51.485C51.5529 69.2586 51.6111 69.2389 51.6693 69.2094Z" fill="#E4A52A"/>
<path d="M71.596 33.8299C71.3147 30.9136 70.7229 28.1649 69.8789 25.5836C69.8789 25.5343 69.8595 25.4752 69.8401 25.4259C69.8304 25.3865 69.811 25.357 69.8013 25.3176C62.0014 1.5146 31.1317 -8.57407 11.147 10.4407C-3.72518 24.5294 -3.65952 47.6212 11.2126 61.7C14.3947 64.7246 17.9289 67.7441 21.5281 69.35C21.1595 67.7737 20.9744 67.6723 20.9744 67.6723C20.955 67.3668 20.955 67.0713 20.9453 66.7658C20.9453 66.1846 20.9453 65.6131 20.9259 65.0811C20.9259 64.687 20.9162 64.3225 20.8968 63.9974C20.8871 63.8988 20.8774 63.8003 20.858 63.7018C20.3535 59.3767 16.0267 59.6525 13.1358 57.9383C11.9619 57.2388 11.0306 56.224 10.6813 54.4309C10.5455 53.7708 10.497 53.0023 10.5455 52.1156C10.691 49.219 17.5111 51.8397 20.858 45.7412C26.1258 44.4506 35.6041 48.4407 33.2466 55.1698C31.8011 57.0614 29.0557 55.3964 27.7654 57.3274C27.3094 57.8003 26.6691 58.5392 26.3587 55.6821C26.1744 53.8594 26.4363 52.9333 27.4937 51.2092C27.7072 50.8545 27.3482 50.7856 26.8534 51.1304C24.5445 53.1304 23.8751 60.5097 27.7363 59.4752C28.8131 59.091 31.9758 56.6673 32.7325 58.4112C33.7511 60.7461 34.8959 63.2585 35.7593 64.953C36.4772 66.3521 37.2339 67.4851 38.01 68.4013C38.2816 68.7264 38.5436 69.022 38.8152 69.288C38.8443 69.3176 38.8734 69.3373 38.9025 69.3668C40.6002 70.9432 42.649 71.4325 43.0468 71.6H43.0565C58.7542 68.4013 73.3714 52.0959 71.596 33.8299ZM57.3933 9.93825C59.4208 11.7116 61.2641 13.7609 62.8745 16.0762C63.4469 17.485 63.767 19.0318 63.767 20.6575C63.767 22.7067 63.2626 24.6279 62.37 26.3225C60.2649 29.7412 56.5104 32.1353 51.815 31.9284C45.7614 31.7412 40.6197 26.5097 40.4353 20.3619C40.3383 18.0663 40.8428 15.9875 41.7644 14.2141C43.8793 10.8151 47.5949 8.53923 51.8441 8.53923C53.8426 8.53923 55.7343 9.05155 57.3933 9.93825ZM49.8737 65.3C45.2093 66.74 42.3174 65.8003 40.3092 63.7018C38.1264 61.4259 37.0302 59.1993 36.9428 58.9235C36.9428 58.9235 36.9396 58.9169 36.9331 58.9038C34.6048 54.1944 33.7414 49.4949 36.7294 48.5984C41.4249 46.5195 49.6225 44.8151 40.3092 40.756C39.795 40.5392 39.3294 40.2141 39.2324 39.4062C39.0965 38.2831 38.3107 36.0762 37.9518 35.091C37.5443 33.3176 35.7108 31.9777 36.3026 31.1402C41.9778 23.0811 33.0429 25.357 28.9392 28.5491C25.9706 29.7609 22.8759 28.421 20.208 34.086C19.0245 36.5885 19.2088 39.5245 18.2581 39.6525C16.5215 40.5589 15.0372 41.9284 13.9701 43.5836C9.03209 49.2092 5.4944 44.8497 5.12575 43.7857C3.80939 43.3029 3.82491 37.5197 3.84431 36.0714C3.55327 18.7217 19.9461 4.05647 37.2533 3.50475C40.3092 3.33726 43.2875 3.62297 46.1397 4.29292C46.1397 4.29292 46.1494 4.29292 46.1785 4.30278C46.1979 4.30278 46.2367 4.32248 46.2755 4.33233C47.0613 4.57864 50.8255 5.87913 49.0792 7.5343C43.2778 8.56879 38.1846 13.3471 37.9324 20.3619C37.4958 28.0171 44.2868 34.9038 51.815 34.4604C57.9948 34.2338 62.4186 30.0565 64.0096 24.9629C64.4752 23.6131 64.7372 22.1649 64.7372 20.6575C64.7372 20.0269 64.6887 19.4062 64.6013 18.8052C65.0185 19.554 65.426 20.3126 65.7946 21.1008C74.5355 39.8102 65.6093 57.5364 49.8737 65.3Z" fill="#E4A52A"/>
<path fill-rule="evenodd" clip-rule="evenodd" d="M51.1296 9.95C45.4798 9.95 40.814 14.7369 40.814 20.75C40.814 26.7632 45.4798 31.55 51.1296 31.55C56.7793 31.55 61.4452 26.7632 61.4452 20.75C61.4452 14.7369 56.7793 9.95 51.1296 9.95ZM38.1229 20.75C38.1229 13.3426 43.8988 7.25 51.1296 7.25C58.3604 7.25 64.1362 13.3426 64.1362 20.75C64.1362 28.1574 58.3604 34.25 51.1296 34.25C43.8988 34.25 38.1229 28.1574 38.1229 20.75Z" fill="#E4A52A"/>
<path fill-rule="evenodd" clip-rule="evenodd" d="M67.4893 36.5C67.4893 54.0153 53.3375 68.2143 35.8804 68.2143C18.4233 68.2143 4.27148 54.0153 4.27148 36.5C4.27148 18.9847 18.4233 4.78571 35.8804 4.78571C42.0402 4.78571 47.7885 6.55357 52.6487 9.61117C57.0094 10.2549 60.5302 13.6296 61.5761 18.0265C65.298 23.2287 67.4893 29.6076 67.4893 36.5ZM71.7608 36.5C71.7608 56.3823 55.6966 72.5 35.8804 72.5C16.0642 72.5 0 56.3823 0 36.5C0 16.6178 16.0642 0.5 35.8804 0.5C55.6966 0.5 71.7608 16.6178 71.7608 36.5Z" fill="#E4A52A"/>
<path d="M50.7284 27.3184C49.3896 27.3184 48.0508 26.7568 46.9158 25.6829C45.577 24.412 44.927 22.747 45.3442 21.6337C45.4412 21.3775 45.7225 21.2593 45.9747 21.3479C46.227 21.4465 46.3531 21.7322 46.2561 21.9883C46.0233 22.609 46.4598 23.8898 47.5852 24.9637C48.1284 25.476 50.0687 27.0524 52.4358 25.9391C52.6784 25.8208 52.9694 25.9391 53.0761 26.1755C53.1925 26.4218 53.0761 26.7174 52.8433 26.8258C52.1545 27.1509 51.4463 27.3085 50.7381 27.3085L50.7284 27.3184Z" fill="#E4A52A"/>
<path fill-rule="evenodd" clip-rule="evenodd" d="M45.7436 21.7856C45.585 22.2098 45.6149 22.7889 45.8694 23.4435C46.1216 24.0922 46.5802 24.7744 47.209 25.3714C48.2246 26.3322 49.3946 26.8399 50.5534 26.8864L50.5596 26.8801H50.7381C51.3815 26.8801 52.0278 26.7372 52.6614 26.4381L52.6635 26.4371L52.6635 26.4371C52.6697 26.4342 52.6825 26.4243 52.6901 26.4036C52.6972 26.3845 52.695 26.3695 52.6901 26.3593L52.6869 26.3524L52.687 26.3524C52.683 26.3435 52.6726 26.3317 52.6553 26.3251C52.6397 26.3191 52.6294 26.3213 52.6225 26.3247L52.6171 26.3273L52.6171 26.3272C49.9858 27.5648 47.8489 25.8007 47.2926 25.2761L47.2908 25.2744C46.6882 24.6993 46.2621 24.0619 46.0169 23.4709C45.7802 22.9003 45.6831 22.299 45.8563 21.8375L45.8568 21.8362C45.8702 21.8006 45.854 21.7648 45.8258 21.7502C45.806 21.7451 45.7877 21.7475 45.7737 21.7537C45.7596 21.7599 45.7497 21.7697 45.7436 21.7856ZM44.9448 21.4815C45.1296 20.9937 45.66 20.7833 46.116 20.9436L46.1229 20.946L46.1297 20.9487C46.6021 21.1332 46.8347 21.6658 46.6557 22.1398C46.5961 22.2991 46.6011 22.6485 46.8056 23.1415C47.0017 23.6142 47.3563 24.1537 47.8786 24.6524C48.4098 25.153 50.1515 26.5387 52.2523 25.5522C52.7209 25.326 53.2624 25.5545 53.4636 25.9954C53.6817 26.4616 53.4645 27.0085 53.0241 27.2142C52.3387 27.5375 51.6312 27.7091 50.9197 27.734L50.9068 27.7471H50.7284C49.2664 27.7471 47.826 27.1333 46.6227 25.9948L46.6222 25.9943C45.9124 25.3205 45.3767 24.5348 45.0735 23.755C44.7728 22.9816 44.6861 22.1719 44.9443 21.4829L44.9448 21.4815L44.9448 21.4815Z" fill="#E4A52A"/>
<path d="M50.0689 17.9785C47.2652 17.9785 46.3145 17.4662 45.2667 15.4465C45.1406 15.2101 45.2279 14.9047 45.4704 14.7766C45.7033 14.6485 46.004 14.747 46.1204 14.9835C46.9451 16.5795 47.5077 16.9933 50.0592 16.9933C50.098 16.9933 50.1271 16.9933 50.1659 16.9933C50.4375 16.9933 50.651 17.2101 50.651 17.4859C50.651 17.7914 50.3696 17.9785 50.0689 17.9785Z" fill="#E4A52A"/>
<path fill-rule="evenodd" clip-rule="evenodd" d="M45.7089 15.1515C45.6924 15.1462 45.6814 15.1493 45.6758 15.1524L45.6695 15.1559C45.656 15.163 45.6451 15.1752 45.6396 15.1938C45.6338 15.2133 45.6364 15.2313 45.6434 15.2443L45.6457 15.2486C46.1543 16.229 46.6031 16.7704 47.2086 17.0908C47.8297 17.4195 48.678 17.55 50.0689 17.55C50.1357 17.55 50.1853 17.5283 50.2091 17.5096C50.2196 17.5013 50.2224 17.4959 50.2227 17.4954L50.2232 17.494C50.2233 17.4933 50.2239 17.4909 50.2239 17.4859C50.2239 17.4613 50.2152 17.4462 50.2065 17.4374C50.1979 17.4287 50.1855 17.4219 50.1659 17.4219H50.0597C48.7819 17.4219 47.9058 17.3228 47.2403 16.9645C46.5555 16.5958 46.159 15.9892 45.7413 15.1807L45.7374 15.1733C45.7343 15.1668 45.7258 15.1569 45.7089 15.1515ZM46.5013 14.7893C46.278 14.3418 45.7157 14.1553 45.2684 14.399C44.8147 14.6408 44.6559 15.2062 44.8888 15.6462C45.4277 16.6845 45.9779 17.4086 46.8101 17.849C47.6272 18.2814 48.6562 18.4071 50.0689 18.4071C50.5033 18.4071 51.0782 18.119 51.0782 17.4859C51.0782 16.9783 50.6783 16.5647 50.1659 16.5647H50.0597C48.786 16.5647 48.1042 16.4569 47.6443 16.2093C47.2043 15.9724 46.9074 15.5748 46.5013 14.7893Z" fill="#E4A52A"/>
<path d="M58.6158 21.9095C58.6158 21.9095 58.5479 21.9095 58.5091 21.9095C55.9577 21.9095 55.395 21.4957 54.5704 19.8996C54.4443 19.6632 54.1532 19.5646 53.9204 19.6927C53.6779 19.8208 53.5906 20.1164 53.7167 20.3627C54.7644 22.3824 55.7151 22.8947 58.5188 22.8947C58.8196 22.8947 59.1106 22.7075 59.1009 22.4021C59.1009 22.1262 58.8875 21.9095 58.6158 21.9095Z" fill="#E4A52A"/>
<path fill-rule="evenodd" clip-rule="evenodd" d="M53.7183 19.3151C54.1756 19.0659 54.7186 19.269 54.947 19.6973L54.9497 19.7023C55.3566 20.4899 55.6536 20.8881 56.0942 21.1253C56.5541 21.373 57.2355 21.4808 58.5092 21.4808H58.6156C59.1257 21.4808 59.5245 21.8907 59.5281 22.3952C59.5355 22.7008 59.3881 22.9458 59.1882 23.1014C58.995 23.2519 58.7518 23.3232 58.5189 23.3232C57.1062 23.3232 56.0772 23.1975 55.26 22.7651C54.4273 22.3244 53.877 21.5998 53.3378 20.5605L53.3368 20.5584C53.1086 20.1129 53.2624 19.5581 53.7183 19.3151ZM54.154 20.0672C54.1405 20.0628 54.1322 20.0649 54.1258 20.0684L54.1194 20.0719C54.1023 20.081 54.0934 20.0932 54.0892 20.1073C54.0847 20.122 54.0844 20.1425 54.0963 20.1661C54.6046 21.1456 55.0534 21.6866 55.6586 22.0069C56.2797 22.3356 57.1279 22.466 58.5189 22.466C58.5867 22.466 58.6394 22.4438 58.6645 22.4242C58.6693 22.4204 58.6723 22.4174 58.674 22.4155L58.6738 22.4088V22.402C58.6738 22.3773 58.6651 22.3623 58.6564 22.3534C58.6479 22.3448 58.6354 22.338 58.6159 22.338H58.5092C57.2314 22.338 56.3557 22.2389 55.6903 21.8806C55.0065 21.5125 54.6101 20.907 54.193 20.1004C54.1832 20.0827 54.1683 20.0718 54.154 20.0672Z" fill="#E4A52A"/>
</g>
<path d="M149.164 18.4227C149.08 18.4227 149.011 18.3949 148.956 18.3394C148.9 18.2839 148.872 18.2145 148.872 18.1312V10.7621C148.872 10.6789 148.9 10.6095 148.956 10.554C149.011 10.4985 149.08 10.4707 149.164 10.4707H150.246C150.329 10.4707 150.399 10.4985 150.454 10.554C150.51 10.6095 150.538 10.6789 150.538 10.7621V11.4144C150.797 11.0628 151.102 10.7899 151.454 10.5956C151.814 10.3921 152.208 10.2903 152.633 10.2903C153.161 10.2903 153.632 10.4152 154.049 10.665C154.474 10.9148 154.807 11.2617 155.048 11.7058C155.288 12.1499 155.409 12.6495 155.409 13.2046V18.1312C155.409 18.2145 155.381 18.2839 155.325 18.3394C155.27 18.3949 155.201 18.4227 155.117 18.4227H154.035C153.952 18.4227 153.882 18.3949 153.827 18.3394C153.771 18.2839 153.743 18.2145 153.743 18.1312V13.4128C153.743 12.9224 153.619 12.5477 153.369 12.2887C153.119 12.0204 152.767 11.8862 152.314 11.8862C151.768 11.8862 151.333 12.0666 151.009 12.4275C150.695 12.779 150.538 13.2648 150.538 13.8846V18.1312C150.538 18.2145 150.51 18.2839 150.454 18.3394C150.399 18.3949 150.329 18.4227 150.246 18.4227H149.164Z" fill="black"/>
<path d="M141.598 18.6031C140.82 18.6031 140.187 18.3857 139.696 17.9508C139.215 17.5067 138.975 16.9331 138.975 16.23C138.975 15.5916 139.197 15.0642 139.641 14.6479C140.085 14.2223 140.709 13.9448 141.514 13.8152C141.718 13.7967 141.912 13.769 142.097 13.732C142.745 13.658 143.138 13.6024 143.277 13.5654C143.619 13.5099 143.79 13.3156 143.79 12.9826C143.79 12.6403 143.647 12.3673 143.36 12.1638C143.083 11.951 142.731 11.8446 142.305 11.8446C141.556 11.8446 141.01 12.1175 140.668 12.6634C140.594 12.7837 140.506 12.8438 140.404 12.8438C140.33 12.8438 140.27 12.8253 140.224 12.7883L139.447 12.2609C139.363 12.2054 139.322 12.1268 139.322 12.025C139.322 11.9973 139.331 11.9556 139.349 11.9001C139.618 11.3913 140.016 10.9981 140.543 10.7205C141.07 10.4337 141.667 10.2903 142.333 10.2903C142.944 10.2903 143.48 10.4059 143.943 10.6372C144.406 10.8685 144.762 11.197 145.012 11.6226C145.271 12.0481 145.4 12.5385 145.4 13.0936V18.1312C145.4 18.2145 145.372 18.2839 145.317 18.3394C145.261 18.3949 145.192 18.4227 145.109 18.4227H144.165C144.082 18.4227 144.012 18.3995 143.957 18.3533C143.901 18.2978 143.874 18.2238 143.874 18.1312V17.59C143.235 18.2654 142.477 18.6031 141.598 18.6031ZM141.723 17.1182C142.083 17.1182 142.426 17.0256 142.749 16.8406C143.073 16.6556 143.332 16.415 143.527 16.119C143.73 15.8136 143.832 15.4945 143.832 15.1614V14.8838L142.791 15.0365C142.227 15.1012 141.861 15.1521 141.695 15.1891C140.936 15.3279 140.557 15.6564 140.557 16.1745C140.557 16.4613 140.663 16.6926 140.876 16.8684C141.089 17.0349 141.371 17.1182 141.723 17.1182Z" fill="black"/>
<path d="M132.212 18.6031C131.685 18.6031 131.209 18.4782 130.783 18.2284C130.367 17.9786 130.038 17.6316 129.798 17.1876C129.557 16.7435 129.437 16.2439 129.437 15.6888V10.7621C129.437 10.6789 129.465 10.6095 129.52 10.554C129.576 10.4985 129.645 10.4707 129.728 10.4707H130.811C130.894 10.4707 130.963 10.4985 131.019 10.554C131.074 10.6095 131.102 10.6789 131.102 10.7621V15.4806C131.102 15.9709 131.227 16.3503 131.477 16.6186C131.727 16.8776 132.078 17.0071 132.532 17.0071C133.077 17.0071 133.508 16.8314 133.822 16.4798C134.146 16.119 134.308 15.6286 134.308 15.0087V10.7621C134.308 10.6789 134.336 10.6095 134.391 10.554C134.447 10.4985 134.516 10.4707 134.599 10.4707H135.682C135.765 10.4707 135.835 10.4985 135.89 10.554C135.946 10.6095 135.973 10.6789 135.973 10.7621V18.1312C135.973 18.2145 135.946 18.2839 135.89 18.3394C135.835 18.3949 135.765 18.4227 135.682 18.4227H134.599C134.516 18.4227 134.447 18.3949 134.391 18.3394C134.336 18.2839 134.308 18.2145 134.308 18.1312V17.479C134.049 17.8306 133.739 18.1081 133.378 18.3117C133.027 18.5059 132.638 18.6031 132.212 18.6031Z" fill="black"/>
<path d="M122.572 18.4226C122.488 18.4226 122.419 18.3949 122.363 18.3394C122.308 18.2838 122.28 18.2145 122.28 18.1312V13.8846L119.352 8.98572C119.315 8.93946 119.296 8.87933 119.296 8.80531C119.296 8.72204 119.329 8.65266 119.394 8.59715C119.458 8.53238 119.537 8.5 119.629 8.5H120.781C120.911 8.5 121.003 8.55089 121.059 8.65266L123.113 12.2192H123.141L125.194 8.65266C125.25 8.55089 125.342 8.5 125.472 8.5H126.624C126.716 8.5 126.795 8.53238 126.86 8.59715C126.925 8.65266 126.957 8.72204 126.957 8.80531C126.957 8.87933 126.938 8.93946 126.901 8.98572L123.973 13.8846V18.1312C123.973 18.2145 123.945 18.2838 123.89 18.3394C123.834 18.3949 123.765 18.4226 123.682 18.4226H122.572Z" fill="black"/>
<path d="M113.056 21.2953C112.131 21.2953 111.391 21.1288 110.836 20.7957C110.29 20.4719 110.017 19.9631 110.017 19.2692C110.017 18.7603 110.193 18.3209 110.544 17.9508C110.211 17.6825 110.044 17.3124 110.044 16.8406C110.044 16.526 110.119 16.2299 110.267 15.9524C110.424 15.6656 110.637 15.4204 110.905 15.2169C110.609 14.9671 110.378 14.6664 110.211 14.3148C110.054 13.954 109.975 13.5608 109.975 13.1352C109.975 12.5708 110.109 12.0712 110.378 11.6364C110.655 11.2016 111.025 10.8685 111.488 10.6372C111.96 10.3966 112.478 10.2764 113.042 10.2764C113.449 10.2764 113.838 10.3411 114.208 10.4707H116.942C117.025 10.4707 117.094 10.4984 117.15 10.5539C117.205 10.6094 117.233 10.6788 117.233 10.7621V11.678C117.233 11.7613 117.205 11.8307 117.15 11.8862C117.094 11.9417 117.025 11.9695 116.942 11.9695H115.859C116.017 12.3303 116.095 12.7189 116.095 13.1352C116.095 13.6903 115.956 14.1853 115.679 14.6201C115.411 15.0457 115.045 15.3788 114.583 15.6193C114.12 15.8506 113.606 15.9663 113.042 15.9663C112.617 15.9663 112.196 15.8922 111.779 15.7442C111.585 15.9385 111.488 16.142 111.488 16.3548C111.488 16.5399 111.557 16.6694 111.696 16.7434C111.835 16.8082 112.038 16.8498 112.307 16.8683C112.677 16.8868 113.051 16.8961 113.431 16.8961L114.055 16.9099C114.832 16.9285 115.461 17.0672 115.943 17.3263C116.433 17.5853 116.678 18.0757 116.678 18.7973C116.678 19.63 116.34 20.2545 115.665 20.6708C114.999 21.0872 114.129 21.2953 113.056 21.2953ZM113.042 14.5091C113.477 14.5091 113.819 14.3842 114.069 14.1344C114.319 13.8846 114.444 13.5515 114.444 13.1352C114.444 12.7189 114.319 12.3812 114.069 12.1221C113.819 11.8631 113.477 11.7335 113.042 11.7335C112.607 11.7335 112.26 11.8631 112.001 12.1221C111.751 12.3812 111.627 12.7189 111.627 13.1352C111.627 13.5515 111.751 13.8846 112.001 14.1344C112.26 14.3842 112.607 14.5091 113.042 14.5091ZM113.181 19.8659C114.384 19.8659 114.985 19.5791 114.985 19.0055C114.985 18.7649 114.892 18.6077 114.707 18.5336C114.532 18.4596 114.282 18.4226 113.958 18.4226H112.598C112.256 18.4226 111.974 18.4087 111.751 18.381C111.65 18.5475 111.599 18.7418 111.599 18.9639C111.599 19.3154 111.733 19.5514 112.001 19.6716C112.279 19.8012 112.672 19.8659 113.181 19.8659Z" fill="black"/>
<path d="M100.605 18.4227C100.522 18.4227 100.452 18.3949 100.397 18.3394C100.341 18.2839 100.314 18.2145 100.314 18.1312V10.7621C100.314 10.6789 100.341 10.6095 100.397 10.554C100.452 10.4985 100.522 10.4707 100.605 10.4707H101.688C101.771 10.4707 101.84 10.4985 101.896 10.554C101.951 10.6095 101.979 10.6789 101.979 10.7621V11.4144C102.238 11.0628 102.543 10.7899 102.895 10.5956C103.256 10.3921 103.649 10.2903 104.075 10.2903C104.602 10.2903 105.074 10.4152 105.49 10.665C105.916 10.9148 106.249 11.2617 106.489 11.7058C106.73 12.1499 106.85 12.6495 106.85 13.2046V18.1312C106.85 18.2145 106.822 18.2839 106.767 18.3394C106.711 18.3949 106.642 18.4227 106.559 18.4227H105.476C105.393 18.4227 105.324 18.3949 105.268 18.3394C105.213 18.2839 105.185 18.2145 105.185 18.1312V13.4128C105.185 12.9224 105.06 12.5477 104.81 12.2887C104.56 12.0204 104.209 11.8862 103.755 11.8862C103.21 11.8862 102.775 12.0666 102.451 12.4275C102.136 12.779 101.979 13.2648 101.979 13.8846V18.1312C101.979 18.2145 101.951 18.2839 101.896 18.3394C101.84 18.3949 101.771 18.4227 101.688 18.4227H100.605Z" fill="black"/>
<path d="M93.0388 18.6031C92.2616 18.6031 91.6279 18.3857 91.1375 17.9508C90.6564 17.5067 90.4159 16.9331 90.4159 16.23C90.4159 15.5916 90.6379 15.0642 91.082 14.6479C91.5261 14.2223 92.1506 13.9448 92.9555 13.8152C93.1591 13.7967 93.3534 13.769 93.5384 13.732C94.186 13.658 94.5792 13.6024 94.718 13.5654C95.0603 13.5099 95.2315 13.3156 95.2315 12.9826C95.2315 12.6403 95.0881 12.3673 94.8013 12.1638C94.5237 11.951 94.1721 11.8446 93.7466 11.8446C92.9972 11.8446 92.4513 12.1175 92.109 12.6634C92.035 12.7837 91.9471 12.8438 91.8453 12.8438C91.7713 12.8438 91.7112 12.8253 91.6649 12.7883L90.8877 12.2609C90.8045 12.2054 90.7628 12.1268 90.7628 12.025C90.7628 11.9973 90.7721 11.9556 90.7906 11.9001C91.0589 11.3913 91.4567 10.9981 91.9841 10.7205C92.5114 10.4337 93.1082 10.2903 93.7743 10.2903C94.3849 10.2903 94.9215 10.4059 95.3841 10.6372C95.8467 10.8685 96.2029 11.197 96.4527 11.6226C96.7118 12.0481 96.8413 12.5385 96.8413 13.0936V18.1312C96.8413 18.2145 96.8136 18.2839 96.758 18.3394C96.7025 18.3949 96.6331 18.4227 96.5499 18.4227H95.6062C95.5229 18.4227 95.4535 18.3995 95.398 18.3533C95.3425 18.2978 95.3148 18.2238 95.3148 18.1312V17.59C94.6764 18.2654 93.9177 18.6031 93.0388 18.6031ZM93.1637 17.1182C93.5245 17.1182 93.8668 17.0256 94.1906 16.8406C94.5145 16.6556 94.7735 16.415 94.9678 16.119C95.1713 15.8136 95.2731 15.4945 95.2731 15.1614V14.8838L94.2323 15.0365C93.6679 15.1012 93.3025 15.1521 93.1359 15.1891C92.3773 15.3279 91.998 15.6564 91.998 16.1745C91.998 16.4613 92.1044 16.6926 92.3171 16.8684C92.5299 17.0349 92.8121 17.1182 93.1637 17.1182Z" fill="black"/>
<path d="M83.3491 18.4226C83.1825 18.4226 83.0391 18.3671 82.9189 18.2561C82.8078 18.1358 82.7523 17.9924 82.7523 17.8259V8.79143C82.7523 8.70817 82.7801 8.63878 82.8356 8.58327C82.8911 8.52776 82.9605 8.5 83.0438 8.5H84.154C84.2372 8.5 84.3066 8.52776 84.3621 8.58327C84.4177 8.63878 84.4454 8.70817 84.4454 8.79143V16.7989H87.6651C87.7483 16.7989 87.8177 16.8267 87.8732 16.8822C87.9287 16.9377 87.9565 17.0071 87.9565 17.0904V18.1312C87.9565 18.2145 87.9287 18.2838 87.8732 18.3394C87.8177 18.3949 87.7483 18.4226 87.6651 18.4226H83.3491Z" fill="black"/>
<g clip-path="url(#clip1_166_336)">
<path d="M86.6694 46.1379C86.3438 45.9141 85.8047 45.5784 85.0519 45.1206C84.5025 44.7747 83.8108 44.3983 82.9868 43.9914C81.9085 43.493 81.7253 42.7402 82.4273 41.733C82.9563 40.9802 83.6175 40.7768 84.4212 41.1328C85.9776 41.7839 87.4629 42.5469 88.8972 43.4217C89.3245 43.7269 89.5483 44.0525 89.5788 44.3983C89.5992 44.7239 89.4568 45.141 89.1312 45.6394C88.4293 46.6974 87.6155 46.8602 86.6897 46.1277L86.6694 46.1379ZM83.8515 63.1776C82.8952 62.4553 82.7019 61.6618 83.2513 60.8073C84.0549 59.4746 84.8586 58.0911 85.6623 56.6364C86.7609 54.5815 87.5951 53.0046 88.1445 51.8958C88.7243 50.6649 89.5178 50.4919 90.5554 51.3668C91.3082 51.967 91.471 52.7096 91.0437 53.5845C89.294 57.1654 87.7172 60.2173 86.3438 62.7198C85.7436 63.7981 84.9095 63.9507 83.8617 63.1674L83.8515 63.1776ZM89.9044 36.6771C89.528 36.7381 89.1007 36.5754 88.6226 36.1684C88.4496 36.0464 88.1546 35.8531 87.7579 35.6089C87.4323 35.3851 87.178 35.2224 87.0051 35.1206C86.0997 34.5713 85.4079 34.1644 84.94 33.9202C83.882 33.4218 83.7396 32.669 84.4924 31.6618C85.0214 30.9396 85.6724 30.7564 86.4456 31.1328C88.1953 31.9569 89.6704 32.791 90.8505 33.615C91.2777 33.9406 91.4913 34.2661 91.5117 34.5916C91.5219 34.9172 91.3693 35.3241 91.0437 35.792C90.6673 36.321 90.2909 36.6161 89.9145 36.6771H89.9044ZM112.356 64.2661C107.066 61.8348 103.322 57.2875 101.115 50.614H96.9033V60.0545C97.6256 59.9324 98.7345 59.7391 100.21 59.495C101.39 59.322 102.264 59.1796 102.844 59.0779C103.923 58.8744 104.503 59.3424 104.574 60.4716C104.645 61.3973 104.197 61.967 103.221 62.1603C101.919 62.4146 99.9654 62.7605 97.3509 63.2183C95.1943 63.5947 93.6378 63.8693 92.6917 64.0423C92.1628 64.144 91.766 64.083 91.5117 63.8693C91.2472 63.6557 91.0539 63.2691 90.9318 62.7198C90.6775 61.5703 91.1353 60.9192 92.2848 60.7666C92.5595 60.7157 92.9969 60.6445 93.5971 60.5428V37.1044C93.5971 36.3821 93.8209 35.792 94.2787 35.3343C94.7263 34.8867 95.3164 34.6527 96.0488 34.6527H101.318V32.1094C101.318 30.9294 101.919 30.3394 103.119 30.3394C104.319 30.3394 104.889 30.9294 104.889 32.1094V34.6629H110.525C111.247 34.6629 111.837 34.8867 112.295 35.3444C112.743 35.792 112.977 36.3821 112.977 37.1145V48.1725C112.977 48.8948 112.753 49.4848 112.295 49.9426C111.847 50.3902 111.257 50.6242 110.525 50.6242H104.431C105.154 52.4757 106.008 54.0728 106.985 55.3953C108.714 54.3373 110.281 53.2691 111.685 52.1603C112.387 51.611 113.088 51.6822 113.79 52.3841C114.564 53.1572 114.533 53.8897 113.678 54.5611C112.224 55.6191 110.616 56.6466 108.867 57.6435C110.342 59.0677 111.99 60.2274 113.79 61.1023C115.367 61.6822 115.713 62.557 114.808 63.7371C114.228 64.5408 113.414 64.7137 112.366 64.2661H112.356ZM96.8932 41.1328H109.569V38.6506C109.569 38.0504 109.263 37.7453 108.663 37.7453H97.7986C97.1984 37.7453 96.8932 38.0504 96.8932 38.6506V41.1328ZM96.8932 47.5214H108.663C109.263 47.5214 109.569 47.2162 109.569 46.616V44.0932H96.8932V47.5113V47.5214Z" fill="#E4A52A"/>
<path d="M127.544 63.32C126.822 63.32 126.232 63.0962 125.774 62.6385C125.327 62.1908 125.093 61.6008 125.093 60.8684V34.4391C125.093 33.7168 125.316 33.1268 125.774 32.669C126.222 32.2214 126.812 31.9874 127.544 31.9874H153.719C154.441 31.9874 155.031 32.2112 155.489 32.669C155.937 33.1166 156.171 33.7067 156.171 34.4391V60.8785C156.171 61.6008 155.947 62.1908 155.489 62.6486C155.042 63.0962 154.452 63.3302 153.719 63.3302H127.544V63.32ZM129.274 60.1563H151.837C152.437 60.1563 152.743 59.8511 152.743 59.2509V36.0566C152.743 35.4564 152.437 35.1512 151.837 35.1512H129.274C128.673 35.1512 128.368 35.4564 128.368 36.0566V59.261C128.368 59.8612 128.673 60.1664 129.274 60.1664V60.1563ZM147.626 58.9152C146.649 58.2844 145.377 57.613 143.831 56.8806C143.251 56.6263 142.946 56.3414 142.905 56.0159C142.865 55.6903 143.099 55.375 143.597 55.08L143.668 55.0088H137.015L138.144 55.3852C138.419 55.4869 138.582 55.609 138.612 55.7616C138.653 55.9141 138.572 56.0667 138.368 56.2092C136.71 57.2875 134.909 58.2031 132.956 58.9559C132.305 59.2102 131.735 59.1084 131.267 58.6507C130.393 57.8267 130.637 57.2061 132.02 56.8094C133.648 56.26 135.031 55.6598 136.161 55.0088H133.831C133.2 55.0088 132.702 54.8155 132.325 54.4492C131.949 54.0728 131.766 53.5744 131.766 52.9437V45.9854C131.766 45.2631 131.99 44.6731 132.448 44.2153C132.905 43.7575 133.485 43.5337 134.218 43.5337H146.893C147.615 43.5337 148.205 43.7575 148.663 44.2153C149.121 44.6731 149.345 45.2529 149.345 45.9854V52.5673C149.345 53.2895 149.121 53.8796 148.663 54.3373C148.216 54.785 147.626 55.0189 146.893 55.0189H144.635C146.537 55.7412 148.185 56.4838 149.558 57.2366C150.108 57.5927 150.352 57.8877 150.271 58.142C150.199 58.3963 149.833 58.671 149.182 58.966C148.551 59.2407 148.043 59.2305 147.636 58.9253L147.626 58.9152ZM135.774 42.2519C135.052 42.2519 134.462 42.0281 134.004 41.5703C133.556 41.1227 133.322 40.5327 133.322 39.8002V39.3831C133.322 38.6609 133.546 38.0708 134.004 37.6131C134.452 37.1654 135.042 36.9315 135.774 36.9315H145.398C146.12 36.9315 146.71 37.1553 147.168 37.6131C147.615 38.0607 147.849 38.6507 147.849 39.3831V39.8002C147.849 40.5225 147.626 41.1125 147.168 41.5703C146.72 42.0179 146.13 42.2519 145.398 42.2519H135.774ZM134.716 46.7687H146.222V45.904C146.222 45.5072 146.018 45.3038 145.622 45.3038H135.622C135.021 45.3038 134.716 45.609 134.716 46.2092V46.7687ZM134.716 49.963H146.222V48.4574H134.716V49.963ZM135.398 53.2692H145.326C145.927 53.2692 146.232 52.964 146.232 52.3638V51.6822H134.726V52.5876C134.726 53.0352 134.95 53.2692 135.408 53.2692H135.398ZM136.903 40.4818H143.973C144.574 40.4818 144.879 40.1766 144.879 39.5764V39.4645C144.879 38.9661 144.625 38.7117 144.126 38.7117H137.056C136.456 38.7117 136.151 39.0169 136.151 39.6171V39.729C136.151 40.2275 136.405 40.4818 136.903 40.4818Z" fill="#E4A52A"/>
</g>
<defs>
<clipPath id="clip0_166_336">
<rect width="71.7608" height="72" fill="white" transform="translate(0 0.5)"/>
</clipPath>
<clipPath id="clip1_166_336">
<rect width="74.1606" height="34.1607" fill="white" transform="translate(82 30.3394)"/>
</clipPath>
</defs>
</svg>
