<?xml version="1.0" encoding="utf-8"?>
<!-- Generator: Adobe Illustrator 27.5.0, SVG Export Plug-In . SVG Version: 6.00 Build 0)  -->
<svg version="1.1" xmlns="http://www.w3.org/2000/svg" xmlns:xlink="http://www.w3.org/1999/xlink" x="0px" y="0px"
	 viewBox="0 0 500 500" style="enable-background:new 0 0 500 500;" xml:space="preserve">
<g id="BACKGROUND">
</g>
<g id="OBJECTS">
	<g>
		<path style="fill:#CE7964;" d="M296.896,411.239c0,0-1.611,9.921-2.018,13.822c0,0,7.443,0.054,13.902-0.695
			c0,0-6.219-7.821-5.871-14.2C303.255,403.786,296.965,405.405,296.896,411.239z"/>
		<path style="fill:#B35A4A;" d="M272.513,413.162c0,0-0.132,0.217-0.382,0.582c-1.15,1.683-4.791,6.525-9.477,7.88
			c-5.703,1.649,11.71,2.087,14.039-1.775l-1.818-8.647"/>
		<g>
			<path style="fill:#12001A;" d="M277.09,420.113c-1.958-0.033-3.844-0.748-5.791-0.804c-0.26-0.007-0.526,0.011-0.791,0.027
				c0.217-0.259,0.424-0.533,0.607-0.839c0.693-1.159-0.673-2.445-1.812-1.812c-3.427,1.907-7.857,3.202-11.839,3.886
				c-0.593,0.102-1.177,2.778-1.177,2.778c2.388,0.299,19.433,0.177,21.431-0.614c0.461-0.183,0.085-1.2-0.228-1.476
				C277.913,420.919,277.729,420.123,277.09,420.113z"/>
			<path style="fill:#12001A;" d="M309.464,424.339c0.15-0.215,0.105-1.505-0.316-1.505c-0.301-0.827-1.815-1.87-2.534-2.615
				c-1.277-1.323-2.793-3.441-4.721-3.845c-3.656-0.766-6.597,4.791-7.28,7.611c-0.001,0.002,0,0.005-0.001,0.007
				c-0.05,0.468-0.426,1.894,0.725,1.977c4.445,0.321,11.861-0.002,13.375-0.27C309.482,425.562,309.668,424.875,309.464,424.339z
				 M303.673,421.813c0.001-0.01,0.001-0.02,0.002-0.03c0.011,0.012,0.023,0.023,0.034,0.035
				C303.697,421.817,303.685,421.815,303.673,421.813z"/>
		</g>
		<g>
			<polygon style="fill:#DC9E93;" points="303.998,152.128 272.451,152.128 276.406,123.203 300.043,123.203 			"/>
			<path style="fill:#F3AE9F;" d="M261.834,97.525c-0.431,17.866,1.694,37.728,10.173,37.728c38.27,0,43.949-18.955,46.54-39.483
				c2.314-18.336-15.358-31.098-30.129-29.012S262.469,71.168,261.834,97.525z"/>
			<path style="fill:#12001A;" d="M256.287,259.904l9.708,86c0,0,4.278,61.565,1.537,69.427c0,0,5.065,3.088,8.789,0.844
				c0,0,14.893-42.797,17.513-53.02c3.591-14.012-10.678-28.783-10.678-28.783l15.549-50.14
				C298.705,284.233,270.381,248.363,256.287,259.904z"/>
			<path style="fill:#474D87;" d="M284.219,289.319c0,0-10.981-20.352-14.644-25.144l-12.858-1.705l-4.174-101.769
				c-0.259-6.866,4.503-12.913,11.237-14.271c27.769-5.599,48.937-0.279,60.508,4.231c5.901,2.3,9.487,8.309,8.778,14.603
				l-19.769,175.49"/>
			<path style="fill:#1E1029;" d="M269.575,264.175l0.114,19.589c1.786,2.932,4.384,5.284,7.478,6.772l6.333,4.106
				c0,0,17.397,76.503,11.377,119.573h11.335c0,0,15.247-36.535,15.908-38.359c1.942-5.357,5.738-21.385-6.262-35.978l6.262-77.408
				C322.119,262.471,298.504,269.562,269.575,264.175z"/>
		</g>
		<g>
			<path style="fill:#C8A99E;" d="M293.375,239.34c0.26,3.23,0.573,9.962-1.714,12.258c-1.449,1.455-3.281,2.501-4.645,4.036
				c-0.574,0.647-1.065,1.624-0.564,2.329c0.3,0.422,0.853,0.571,1.366,0.636c2.816,0.356,6.514-2.955,8.514-4.969
				s2.411-2.663,3.425-5.314c0.407-1.063,0.783-2.18,0.684-3.314c-0.099-1.134-0.796-2.291-1.896-2.583
				c-0.457-0.122-0.94-0.087-1.409-0.026c-0.685,0.09-1.363,0.237-2.024,0.439"/>
		</g>
		<g>
			<path style="fill:#C8A99E;" d="M316.404,245.894c1.51,2.867,4.447,8.933,3.248,11.944c-0.759,1.908-2.033,3.59-2.682,5.538
				c-0.274,0.821-0.34,1.912,0.398,2.363c0.442,0.27,1.009,0.19,1.507,0.047c2.729-0.78,4.826-5.28,5.872-7.918
				c1.046-2.638,1.169-3.397,1.058-6.233c-0.044-1.137-0.138-2.313-0.675-3.316c-0.537-1.003-1.633-1.793-2.759-1.629
				c-0.468,0.068-0.899,0.29-1.305,0.531c-0.594,0.353-1.16,0.754-1.688,1.2"/>
		</g>
		<path style="fill:#F3AE9F;" d="M304.55,180.406c0,0-28.489,23.24-40.101,27.403c-0.88,0.053-1.818,0.356-2.484,0.63
			c-0.728,0.299-2.543,1.321-1.693,2.313c0.121,0.141,0.364,0.199,0.538,0.142c0.025-0.008,0.05-0.016,0.075-0.024
			c0.102-0.034,0.186-0.101,0.254-0.18c0.23-0.175,0.691-0.34,0.92-0.446c0.295-0.136,0.604-0.232,0.918-0.314
			c-0.323,0.421-0.58,0.887-0.72,1.391c-0.264,0.946,0.961,1.326,1.485,0.626c0.368-0.492,0.721-0.902,1.107-1.266
			c0.155,0.076,0.311,0.152,0.49,0.228c-0.414,0.639-1.073,2.17,0.153,2.272c0.267,0.022,0.429-0.229,0.457-0.457
			c0.055-0.444,0.449-0.942,0.796-1.321c0.628,0.19,1.359,0.372,2.202,0.542c-0.262,0.352-0.482,0.739-0.63,1.157
			c-0.195,0.553,0.563,0.927,0.947,0.551c0.557-0.546,1.145-1.058,1.772-1.523c9.64-0.557,40.107-17.434,42.241-23.485
			C315.526,182.266,307.023,177.222,304.55,180.406z"/>
		<path style="fill:#E7B85E;" d="M302.619,181.961c0,0-26.405,19.419-35.834,22.979l9.621,6.989c0,0,24.763-8.993,30.816-16.138
			L302.619,181.961z"/>
		<path style="fill:#CE7964;" d="M304.313,209.77l-6.655-2.178c0,0-4.571-0.59-5.648-1.986c-1.078-1.395-0.724-4.706-0.724-4.706
			l0.233-3.449l1.619-1.471l0.83-1.643l2.62-0.96l4.991-0.308l1.245,7.017l2.287,9.572"/>
		<path style="fill:#12001A;" d="M328.589,203.332c0,0-29.979,3.153-33.105,18.921s-6.256,31.107-6.256,31.107l7.689,0.943
			c4.761-2.459,10.306-11.915,11.726-19.209c2.885-14.821,9.669-1.947,19.164-10.127
			C339.817,214.619,328.589,203.332,328.589,203.332z"/>
		<path style="fill:#474D87;" d="M324.289,150.662c0,0,12.739,3.158,16.977,13.753c4.238,10.595,27.702,50.023,12.018,76.078
			C353.284,240.493,301.36,202.171,324.289,150.662z"/>
		<path style="fill:#F2BFAC;" d="M278.619,168.18c4.658,11.236,12.219,18.433,18.03,15.622c16.128-7.801,23.807-19.561,20.87-33.441
			c-2.624-12.398-18.066-15.601-28.01-10.108C279.564,145.747,272.66,153.806,278.619,168.18z"/>
		<path style="fill:#F2BFAC;" d="M298.705,176.591l6.875,9.433c2.354,3.23,6.701,4.133,9.923,1.887
			c0.053-0.037,0.105-0.074,0.157-0.112c3.376-2.443,4.058-7.429,1.695-10.957l-8.322-12.427L298.705,176.591z"/>
		<path style="fill:#1E1029;" d="M336.82,195.79c0,0-27.397,15.738-24.613,31.57s5.41,31.266,5.41,31.266h7.561
			c1.925-2.679,4.694-13.853,3.94-24.049c-1.114-15.058,6.805-6.257,14.208-16.369C353.011,204.978,336.82,195.79,336.82,195.79z"/>
		<path style="fill:#525889;" d="M354.543,240.355c0,0-21.975,4.514-56.885-32.763l3.115-7.216
			C300.773,200.375,371.751,197.542,354.543,240.355z"/>
		<path style="fill:#FFAF43;" d="M303.228,182.796c0,0,1.318,10.217,2.504,12.296c3.506,6.145,13.902,5.738,16.828,6.328
			c12.797,2.581,19.209,6.429,20.677,0c0,0-10.117-14.647-13.736-21.044c-1.591-2.813-10.75-6.548-13.81-6.019
			C315.692,174.356,310.571,183.235,303.228,182.796z"/>
		<g>
			<g>
				<path style="fill:#F2BFAC;" d="M283.101,216.957c1.043-0.307,2.103-0.53,3.184-0.654c0.627-0.072,0.634-1.065,0-0.992
					c-1.171,0.134-2.317,0.357-3.447,0.689C282.226,216.18,282.486,217.138,283.101,216.957L283.101,216.957z"/>
			</g>
		</g>
		<path style="fill:#F2BFAC;" d="M318.345,180.975c0,0-25.936,30.525-35.795,34.903c-0.002,0.001-0.003,0-0.005,0.001
			c-0.768,0.287-1.498,0.642-2.189,1.085c-0.536,0.344-0.039,1.203,0.501,0.857c0.599-0.384,1.225-0.704,1.889-0.958
			c0.101,0.112,0.222,0.228,0.382,0.344c-0.657,0.385-1.208,0.91-1.626,1.578c-0.34,0.543,0.518,1.041,0.857,0.501
			c0.429-0.685,1.046-1.207,1.804-1.495c0.021-0.008,0.034-0.023,0.053-0.033c0.193,0.071,0.407,0.139,0.643,0.203
			c-0.603,0.671-1.05,1.459-1.306,2.335c-0.18,0.614,0.778,0.876,0.957,0.264c0.269-0.922,0.773-1.707,1.486-2.348
			c0.002-0.002,0.003-0.005,0.005-0.007c0.216,0.035,0.452,0.065,0.695,0.094c-0.011,0.013-0.025,0.018-0.035,0.032
			c-0.483,0.666-0.823,1.408-1.021,2.206c-0.154,0.62,0.803,0.884,0.957,0.264c0.179-0.722,0.485-1.367,0.921-1.969
			c0.12-0.165,0.106-0.324,0.03-0.452c0.393,0.029,0.819,0.048,1.274,0.059c-0.002,0.022-0.012,0.039-0.012,0.063
			c0.006,0.496,0.084,0.957,0.258,1.424c0.172,0.463,0.789,0.477,0.957,0c0.185-0.529,0.389-1.049,0.604-1.565
			c8.884-1.587,36.77-24.411,37.791-30.864C329.477,180.815,320.2,177.395,318.345,180.975z"/>
		<g>
			<path style="fill:#1E1029;" d="M314.88,75.653c4.174-12.864-16.032-11.247-22.29-11.098c-4.331,0.103-8.555-1.188-12.783-2.133
				c-4.228-0.944-8.742-1.532-12.821-0.071c-4.079,1.461-7.504,5.542-6.881,9.829c0.112,0.774,0.35,1.539,0.314,2.321
				c-0.074,1.622-1.273,2.932-2.279,4.206c-1.938,2.455-3.413,5.669-2.505,8.661c1.23,4.056,6.09,5.705,10.318,5.998
				c8.595,0.596,13.842-4.56,21.59-6.676c4.861-1.328,17.929-1.009,16.111,9.258c-0.48,2.709-3.07,5.036-2.483,7.724
				c0.617,2.823,4.48,4.236,4.625,7.122c0.059,1.17-0.542,2.256-1.07,3.302c-0.909,1.798-1.667,3.775-1.46,5.779
				c0.207,2.004,1.646,4.002,3.647,4.244c1.96,0.237,8.232-4.66,9.588-6.095c5.376-5.685,7.684-13.986,7.767-21.809
				c0.083-7.823-3.367-15.739-9.54-20.545"/>
		</g>
		<g>
			<g>
				<path style="fill:#BE6766;" d="M273.79,116.502c3.031-0.53,4.065-5.061,4.461-7.629c0.401-2.595-0.19-6.815-2.371-8.563
					c-0.278-0.223-0.795-0.275-0.975,0.126c-0.982,2.177-1.059,5.085-1.417,7.461c-0.351,2.328-2.134,5.479-1.226,7.737
					C272.532,116.305,273.061,116.629,273.79,116.502L273.79,116.502z"/>
			</g>
		</g>
		<g>
			<path style="fill:#F3AE9F;" d="M302.496,110.779c0,0,3.226-8.738,7.257-6.969c4.031,1.769,5.964,13.408-7.429,12.51
				L302.496,110.779z"/>
			<g>
				<path style="fill:#BE6766;" d="M304.861,108.717c0.874-0.958,2.021-1.924,3.445-1.634c1.566,0.318,2.369,2.053,2.145,3.518
					c-0.442,2.891-5.907,5.578-7.235,1.706c-1.04-3.033,2.855-6.816,5.776-5.408c1.641,0.791,2.175,2.849,1.69,4.445
					c-0.571,1.878-2.461,3.009-4.344,3.131c-1.666,0.108-2.47-2.118-1.191-3.087c0.532-0.403,1.182-0.637,1.702-1.048
					c0.112-0.089,0.373-0.535,0.298-0.505c-0.045,0.018,0.321,0.471,0.426,0.329c-0.043,0.058-0.297,0.07-0.405,0.119
					c-0.476,0.215-0.847,0.603-1.203,0.968c-0.214,0.219,0.18,0.232-0.204,0.163c0.174,0.031,0.404-0.129,0.557-0.194
					c0.461-0.196,1.162-0.5,1.394-0.977c0.601-1.235-1.074-0.232-1.417,0.022C305.397,110.927,304.077,109.576,304.861,108.717
					L304.861,108.717z"/>
			</g>
		</g>
		<path style="fill:#E7B85E;" d="M284.626,213.805l8.218,4.981c0,0,25.156-14.363,33.513-25.717c0,0,7.79-7.329,0-13.537
			s-15.929,9.025-18.51,11.533C291.78,206.683,284.626,213.805,284.626,213.805z"/>
		<g>
			<g>
				<path style="fill:#FF8763;" d="M288.841,171.068c-0.68,1.134-1.044,2.47-1.49,3.709c-0.117,0.325,0.192,0.729,0.536,0.703
					c2.149-0.16,3.379-2.57,2.018-4.338c-0.264-0.343-0.929-0.397-1.034,0.135c-0.138,0.699-0.412,1.468-0.145,2.159
					c0.084,0.216,0.36,0.335,0.542,0.143c0.509-0.536,0.557-1.302,0.694-2.001c-0.345,0.045-0.689,0.09-1.034,0.135
					c0.796,1.031,0.352,2.51-1.041,2.655c0.179,0.234,0.357,0.469,0.536,0.703c0.408-1.251,0.919-2.513,1.08-3.825
					C289.549,170.879,289.008,170.789,288.841,171.068L288.841,171.068z"/>
			</g>
		</g>
		<circle style="fill:#FF8763;" cx="300.458" cy="169.887" r="5.345"/>
		<path style="fill:#FF8763;" d="M281.751,171.787c-0.475,0-0.926,0.082-1.365,0.198c1.713,3.309,3.673,6.118,5.723,8.224
			c0.616-0.871,0.986-1.929,0.986-3.077C287.096,174.18,284.703,171.787,281.751,171.787z"/>
		<g>
			<path style="fill:#1E1029;" d="M314.347,169.873c3.365-2.314,5.919-6.395,5.318-10.521c-0.639-4.393,0.314-9.194-0.979-13.474
				c-0.78-2.581-2.69-4.993-5.319-5.595c-1.53-0.35-3.181-0.074-4.651-0.621c-2.254-0.84-3.462-3.356-5.584-4.488
				c-3.048-1.626-6.779,0.088-9.603,2.079c-2.824,1.991-5.788,4.405-9.237,4.204c-2.907-0.17-4.967-1.061-7.925,0.041
				c-3.844,1.432-6.426,5.678-5.929,9.75c0.105,0.861,0.358,1.752,0.985,2.352c0.692,0.663,1.828,0.987,2.055,1.918
				c0.238,0.974-0.698,1.781-1.336,2.555c-2.067,2.506-1.015,6.788,1.851,8.317c2.866,1.529,6.777,0.271,8.497-2.484
				c0.974-1.56,1.31-3.436,2.168-5.062c1.439-2.729,3.816-3.157,6.385-1.814c1.436,0.751,2.778,1.745,4.354,2.12
				c1.576,0.375,3.531-0.106,4.182-1.59c0.21-0.48,0.265-1.017,0.476-1.496c0.653-1.484,2.722-1.948,4.173-1.225
				c1.452,0.723,2.308,2.303,2.626,3.893c0.424,2.121,0.457,4.942,2.523,5.583c0.974,0.302,2.219-0.013,2.895,0.751
				c0.607,0.687,0.3,1.741,0.327,2.657c0.027,0.916,1.067,1.963,1.711,1.312"/>
		</g>
		<path style="fill:#F2BFAC;" d="M307.223,165.917c0,0-3.151-4.618,2.206-7.91C314.786,154.714,317.874,165.547,307.223,165.917z"/>
		<path style="fill:none;stroke:#1E1029;stroke-linecap:round;stroke-linejoin:round;stroke-miterlimit:10;" d="M264.34,104.295
			c-0.026-1.733,1.358-3.16,3.091-3.186c1.733-0.026,3.16,1.358,3.186,3.091"/>
		<path style="fill:none;stroke:#1E1029;stroke-linecap:round;stroke-linejoin:round;stroke-miterlimit:10;" d="M281.555,105.227
			c0.224-1.719,1.799-2.931,3.518-2.707c1.719,0.224,2.931,1.799,2.707,3.518"/>
		<path style="fill:none;stroke:#1E1029;stroke-linecap:round;stroke-linejoin:round;stroke-miterlimit:10;" d="M281.409,171.441
			c-0.595-1.098-0.187-2.47,0.911-3.065s2.47-0.187,3.065,0.911"/>
		<path style="fill:none;stroke:#1E1029;stroke-linecap:round;stroke-linejoin:round;stroke-miterlimit:10;" d="M292.709,166.295
			c-0.43-1.172,0.171-2.471,1.343-2.902c1.172-0.43,2.471,0.171,2.902,1.343"/>
	</g>
	<path style="fill:#2A3668;" d="M261.781,147.003c0,0-5.71,1.289-15.353,14.035c-9.643,12.747-31.179,62.014-27.964,79.488
		c3.214,17.474,42.187-53.562,42.187-53.562L261.781,147.003z"/>
	<g>
		<path style="fill:#1E1029;" d="M253.92,153.084c0.72,5.304-2.391,4.186,2.859,5.228c1.604,0.318,3.272,0.14,4.883,0.422
			c3.089,0.54,5.791,2.893,6.75,5.878c1.988,6.188-2.111,7.849-5.987,10.446c-4.806,3.219-1.682,5.502,1.353,9.732
			c3.939,5.488,0.871,14.48-5.601,16.415c-1.466,0.438-3.112,0.605-4.228,1.652c-2.343,2.199-0.615,5.998,0.371,9.056
			c2.087,6.477-0.243,13.908-5.008,18.766s-11.628,7.307-18.426,7.622c-3.559,0.165-6.361-3.331-9.772-4.43
			c-3.49-1.125-7.296-1.307-10.858-0.408c-3.311,0.835-6.41,2.533-9.807,2.888c-4.775,0.499-9.737-1.98-12.205-6.098
			s-2.316-9.662,0.374-13.639c1.216-1.796,2.958-3.445,3.111-5.608c0.193-2.723-2.247-4.911-4.707-6.092
			c-2.461-1.181-5.256-1.897-7.169-3.845c-3.215-3.274-2.634-8.849-0.259-12.775c2.376-3.926,6.129-6.784,9.25-10.148
			c3.155-3.4,5.72-7.351,4.235-11.938c-1.391-4.296-4.198-7.398-4.236-12.328c-0.045-5.939,1.113-11.94,3.534-17.363
			c4.583-10.269,15.013-19.623,29.481-18.378C248.588,120.436,253.2,147.78,253.92,153.084z"/>
	</g>
	<g>
		<path style="fill:#F3AE9F;" d="M214.31,196.719c0,0-23.252,34.102-21.014,98.624c0,0,1.843,3.188,5.417-0.067
			c3.573-3.255,7.418-49.672,23.721-78.42C222.433,216.856,230.619,202.33,214.31,196.719z"/>
		<path style="fill:#F3AE9F;" d="M217.081,334.141c0,0-10.932,9.975-11.879,33.703c-0.947,23.728,14.786,52.803,14.786,52.803
			s8.443,7.463,6.48-5.824s0-79.418,0-79.418S221.208,328.755,217.081,334.141z"/>
		<path style="fill:#F3AE9F;" d="M247.349,334.141c0,0-10.932,9.975-11.879,33.703c-0.947,23.728,14.786,52.803,14.786,52.803
			s8.443,7.463,6.48-5.824c-1.963-13.287,0-79.418,0-79.418S251.476,328.755,247.349,334.141z"/>
		<path style="fill:#F3AE9F;" d="M218.8,418.328c0,0-0.388,3.605-1.511,6.418c-0.96,2.406,9.941,4.674,11.204,0
			c0,0-2.214-9.056-2.455-14.581C225.797,404.64,218.559,404.155,218.8,418.328z"/>
		<path style="fill:#F3AE9F;" d="M247.795,414.823c0,0,1.05,5.258,0,7.81c-0.615,1.494,15.946,3.26,20.177,0.842
			c0.594-0.339,0.39-1.25-0.29-1.333c-3.102-0.38-10.726-1.992-11.116-8.678L247.795,414.823z"/>
		<path style="fill:#F3AE9F;" d="M212.443,258.89l-5.688,4.388c0,0-7.869,21.989,3.815,69.356c0,0,1.314,11.936,10.196,10.687
			s20.536-71.297,20.536-71.297S238.953,248.993,212.443,258.89z"/>
		<path style="fill:#F3AE9F;" d="M227.624,262.373l-4.578,5.536c0,0-2.817,23.184,19.042,66.8c0,0,3.918,11.351,12.305,8.171
			c8.387-3.18,4.279-74.072,4.279-74.072S251.293,246.864,227.624,262.373z"/>
		<path style="fill:#F3AE9F;" d="M236.594,191.169L236.594,191.169c-3.674,0.907-7.388-1.337-8.295-5.011l-2.548-10.324
			c-0.907-3.674,1.337-7.388,5.011-8.295h0c3.674-0.907,7.388,1.337,8.295,5.011l2.548,10.324
			C242.512,186.549,240.269,190.263,236.594,191.169z"/>
		<path style="fill:#F2BFAC;" d="M247.245,145.965c3.878,14.869,2.256,27.863-4.971,29.431c-20.057,4.352-35.374-1.694-42.69-17.928
			c-6.535-14.5,5.018-29.437,17.875-31.431S242.284,126.944,247.245,145.965z"/>
		<path style="fill:#F3AE9F;" d="M233.678,182.714c0,0-14.893,7.047-20.085,15.136c-5.379,8.38,15.746,34.857,17.025,39.397
			c1.28,4.54-18.149,8.523-23.863,26.031c0,0,25.529-0.102,32.407,17.06l9.004,0.066c0,0,3.506-8.538,10.547-9.221
			c0,0-1.836-65.954-4.949-82.032C253.765,189.152,254.108,185.698,233.678,182.714z"/>
		<path style="fill:#1E1029;" d="M222.144,242.918c0,0-28.491,12.017-15.389,71.407l5.972,25.577c0,0-21.456,24.996,6.073,78.427
			l9.014-1.31v-78.115l5.537-23.621l7.441,23.621c0,0-18.234,35.276,6.988,78.115l11.734-0.843c0,0-6.003-37.565-0.799-93.89
			c0,0,4.102-48.804-0.663-70.688C253.286,229.714,222.144,242.918,222.144,242.918z"/>
		<path style="fill:#FFAF43;" d="M222.732,189.761c0,0,16.26,5.584,25.335-4.017c0,0,6.974-0.178,6.311,7.325l6.047,61.069
			c0.131,1.318-0.82,2.5-2.138,2.636c-5.374,0.556-19.611,0.701-39.62-9.084c-0.872-0.427-0.961-1.64-0.167-2.2l3.643-2.572
			c4.526-3.807,6.22-9.401,3.16-14.463l-4.707-7.787c0,0,8.034-13.674-3.853-27.6L222.732,189.761z"/>
		<circle style="fill:#FF8763;" cx="224.488" cy="165.917" r="7.91"/>
		<path style="fill:#FF8763;" d="M247.72,147.909c-1.88,1.446-3.097,3.712-3.097,6.267c0,3.208,1.914,5.965,4.659,7.206
			C249.367,157.372,248.842,152.766,247.72,147.909z"/>
		<g>
			<path style="fill:#FF8763;" d="M235.994,152.629c-1.281,3.37,1.758,8.097,5.638,6.842c1.308-0.423,1.003-2.209-0.314-2.323
				c-2.079-0.18-4.654-1.787-4.154-4.197C237.324,152.178,236.269,151.904,235.994,152.629L235.994,152.629z"/>
		</g>
		<path style="fill:#FFAF43;" d="M218.702,419.066c0,0-2.695,4.1-3.127,5.946c-0.367,1.565,5.862,3.988,11.897,1.654
			c1.636-0.633,2.507-2.404,1.769-3.995l-1.975-3.604c0,0-1.129,3.267-5.222,3.768C218.202,423.304,218.702,419.066,218.702,419.066
			z"/>
		<path style="fill:#FFAF43;" d="M248.256,419.066c0,0-1.506,3.907-0.943,4.71c0.563,0.804,13.133,1.538,20.652,1.288
			c10.316-0.344,0-3.454-4.741-4.299l-1.366-0.283c0,0,1.045,1.768-2.571,1.205C255.67,421.125,248.074,422.633,248.256,419.066z"/>
		<path style="fill:none;stroke:#1E1029;stroke-linecap:round;stroke-linejoin:round;stroke-miterlimit:10;" d="M227.185,156.514
			c-0.73-1.236-0.319-2.83,0.917-3.56c1.236-0.73,2.83-0.319,3.56,0.917"/>
		<path style="fill:none;stroke:#1E1029;stroke-linecap:round;stroke-linejoin:round;stroke-miterlimit:10;" d="M239.792,149.738
			c-0.457-1.116,0.077-2.391,1.193-2.848c1.116-0.457,2.391,0.077,2.848,1.193"/>
	</g>
	<path style="fill:#633A2F;" d="M181.755,382.578c0,0,4.248,7.027,1.91,19.439l6.345,17.806l9.677-0.09c0,0,1.439-4.554-5.246-5.396
		c0,0-7.689-6.27-2.735-20.7c4.954-14.431,22.547-31.996,15.727-57.245C207.433,336.392,169.518,349.223,181.755,382.578z"/>
	<path style="fill:#7F4C3B;" d="M168.733,332.832c0,0-20.075,21.106-31.9,5.692c-8.22-10.715,0.708-19.586,10.285-20.418
		c2.668-0.232,3.065-3.99,0.523-4.834c-4.067-1.35-9.321-1.601-15.87,0.809c0,0-16.441,7.408-11.508,22.311l-6.879-7.916
		c0,0-3.842,17.109,13.258,24.631h-9.815c0,0,10.097,7.803,24.047,5.685l-7.839,6.755c0,0,22.062-1.648,30.544-16.308
		L168.733,332.832z"/>
	<g>
		<path style="fill:#633A2F;" d="M210.667,245.159c-0.187-0.95-1.337-1.348-2.069-0.714c-3.664,3.171-12.866,10.593-19.548,11.339
			C180.714,256.716,216.683,275.712,210.667,245.159z"/>
		<path style="fill:#7F4C3B;" d="M211.205,265.486c0,0-3.701,33.215-34.361,59.365s-12.335,44.465-10.182,54.602
			c2.154,10.137,0.409,17.206-0.991,22.52c-1.4,5.314-2.84,4.586-0.269,11.746s1.722,19.139,6.252,19.996h5.477
			c0,0,4.375-2.155,0-5.578c-4.375-3.422-6.605-4.388-6.776-18.048c-0.171-13.66,10.551-17.27,18.69-28.322
			c8.139-11.052,7.837-22.974,7.837-22.974s5.542-12.484,25.851-22.611c20.249-10.098,22.196-33.395,19.527-41.66
			c0,0,16.982-23.019,19.167-29.984c2.186-6.965-0.9-27.616,0-34.219c0,0-5.951-0.631-6.383,6.669
			c-0.432,7.3,4.562,18.107-6.078,25.561l-7.665,5.569c0,0,6.47-34.634-3.794-44.695c0,0-6.072-4.603-7.984,1.06
			c-1.912,5.662-18.094,4.214-21.38,17.009C205.589,251.437,211.205,265.486,211.205,265.486z"/>
		<path style="fill:#7F4C3B;" d="M211.909,248.659c-0.573-0.781-1.783-0.653-2.177,0.232c-1.971,4.427-7.153,15.053-12.886,18.565
			C189.694,271.837,230.325,273.77,211.909,248.659z"/>
		<path style="fill:#462720;" d="M228.301,223.281l0.965,3.759c0.133,0.518,0.769,0.711,1.158,0.343c1.257-1.19,3.447-3.542,3.6-5.6
			c0,0-1.325-0.341-4.804,0.137C228.571,222.009,228.138,222.647,228.301,223.281z"/>
		
			<ellipse transform="matrix(0.6531 -0.7573 0.7573 0.6531 -90.1234 253.2825)" style="fill:#240000;" cx="231.395" cy="225.011" rx="1.296" ry="0.557"/>
		<path style="fill:#633A2F;" d="M214.624,256.122c0,0-3.913,7.205-5.959,8.543s1.732,4.281,5.146,0.464
			C217.227,261.312,214.624,256.122,214.624,256.122z"/>
		<path style="fill:#7F4C3B;" d="M168.733,335.216c0,0-3.692-1.483-9.461,1.745C159.271,336.961,163.672,339.99,168.733,335.216z"/>
		<path style="fill:#7F4C3B;" d="M168.733,335.216c0,0-2.461,1.052-4.731-2.162C164.002,333.054,166.894,332.556,168.733,335.216z"
			/>
		<path style="fill:#7F4C3B;" d="M160.446,352.982c0,0-6.75,3.696-7.554,10.929C152.893,363.911,157.714,361.661,160.446,352.982z"
			/>
		<path style="fill:#7F4C3B;" d="M167.196,402.149c0,0-1.768,0.804-3.375,2.732C163.821,404.881,164.946,405.685,167.196,402.149z"
			/>
		<path style="fill:#7F4C3B;" d="M164.063,402.601c0,0,1.179,1.339,2.893,0C166.955,402.601,165.991,401.905,164.063,402.601z"/>
		<path style="fill:#7F4C3B;" d="M190.071,378.107c0,0-1.607,2.678-1.179,6.321C188.893,384.429,191.143,382.393,190.071,378.107z"
			/>
		<path style="fill:#7F4C3B;" d="M190.361,377.386c0,0-1.254,2.114,1.425,4.792C191.786,382.179,192.686,379.558,190.361,377.386z"
			/>
		<path style="fill:#7F4C3B;" d="M194.94,359.357c0,0,1.5,0.536,3.75-1.393C198.69,357.964,196.548,356.786,194.94,359.357z"/>
		<path style="fill:#7F4C3B;" d="M209.464,251.732c0,0-4.112,1.673-6.154,5.095C203.31,256.827,204.643,258.643,209.464,251.732z"/>
		<path style="fill:#633A2F;" d="M207.544,246.226c0,0-3.303-0.467-7,2.801C200.545,249.027,204.338,250.444,207.544,246.226z"/>
		<path style="fill:#633A2F;" d="M204.746,249.161c0,0-2.123-0.25-5.176,0.839C199.57,250,199.958,252.214,204.746,249.161z"/>
		<g>
			<g>
				<path style="fill:#240000;" d="M224.439,239.309c-1.582,0-3.041-1.04-3.499-2.634c-0.269-0.935-0.157-1.917,0.314-2.768
					c0.471-0.851,1.245-1.466,2.18-1.734c0.266-0.076,0.542,0.077,0.618,0.343c0.076,0.265-0.077,0.542-0.343,0.618
					c-0.677,0.194-1.239,0.641-1.58,1.258c-0.342,0.617-0.422,1.33-0.228,2.007c0.401,1.398,1.864,2.206,3.265,1.808
					c0.269-0.077,0.543,0.077,0.619,0.342c0.076,0.266-0.077,0.542-0.342,0.619C225.107,239.263,224.771,239.309,224.439,239.309z"
					/>
			</g>
		</g>
	</g>
	<path style="fill:#F3AE9F;" d="M204.007,297.984c-0.326-1.023-0.733-2.032-1.176-3.008c-0.036-0.142-0.066-0.287-0.105-0.428
		c0.09-0.018,0.18-0.053,0.271-0.078c0.542-0.094,1.043-0.297,1.446-0.607c0.753-0.411,1.566-0.989,1.675-1.591
		c0.169-0.933-0.803-1.076-1.456-1.089c-0.885-0.018-1.647-0.12-2.482-0.414c-0.313-0.11-0.719-0.227-1.118-0.374
		c-0.089-0.164-0.185-0.325-0.278-0.487c-0.007-0.114-0.01-0.223-0.019-0.339c-0.008-0.11-0.181-0.236-0.403-0.363
		c-0.139-0.22-0.277-0.441-0.425-0.657c-0.172-0.251-0.517-0.109-0.526,0.136c-0.027-0.021-0.058-0.043-0.073-0.061
		c-0.384-0.482-1.168-0.457-1.678-0.11s-0.532,1.75-1.083,1.473c-3.433-1.73-3.907,4.773-3.433,12.969
		c0,0.008,0.002,0.015,0.003,0.022c-0.06,3.424,0.344,7.273,2.213,9.728c0.285,0.375,1.089,0.333,1.024-0.277
		c-0.311-2.938-0.456-5.888-0.495-8.84c0.56,2.512,1.556,4.859,2.832,7.087c0.28,0.49,1.068,0.277,1.063-0.288
		c-0.03-3.401-0.639-6.751-0.937-10.127c0.574,2.646,1.427,5.221,2.465,7.744c0.214,0.519,1.013,0.493,1.028-0.139
		c0.044-1.901-0.54-3.703-0.899-5.557c-0.3-1.547-0.527-3.103-0.707-4.666c1.382,2.316,3.099,4.51,4.664,6.564
		c0.392,0.515,1.109,0.209,1.02-0.43C206.125,301.68,205.141,299.805,204.007,297.984z"/>
	<path style="fill:#1E1029;" d="M234.555,122.819c-5.175-1.72-11.512-0.136-16.515,1.304c-5.944,1.711-11.608,4.656-15.691,9.407
		c-1.544,1.797-2.703,3.687-3.554,5.641c-3.838,5.995-5.554,13.166-4.377,20.399c0.338,2.078,3.264,2.498,4.306,1.077
		c0.462,1.636,0.985,3.259,1.542,4.855c-0.211,0.892,0.206,1.882,0.902,2.491c0.257,0.688,0.517,1.371,0.778,2.045
		c0.577,1.49,2.478,1.668,3.625,0.83c15.775-11.527,31.612-25.88,32.261-46.816C237.832,124.054,235.696,123.203,234.555,122.819z
		 M233.638,128.093c-0.012-0.03-0.026-0.06-0.039-0.09c0.019,0,0.039,0,0.058,0C233.652,128.034,233.644,128.063,233.638,128.093z"
		/>
	<g>
		<path style="fill:#F2BFAC;" d="M210.402,168.474c0,0-9.162-3.043-10.514,1.212c-1.352,4.255,6.589,13.148,15.041,2.173
			L210.402,168.474z"/>
		<g>
			<path style="fill:#F3AE9F;" d="M207.142,169.001c-1.361,0.07-2.914,0.349-3.659,1.639c-0.819,1.419,0.012,3.144,1.332,3.901
				c2.603,1.493,8.483-1.046,6.31-4.537c-1.702-2.734-7.378-2.111-8.257,1.052c-0.494,1.777,0.779,3.499,2.381,4.136
				c1.886,0.749,4.079-0.001,5.465-1.386c1.226-1.225,0.005-3.264-1.642-2.885c-0.685,0.157-1.316,0.514-1.999,0.657
				c-0.147,0.031-0.681-0.05-0.606-0.09c0.045-0.024,0.155,0.548-0.03,0.54c0.076,0.003,0.259-0.187,0.372-0.239
				c0.497-0.233,1.06-0.275,1.593-0.32c0.32-0.027,0.061,0.287,0.27-0.055c-0.095,0.155-0.38,0.232-0.536,0.309
				c-0.471,0.234-1.194,0.585-1.732,0.462c-1.395-0.317,0.551-0.981,0.987-1.087C208.534,170.822,208.362,168.938,207.142,169.001
				L207.142,169.001z"/>
		</g>
	</g>
</g>
<g id="DESIGNED_BY_FREEPIK">
	<g>
		<g id="XMLID_29_">
			<g id="XMLID_48_">
				<path id="XMLID_56_" style="fill:#1D262D;" d="M260.104,465.465c-0.433,0.443-0.804,0.932-1.108,1.453l-0.465-0.241
					c-0.067-0.297-0.35-0.502-0.659-0.466c-0.331,0.039-0.567,0.339-0.529,0.67c0.039,0.331,0.339,0.567,0.67,0.528
					c0.065-0.007,0.127-0.025,0.184-0.052l0.451,0.234c-0.251,0.554-0.433,1.139-0.539,1.743l0.747,0.132
					c0.229-1.306,0.85-2.507,1.792-3.473L260.104,465.465z"/>
				<path id="XMLID_55_" style="fill:#1D262D;" d="M265.592,463.163c-0.171,0-0.341,0.006-0.509,0.017l-0.074-0.626
					c0.188-0.149,0.296-0.389,0.266-0.645c-0.046-0.393-0.402-0.674-0.795-0.628c-0.393,0.046-0.675,0.402-0.628,0.796
					c0.03,0.254,0.189,0.461,0.404,0.563l0.073,0.624c-0.714,0.116-1.402,0.332-2.06,0.645l0.327,0.685
					c0.935-0.447,1.941-0.674,2.995-0.674c0.497,0,0.993,0.053,1.476,0.158l0.16-0.741
					C266.692,463.222,266.143,463.163,265.592,463.163z"/>
				<path id="XMLID_54_" style="fill:#1D262D;" d="M272.194,465.71c0.331-0.04,0.566-0.341,0.525-0.672
					c-0.04-0.331-0.341-0.566-0.672-0.525c-0.31,0.038-0.535,0.304-0.53,0.608l-0.416,0.363c-0.418-0.43-0.89-0.813-1.407-1.14
					l-0.404,0.642c1.135,0.715,2.02,1.727,2.563,2.925l0.69-0.313c-0.251-0.554-0.567-1.071-0.942-1.545l0.402-0.351
					C272.065,465.715,272.129,465.719,272.194,465.71z"/>
				<path id="XMLID_53_" style="fill:#1D262D;" d="M265.045,473.371c-0.386,0.023-0.775,0.035-1.157,0.035
					c-0.88,0-1.733-0.061-2.479-0.18c-0.391-0.061-0.846-0.154-1.27-0.292c1.047,1.861,3.069,3.125,5.389,3.125
					c2.856,0,5.263-1.916,5.949-4.503c-0.682,0.449-1.505,0.825-2.458,1.122C267.839,473.047,266.464,473.286,265.045,473.371z"/>
				<path id="XMLID_49_" style="fill:#1D262D;" d="M265.592,464.68c-3.352,0-6.079,2.666-6.079,5.943
					c0,0.425,0.046,0.849,0.137,1.261c0.674,0.483,2.706,0.891,5.348,0.731c2.88-0.174,5.297-0.958,6.672-2.159
					c-0.005-0.194-0.021-0.39-0.045-0.581C271.244,466.913,268.65,464.68,265.592,464.68z M263.433,471.194
					c-1.02,0-1.85-0.83-1.85-1.85c0-1.021,0.83-1.85,1.85-1.85c1.02,0,1.85,0.83,1.85,1.85
					C265.282,470.364,264.452,471.194,263.433,471.194z M268.17,470.286c-0.75,0-1.36-0.61-1.36-1.36s0.61-1.36,1.36-1.36
					s1.36,0.61,1.36,1.36S268.92,470.286,268.17,470.286z"/>
			</g>
			<path id="XMLID_46_" style="fill:#1D262D;" d="M281.596,466.547c-0.295-0.116-0.806-0.31-1.383-0.238
				c-0.551,0.069-0.844,0.341-0.844,1.007v0.866h2.228v1.717h-2.228v5.455h-1.932v-5.455h-1.339v-1.717h1.339v-0.889
				c0-1.68,0.896-2.782,2.568-2.782c0.643,0,1.157,0.121,1.59,0.308V466.547z"/>
			<path id="XMLID_44_" style="fill:#1D262D;" d="M286.298,469.878c-0.177-0.029-0.357-0.046-0.525-0.046
				c-0.895,0-1.51,0.548-1.51,1.613v3.908h-1.933v-7.172h1.873v0.784c0.451-0.673,1.14-0.977,2.021-0.977
				c0.414,0,0.848,0.128,1.095,0.337L286.298,469.878z"/>
			<path id="XMLID_41_" style="fill:#1D262D;" d="M293.966,471.757c0,0.222-0.016,0.488-0.037,0.651h-5.085
				c0.207,1.036,0.933,1.487,1.843,1.487c0.622,0,1.295-0.252,1.813-0.689l1.133,1.243c-0.814,0.748-1.851,1.089-3.057,1.089
				c-2.198,0-3.724-1.496-3.724-3.753c0-2.258,1.48-3.797,3.627-3.797C292.544,467.989,293.958,469.522,293.966,471.757z
				 M288.852,471.091h3.175c-0.178-0.918-0.732-1.436-1.562-1.436C289.555,469.654,289.021,470.202,288.852,471.091z"/>
			<path id="XMLID_38_" style="fill:#1D262D;" d="M301.619,471.757c0,0.222-0.016,0.488-0.037,0.651h-5.085
				c0.207,1.036,0.933,1.487,1.843,1.487c0.622,0,1.296-0.252,1.814-0.689l1.133,1.243c-0.815,0.748-1.851,1.089-3.058,1.089
				c-2.198,0-3.723-1.496-3.723-3.753c0-2.258,1.48-3.797,3.627-3.797C300.197,467.989,301.611,469.522,301.619,471.757z
				 M296.505,471.091h3.175c-0.178-0.918-0.733-1.436-1.561-1.436C297.208,469.654,296.675,470.202,296.505,471.091z"/>
			<path id="XMLID_35_" style="fill:#1D262D;" d="M309.965,471.764c0,2.154-1.495,3.775-3.472,3.775
				c-0.962,0-1.643-0.378-2.109-0.933v3.708h-1.925v-10.133h1.888v0.792c0.467-0.585,1.154-0.984,2.139-0.984
				C308.47,467.989,309.965,469.61,309.965,471.764z M304.287,471.764c0,1.133,0.748,1.977,1.844,1.977
				c1.14,0,1.85-0.881,1.85-1.977c0-1.095-0.71-1.976-1.85-1.976C305.035,469.788,304.287,470.632,304.287,471.764z"/>
			<path id="XMLID_32_" style="fill:#1D262D;" d="M313.068,465.835c0,0.696-0.541,1.23-1.236,1.23c-0.696,0-1.229-0.533-1.229-1.23
				c0-0.695,0.532-1.243,1.229-1.243C312.527,464.592,313.068,465.14,313.068,465.835z M312.809,475.353h-1.932v-7.172h1.932
				V475.353z"/>
			<path id="XMLID_30_" style="fill:#1D262D;" d="M316.032,470.735l2.702-2.554h2.368l-3.479,3.375l3.501,3.797h-2.376l-2.717-2.901
				v2.901h-1.932v-10.658h1.932V470.735z"/>
		</g>
		<g>
			<path style="fill:#1D262D;" d="M184.413,475.289v-1.055c-0.527,0.718-1.391,1.23-2.387,1.23c-1.846,0-3.149-1.406-3.149-3.706
				c0-2.256,1.289-3.721,3.149-3.721c0.952,0,1.816,0.469,2.387,1.245v-3.765h1.099v9.771H184.413z M184.413,473.37v-3.208
				c-0.395-0.615-1.245-1.143-2.124-1.143c-1.42,0-2.27,1.172-2.27,2.739c0,1.567,0.85,2.725,2.27,2.725
				C183.168,474.483,184.018,473.985,184.413,473.37z"/>
			<path style="fill:#1D262D;" d="M186.932,471.744c0-2.051,1.465-3.706,3.486-3.706c2.139,0,3.398,1.67,3.398,3.794v0.278h-5.727
				c0.088,1.333,1.025,2.446,2.549,2.446c0.806,0,1.626-0.322,2.182-0.894l0.527,0.718c-0.703,0.703-1.655,1.084-2.812,1.084
				C188.441,475.465,186.932,473.956,186.932,471.744z M190.404,468.946c-1.509,0-2.256,1.274-2.314,2.358h4.644
				C192.718,470.25,192.015,468.946,190.404,468.946z"/>
			<path style="fill:#1D262D;" d="M194.607,474.352l0.571-0.791c0.469,0.542,1.362,1.011,2.329,1.011c1.084,0,1.67-0.513,1.67-1.216
				c0-1.714-4.38-0.659-4.38-3.281c0-1.099,0.952-2.036,2.636-2.036c1.202,0,2.051,0.454,2.623,1.025l-0.513,0.762
				c-0.424-0.513-1.201-0.893-2.109-0.893c-0.966,0-1.567,0.483-1.567,1.113c0,1.553,4.379,0.527,4.379,3.281
				c0,1.186-0.952,2.139-2.783,2.139C196.307,475.465,195.325,475.113,194.607,474.352z"/>
			<path style="fill:#1D262D;" d="M201.478,466.471c0-0.41,0.337-0.747,0.732-0.747c0.41,0,0.747,0.337,0.747,0.747
				c0,0.41-0.337,0.732-0.747,0.732C201.814,467.203,201.478,466.881,201.478,466.471z M201.667,475.289v-7.075h1.099v7.075H201.667
				z"/>
			<path style="fill:#1D262D;" d="M204.583,477.105l0.556-0.82c0.586,0.703,1.289,0.967,2.3,0.967c1.172,0,2.271-0.571,2.271-2.124
				v-1.011c-0.513,0.718-1.377,1.26-2.373,1.26c-1.846,0-3.149-1.377-3.149-3.662c0-2.271,1.289-3.677,3.149-3.677
				c0.952,0,1.802,0.469,2.373,1.245v-1.069h1.099v6.87c0,2.344-1.641,3.076-3.369,3.076
				C206.237,478.16,205.417,477.925,204.583,477.105z M209.709,473.253v-3.091c-0.381-0.615-1.23-1.143-2.109-1.143
				c-1.421,0-2.27,1.128-2.27,2.695c0,1.553,0.849,2.695,2.27,2.695C208.479,474.41,209.328,473.868,209.709,473.253z"/>
			<path style="fill:#1D262D;" d="M217.414,475.289v-4.629c0-1.245-0.63-1.641-1.582-1.641c-0.864,0-1.685,0.527-2.094,1.099v5.171
				h-1.099v-7.075h1.099v1.025c0.497-0.586,1.464-1.201,2.519-1.201c1.479,0,2.256,0.747,2.256,2.285v4.966H217.414z"/>
			<path style="fill:#1D262D;" d="M219.933,471.744c0-2.051,1.465-3.706,3.486-3.706c2.139,0,3.398,1.67,3.398,3.794v0.278h-5.727
				c0.088,1.333,1.025,2.446,2.548,2.446c0.806,0,1.626-0.322,2.183-0.894l0.527,0.718c-0.703,0.703-1.655,1.084-2.813,1.084
				C221.442,475.465,219.933,473.956,219.933,471.744z M223.404,468.946c-1.509,0-2.256,1.274-2.314,2.358h4.643
				C225.719,470.25,225.016,468.946,223.404,468.946z"/>
			<path style="fill:#1D262D;" d="M233.351,475.289v-1.055c-0.527,0.718-1.392,1.23-2.388,1.23c-1.845,0-3.149-1.406-3.149-3.706
				c0-2.256,1.289-3.721,3.149-3.721c0.952,0,1.817,0.469,2.388,1.245v-3.765h1.098v9.771H233.351z M233.351,473.37v-3.208
				c-0.396-0.615-1.245-1.143-2.124-1.143c-1.421,0-2.271,1.172-2.271,2.739c0,1.567,0.85,2.725,2.271,2.725
				C232.105,474.483,232.955,473.985,233.351,473.37z"/>
			<path style="fill:#1D262D;" d="M239.692,475.289v-9.771h1.099v3.765c0.571-0.776,1.421-1.245,2.388-1.245
				c1.845,0,3.149,1.465,3.149,3.721c0,2.3-1.304,3.706-3.149,3.706c-0.996,0-1.86-0.513-2.388-1.23v1.055H239.692z M242.9,474.483
				c1.436,0,2.285-1.157,2.285-2.725c0-1.567-0.85-2.739-2.285-2.739c-0.864,0-1.729,0.527-2.109,1.143v3.208
				C241.172,473.985,242.036,474.483,242.9,474.483z"/>
			<path style="fill:#1D262D;" d="M247.529,477.061c0.161,0.073,0.425,0.117,0.601,0.117c0.483,0,0.806-0.161,1.055-0.747
				l0.469-1.069l-2.959-7.148h1.186l2.358,5.801l2.344-5.801h1.2l-3.545,8.511c-0.425,1.024-1.143,1.421-2.08,1.436
				c-0.234,0-0.6-0.044-0.806-0.103L247.529,477.061z"/>
		</g>
	</g>
</g>
</svg>
