<?xml version="1.0" encoding="utf-8"?>
<!-- Generator: Adobe Illustrator 27.5.0, SVG Export Plug-In . SVG Version: 6.00 Build 0)  -->
<svg version="1.1" xmlns="http://www.w3.org/2000/svg" xmlns:xlink="http://www.w3.org/1999/xlink" x="0px" y="0px"
	 viewBox="0 0 500 500" style="enable-background:new 0 0 500 500;" xml:space="preserve">
<g id="BACKGROUND">
	<rect style="fill:#F9EFCB;" width="500" height="500"/>
</g>
<g id="OBJECTS">
	<defs>
		<filter id="Adobe_OpacityMaskFilter" filterUnits="userSpaceOnUse" x="19.983" y="48.695" width="471.698" height="466.626">
			<feColorMatrix  type="matrix" values="1 0 0 0 0  0 1 0 0 0  0 0 1 0 0  0 0 0 1 0"/>
		</filter>
	</defs>
	<mask maskUnits="userSpaceOnUse" x="19.983" y="48.695" width="471.698" height="466.626" id="SVGID_1_">
		<g style="filter:url(#Adobe_OpacityMaskFilter);">
			<rect style="fill:#FFFFFF;" width="500" height="500"/>
		</g>
	</mask>
	<g style="mask:url(#SVGID_1_);">
		<g>
			<path style="opacity:0.13;fill:#606060;" d="M162.281,482.136c-0.188-0.055-0.379,0.062-0.539,0.175
				c-4.098,2.889-7.587,6.637-10.177,10.93c-1.255,2.08-2.312,4.345-2.552,6.759h13.859c0.481-1.133,0.848-2.319,1.117-3.52
				c1.041-4.638,0.648-9.63-1.355-13.942C162.557,482.371,162.458,482.188,162.281,482.136z"/>
			<path style="opacity:0.13;fill:#606060;" d="M109.095,454.081c0.808,0.55,1.638,1.067,2.456,1.604
				c-3.102-0.904-6.35-1.403-9.571-1.612c-0.382-0.025-0.82-0.025-1.077,0.259c-0.15,0.166-0.203,0.395-0.246,0.614
				c-0.506,2.584-0.329,5.299,0.507,7.796c0.44,1.313,1.056,2.561,1.732,3.769c2.413,4.31,5.704,8.238,9.975,10.719
				c4.213,2.447,10.438,3.272,15.073,1.705c0.205,0.177,0.41,0.354,0.613,0.532c1.008,0.885,1.988,1.803,2.959,2.728
				c-2.44-1.242-5.28-1.807-8.023-1.648c-5.018,0.292-9.712,2.662-13.748,5.659c-0.231,0.172-0.483,0.385-0.492,0.673
				c-0.005,0.168,0.076,0.325,0.158,0.472c0.968,1.729,2.391,3.201,4.087,4.227c0.892,0.539,1.853,0.955,2.829,1.319
				c3.484,1.299,7.285,1.95,10.944,1.294c3.614-0.648,7.589-3.213,9.483-6.375c0.027-0.002,0.054-0.002,0.081-0.004
				c0.034-0.002,0.059-0.018,0.077-0.038c0.596,0.664,1.202,1.32,1.78,1.999c0.561,1.018,1.266,1.923,2.112,2.597
				c0.266,0.335,0.548,0.657,0.81,0.996c1.661,2.143,3.216,4.365,4.7,6.633h0.74c-0.031-0.047-0.058-0.097-0.089-0.144
				c-1.494-2.297-3.1-4.52-4.775-6.688c1.507,0.367,3.119-0.226,4.428-1.084c2.448-1.604,4.248-4.094,5.284-6.831
				c0.966-2.551,1.29-5.31,1.201-8.04c8.381,3.35,16.97,6.148,25.688,8.13c-1.087,4.868-2.102,9.757-3.077,14.658h184.734
				c-2.994-12.18-6.207-24.303-9.726-36.344c0.915,0.591,1.837,1.154,2.769,1.652c7.803,4.174,16.529,6.284,25.386,6.945
				c-0.841,2.389-1.329,4.916-1.207,7.443c0.134,2.78,1.031,5.56,2.774,7.729c0.932,1.16,2.215,2.17,3.687,2.28
				c-2.151,1.47-4.256,3.009-6.282,4.648c-1.023,0.828-2.021,1.686-3.009,2.555c0.503-0.936,0.874-1.952,1.092-2.898
				c0.531-2.292,0.233-4.698-0.301-6.989c-1.083-4.643-3.139-9.057-5.997-12.873c-0.112-0.149-0.25-0.311-0.436-0.317
				c-0.175-0.005-0.319,0.131-0.438,0.26c-3.077,3.312-4.898,7.711-5.317,12.213c-0.219,2.344-0.066,4.747,0.682,6.979
				c0.748,2.232,2.118,4.289,4.036,5.655c0.809,0.576,1.774,1.019,2.746,1.061h0.298c0.101-0.004,0.202-0.007,0.303-0.022
				c-0.008,0.007-0.016,0.014-0.023,0.022h0.841c0.326-0.307,0.643-0.624,0.971-0.928c0.073,0.309,0.163,0.619,0.262,0.928h25.132
				c-2.182-1.858-4.591-3.414-7.263-4.457c-4.624-1.804-10.094-1.858-14.478,0.303c0.126-0.105,0.246-0.219,0.372-0.323
				c2.336-1.935,4.764-3.761,7.272-5.468c0.336-0.229,0.685-0.438,1.024-0.663c0.964-0.362,1.867-0.973,2.673-1.729
				c0.722-0.445,1.462-0.86,2.197-1.286c0.01,0.024,0.028,0.045,0.058,0.057c0.024,0.01,0.048,0.018,0.072,0.027
				c0.785,3.416,3.628,6.903,6.706,8.549c3.117,1.668,6.747,2.194,10.279,2.042c0.99-0.043,1.981-0.137,2.946-0.363
				c1.835-0.43,3.554-1.344,4.938-2.624c0.117-0.108,0.237-0.227,0.281-0.38c0.076-0.263-0.088-0.53-0.247-0.753
				c-2.771-3.895-6.32-7.417-10.773-9.154c-2.434-0.949-5.168-1.272-7.74-0.865c1.15-0.552,2.306-1.094,3.477-1.599
				c0.239-0.103,0.478-0.204,0.718-0.305c3.732,2.777,9.599,3.862,14.127,2.885c4.592-0.99,8.721-3.577,12.169-6.768
				c0.966-0.894,1.89-1.842,2.673-2.901c1.489-2.013,2.445-4.417,2.746-6.903c0.026-0.211,0.045-0.433-0.042-0.627
				c-0.149-0.332-0.545-0.461-0.898-0.551c-6.156-1.564-12.779-2.08-18.784-0.012c-6.005,2.069-11.243,7.113-12.232,13.386
				c-0.052,0.328-0.086,0.67-0.034,0.994c-2.275,0.962-4.506,2.024-6.7,3.16c-0.674,0.274-1.316,0.618-1.926,1.018
				c-0.903,0.494-1.8,0.998-2.687,1.521c0.482-0.618,0.906-1.264,1.254-1.896c1.34-2.437,1.775-5.269,1.904-8.046
				c0.063-1.366,0.054-2.735-0.021-4.101c2.262-0.2,4.513-0.506,6.722-1.024c6.38-1.496,12.357-4.672,17.167-9.123
				c0.408-0.377,0.823-0.789,0.978-1.322c0.266-0.915-0.307-1.843-0.859-2.619c-9.633-13.543-21.974-25.786-37.458-31.826
				c-12.536-4.89-27.37-5.032-39.248,0.844c0.355-0.297,0.703-0.604,1.06-0.899c6.325-5.24,12.897-10.181,19.687-14.803
				c0.824-0.561,1.66-1.102,2.491-1.653c2.747-0.971,5.317-2.725,7.6-4.879c1.934-1.19,3.883-2.353,5.847-3.492
				c0.015,0.092,0.066,0.178,0.177,0.221c0.06,0.024,0.121,0.047,0.182,0.07c2.123,9.249,9.834,18.69,18.169,23.149
				c8.44,4.515,18.265,5.94,27.827,5.528c2.68-0.116,5.364-0.371,7.976-0.983c4.968-1.165,9.622-3.638,13.367-7.104
				c0.317-0.294,0.641-0.614,0.761-1.03c0.207-0.712-0.239-1.435-0.669-2.039c-7.501-10.545-17.111-20.079-29.167-24.781
				c-6.614-2.58-14.048-3.451-21.033-2.329c3.136-1.506,6.297-2.962,9.491-4.34c0.64-0.276,1.282-0.546,1.924-0.816
				c10.104,7.521,26.004,10.447,38.265,7.802c12.431-2.681,23.611-9.684,32.944-18.322c2.616-2.421,5.116-4.987,7.236-7.853
				c4.031-5.451,6.621-11.958,7.435-18.688c0.069-0.57,0.121-1.173-0.114-1.698c-0.403-0.899-1.475-1.248-2.431-1.491
				c-16.665-4.235-34.596-5.632-50.853-0.032c-6.403,2.206-12.479,5.665-17.662,10.081c-3.548-4.963-8.082-9.442-13.763-11.658
				c-4.624-1.803-10.094-1.858-14.478,0.303c0.126-0.106,0.246-0.219,0.372-0.323c2.336-1.935,4.764-3.76,7.272-5.468
				c0.336-0.229,0.685-0.438,1.024-0.663c0.964-0.362,1.866-0.973,2.673-1.729c0.722-0.445,1.463-0.86,2.197-1.286
				c0.01,0.024,0.028,0.045,0.058,0.057c0.024,0.01,0.048,0.018,0.072,0.028c0.785,3.416,3.628,6.902,6.706,8.549
				c3.117,1.668,6.746,2.194,10.279,2.042c0.99-0.043,1.981-0.137,2.946-0.363c1.835-0.43,3.554-1.344,4.938-2.624
				c0.117-0.108,0.237-0.227,0.281-0.38c0.076-0.263-0.088-0.53-0.247-0.753c-2.771-3.895-6.32-7.417-10.773-9.153
				c-2.434-0.949-5.169-1.272-7.74-0.865c1.15-0.552,2.306-1.094,3.477-1.599c0.239-0.103,0.478-0.204,0.718-0.305
				c3.732,2.777,9.599,3.862,14.127,2.885c4.592-0.991,8.721-3.577,12.169-6.768c0.966-0.894,1.89-1.842,2.673-2.901
				c1.489-2.013,2.445-4.417,2.746-6.903c0.025-0.211,0.045-0.433-0.042-0.627c-0.149-0.332-0.545-0.461-0.898-0.551
				c-6.155-1.564-12.779-2.08-18.784-0.012c-6.005,2.069-11.243,7.113-12.232,13.387c-0.052,0.328-0.086,0.67-0.034,0.994
				c-2.275,0.962-4.506,2.024-6.7,3.159c-0.674,0.274-1.316,0.618-1.926,1.018c-0.903,0.494-1.8,0.998-2.687,1.52
				c0.482-0.618,0.906-1.264,1.253-1.896c1.34-2.437,1.775-5.269,1.904-8.046c0.127-2.734-0.031-5.479-0.453-8.183
				c19.087-25.223,32.668-54.384,46.016-83.184l4.727-10.199c0.576-1.243-0.775-2.498-1.971-1.83
				c-24.479,13.657-49.093,27.956-67.926,48.649c-2.019,2.218-3.948,4.515-5.831,6.85c-0.014-0.002-0.025-0.007-0.039-0.009
				c0,0-0.004,0.029-0.012,0.071c-0.047,0.058-0.094,0.115-0.141,0.173l0.408-3.75l0.182-1.675v0h0l-20.743-5.442
				c0.713-0.627,1.434-1.246,2.166-1.851c0.779-0.645,1.57-1.277,2.371-1.897c0.958-0.742,1.929-1.469,2.909-2.186
				c1.347-0.986,2.714-1.948,4.086-2.904c0.383-0.267,0.765-0.533,1.149-0.798c1.242-0.858,2.487-1.713,3.732-2.566
				c1.345-0.922,2.688-1.845,4.02-2.779c0.614-0.43,1.226-0.87,1.835-1.315c0.788-0.576,1.568-1.168,2.325-1.784
				c0,0,0.001,0,0.001-0.001c0.001-0.001,0.002-0.002,0.003-0.003c0.485-0.394,0.956-0.802,1.419-1.217
				c0.146-0.131,0.29-0.262,0.433-0.395c0.433-0.402,0.857-0.813,1.262-1.238c0.054-0.056,0.107-0.113,0.16-0.169
				c0.409-0.437,0.796-0.892,1.17-1.358c0.105-0.131,0.209-0.264,0.311-0.398c0.39-0.51,0.765-1.031,1.105-1.578h0
				c0.119-0.192,0.247-0.376,0.359-0.573c2.4-4.218,2.792-9.949-0.319-13.675c-1.774-2.124-4.436-3.337-7.137-3.942
				c-5.842-1.309-12.064-0.003-17.339,2.855c-0.303,0.164-0.604,0.331-0.9,0.505c-1.41,0.829-2.745,1.768-4.017,2.789
				c-0.186,0.15-0.366,0.307-0.55,0.461c-0.321,0.017-0.643,0.024-0.964,0.044c-1.419,0.087-2.836,0.201-4.252,0.33
				c-0.027-0.828-0.13-1.651-0.274-2.468c0.013-0.006,0.026-0.011,0.039-0.016c0,0-0.054-0.236-0.167-0.672
				c-0.025-0.115-0.037-0.232-0.064-0.346c-0.139-0.579-0.314-1.147-0.509-1.708c-0.012-0.04-0.022-0.075-0.034-0.115
				c-0.321-1.077-0.691-2.048-0.944-2.669c3.937-5.551,7.03-11.701,9.109-18.181c0.37-1.152,0.697-2.454,0.139-3.527
				c-0.87-1.673-3.221-1.72-5.084-1.423c-6.693,1.067-13.14,3.604-18.792,7.341c-1.502-1.04-3.057-2.002-4.677-2.842
				c0-0.001,0-0.002,0.001-0.003l-0.089-0.039c-0.841-0.434-1.694-0.842-2.566-1.212c-0.549-0.233-1.104-0.448-1.664-0.653
				l-0.056-0.025c-0.001,0.001-0.001,0.001-0.002,0.002c-2.731-0.994-5.582-1.642-8.471-1.965c-1.529-0.463-6.315-0.207-6.315-0.207
				c-0.001,0.01-0.002,0.021-0.004,0.031c-0.878,0.049-1.755,0.118-2.628,0.228c-1.164-7.976-3.653-16.54-8.109-26.797
				c-7.214-16.604-12.684-32.999-16.593-46.359c0.574-3.565,0.211-7.374-1.071-10.631c-0.634-1.61-1.534-3.144-2.817-3.905
				c-0.038-0.023-0.078-0.038-0.116-0.059c-2.5-9.774-3.683-15.85-3.683-15.85h-0.004c-0.393-1.983-0.981-4.122-1.836-6.844
				c-3.771-12.007-11.657-20.618-18.088-25.698c-4.076-3.22-6.793-4.751-10.187-4.705c-13.343-12.727-47.736-14.03-67.672,15.721
				c-5.424,8.095-8.445,15.276-9.901,21.525h-0.001c0,0-0.066,0.271-0.184,0.825c-0.026,0.121-0.051,0.241-0.076,0.361
				c-0.959,4.608-4.364,23.095-6.265,61.358c-1.537,30.934-16.471,41.059-15.343,72.653c0.472,13.213,4.475,21.554,9.516,26.852
				c-0.219,0.633-0.425,1.272-0.623,1.914c-0.377-0.242-0.749-0.492-1.132-0.725c-0.48-0.292-1.041-0.588-1.576-0.419
				c-0.568,0.179-0.853,0.798-1.067,1.354c-2.431,6.314-4.271,12.853-5.508,19.504c-0.572,0.794-1.121,1.604-1.627,2.442
				c-1.278,2.118-2.356,4.428-2.569,6.893c-0.088,1.017-0.048,2.154,0.152,3.253c-0.706-1.19-1.426-2.372-2.18-3.532
				c-1.494-2.297-3.1-4.519-4.775-6.688c1.507,0.367,3.119-0.226,4.428-1.084c2.448-1.604,4.248-4.094,5.284-6.831
				c1.036-2.737,1.34-5.714,1.181-8.636c-0.306-5.611-2.358-11.163-6.021-15.423c-0.142-0.165-0.314-0.342-0.532-0.344
				c-0.231-0.002-0.411,0.193-0.557,0.372c-3.732,4.603-6.497,9.987-8.064,15.703c-0.773,2.82-1.257,5.794-0.708,8.667
				c0.142,0.745,0.357,1.529,0.638,2.303c-0.718-0.81-1.452-1.606-2.195-2.393c-0.48-0.598-1.01-1.15-1.595-1.643
				c-1.826-1.848-3.713-3.634-5.676-5.335c0.157-0.307,0.234-0.661,0.288-1.005c1.047-6.596-2.555-13.342-7.89-17.36
				c-5.335-4.018-12.128-5.652-18.793-6.085c-0.382-0.025-0.82-0.025-1.077,0.259c-0.15,0.166-0.203,0.395-0.246,0.614
				c-0.506,2.584-0.329,5.299,0.507,7.796c0.44,1.313,1.056,2.561,1.732,3.769c2.413,4.31,5.704,8.238,9.975,10.719
				c4.213,2.447,10.438,3.272,15.073,1.705c0.205,0.177,0.41,0.353,0.613,0.532c1.008,0.886,1.988,1.803,2.959,2.728
				c-2.44-1.242-5.28-1.807-8.023-1.648c-5.018,0.292-9.712,2.662-13.747,5.659c-0.231,0.172-0.483,0.385-0.492,0.673
				c-0.005,0.168,0.076,0.325,0.158,0.472c0.968,1.729,2.391,3.201,4.087,4.227c0.892,0.539,1.853,0.955,2.829,1.319
				c3.484,1.299,7.285,1.95,10.944,1.294c3.614-0.648,7.589-3.213,9.483-6.375c0.027-0.002,0.054-0.002,0.081-0.004
				c0.034-0.002,0.059-0.018,0.077-0.038c0.596,0.664,1.202,1.32,1.78,1.999c0.561,1.018,1.266,1.923,2.113,2.597
				c0.266,0.335,0.547,0.657,0.809,0.995c1.954,2.522,3.79,5.135,5.499,7.83c0.093,0.146,0.176,0.298,0.268,0.444
				c-3.684-3.585-9.173-5.306-14.384-5.002c-5.541,0.322-10.772,2.62-15.424,5.703c-5.881-6.127-13.401-10.861-21.431-13.627
				c-16.257-5.601-34.188-4.204-50.853,0.032c-0.955,0.243-2.028,0.592-2.431,1.491c-0.235,0.524-0.183,1.127-0.114,1.698
				c0.815,6.73,3.404,13.238,7.435,18.688c2.12,2.866,4.619,5.432,7.236,7.853c9.333,8.638,20.513,15.64,32.944,18.322
				c12.261,2.645,28.161-0.281,38.265-7.802c0.642,0.271,1.284,0.54,1.924,0.816c3.194,1.378,6.355,2.834,9.491,4.34
				c-6.985-1.121-14.419-0.25-21.033,2.329c-12.056,4.702-21.666,14.236-29.167,24.781c-0.43,0.604-0.876,1.327-0.669,2.039
				c0.12,0.415,0.444,0.736,0.761,1.03c3.745,3.465,8.399,5.939,13.367,7.104c2.612,0.612,5.296,0.867,7.976,0.983
				c9.562,0.412,19.388-1.014,27.827-5.528c7.324-3.918,14.167-11.683,17.162-19.784c0.33,6.795,0.999,13.572,2.127,20.066
				c-1.123,0.353-2.235,0.733-3.326,1.159c-15.483,6.039-27.825,18.283-37.458,31.826c-0.552,0.776-1.125,1.704-0.859,2.619
				c0.155,0.533,0.57,0.945,0.978,1.322c4.809,4.451,10.787,7.627,17.167,9.123c3.354,0.787,6.801,1.114,10.244,1.262
				c11.901,0.513,24.114-1.202,34.722-6.585c2.818,1.869,5.945,3.345,9.418,4.357c2.352,7.079,4.12,11.35,4.12,11.35
				c0.039,0.009,0.081,0.016,0.121,0.025c0.804,2.182,1.503,3.932,1.925,4.681c0.524,0.93,1.41,2.949,2.413,4.003
				c-2.17,5.868-4.196,11.785-6.105,17.739c-4.699-3.186-9.415-6.296-14.119-9.322c-37.524-24.137-80.864-37.319-123.576-50.217
				l-13.253-4.002c-1.615-0.488-2.912,1.377-1.891,2.72C58.917,407.147,80.607,434.692,109.095,454.081z M391.155,337.232
				c0.982-1.089,1.958-2.181,2.927-3.273c0.438,1.07,1.009,2.082,1.734,2.985c0.932,1.16,2.215,2.17,3.687,2.28
				c-2.151,1.47-4.256,3.009-6.282,4.648c-1.023,0.828-2.021,1.686-3.009,2.555c0.503-0.936,0.874-1.952,1.092-2.898
				C391.783,341.466,391.588,339.313,391.155,337.232z M382.014,347.104c0.462,0.499,0.965,0.957,1.52,1.352
				c0.975,0.694,2.179,1.205,3.347,1.04c-0.159,0.153-0.326,0.298-0.484,0.452c-1.49,1.458-2.913,2.981-4.305,4.533
				c-0.283-2.136-0.627-4.263-1.033-6.379C381.378,347.77,381.697,347.438,382.014,347.104z M377.785,395.863
				c3.627-6.597,4.806-14.264,5.154-21.784c0.291-6.29,0.029-12.604-0.755-18.852c1.236-1.395,2.499-2.766,3.816-4.086
				c0.869-0.872,1.767-1.715,2.67-2.552c1.035,4.36,4.669,8.795,8.598,10.896c4.003,2.142,8.664,2.818,13.201,2.622
				c1.272-0.055,2.545-0.176,3.784-0.466c0.598-0.14,1.186-0.321,1.761-0.539c-5.613,6.124-9.607,13.558-10.902,21.776
				c-0.139,0.883-0.237,1.807-0.1,2.679c-6.395,2.704-12.676,5.671-18.832,8.882c-1.465,0.638-2.877,1.387-4.226,2.251
				c-2.527,1.378-5.032,2.795-7.513,4.255C375.725,399.289,376.854,397.555,377.785,395.863z M357.476,235.176
				c0.009-0.059,0.02-0.117,0.028-0.175c0.031-0.203,0.048-0.327,0.048-0.327c-0.005,0-0.009,0.001-0.014,0.002
				c0.113-0.869,0.165-1.743,0.157-2.617c1.553-0.142,3.109-0.264,4.666-0.354c-0.047,0.041-0.097,0.08-0.144,0.121v0
				c-1.312,1.144-2.535,2.39-3.707,3.686c-0.387,0.096-0.767,0.218-1.149,0.33C357.409,235.585,357.446,235.365,357.476,235.176z
				 M336.544,395.121c0.495-4.659,0.906-9.056,1.249-13.268c1.468-0.045,2.88-0.158,4.234-0.339
				c0.004,0.613-0.001,1.226,0.029,1.839c0.362,7.526,2.791,15.052,7.51,20.926c2.503,3.116,5.939,5.854,9.884,6.188
				c-5.799,3.965-11.449,8.149-16.91,12.568c-1.554,1.257-3.092,2.534-4.617,3.827c-0.286-0.609-0.563-1.222-0.86-1.827
				c-0.107-0.218-0.221-0.431-0.33-0.648c0.238-0.771,0.446-1.535,0.619-2.281c1.436-6.205,0.632-12.718-0.815-18.921
				c-0.161-0.692-0.334-1.381-0.511-2.069C336.304,397.925,336.505,395.489,336.544,395.121z M151.54,329.19
				c-1.349-0.864-2.761-1.614-4.226-2.251c-6.156-3.211-12.437-6.178-18.832-8.882c0.137-0.873,0.039-1.796-0.101-2.679
				c-0.663-4.208-2.035-8.212-3.967-11.94c4.054,1.312,8.378,1.896,12.56,1.146c4.612-0.827,9.686-4.083,12.137-8.109
				c0.466,0.835,0.919,1.678,1.362,2.527c-0.058,2.525-0.037,5.052,0.08,7.575c0.329,7.105,1.402,14.34,4.578,20.68
				c0.005,1.307,0.017,2.618,0.043,3.932C153.969,330.509,152.753,329.852,151.54,329.19z M132.141,467.592
				c2.542,1.309,5.114,2.583,7.71,3.816c-0.767,1.794-1.425,3.634-1.941,5.516c-0.773,2.82-1.257,5.794-0.708,8.667
				c0.143,0.745,0.357,1.529,0.638,2.303c-0.718-0.81-1.452-1.606-2.195-2.393c-0.479-0.598-1.01-1.15-1.595-1.643
				c-1.826-1.848-3.713-3.634-5.676-5.335c0.157-0.307,0.234-0.66,0.288-1.005c0.813-5.12-1.182-10.323-4.607-14.278
				C126.729,464.731,129.42,466.191,132.141,467.592z"/>
			<path style="opacity:0.13;fill:#606060;" d="M132.999,496.638c-4.018,0.234-7.873,1.505-11.463,3.362h23.812
				C141.83,497.551,137.326,496.387,132.999,496.638z"/>
		</g>
		<g>
			<g>
				<g>
					<g>
						<path style="fill:#50A56C;" d="M332.168,373.894c-0.824-7.406-0.792-18.039-0.522-23.941
							c1.08-23.594,12.264-45.626,25.914-64.901c4.152-5.863,8.558-11.557,13.394-16.87c18.703-20.551,43.147-34.751,67.457-48.314
							c1.188-0.663,2.53,0.583,1.958,1.818l-4.694,10.128c-15.129,32.641-30.556,65.751-54.071,92.979
							C366.63,342.13,349.964,359.467,332.168,373.894"/>
					</g>
					<g>
						<g>
							<path style="fill:#388C5A;" d="M332.702,374.041c3.298-10.402,7.767-20.386,12.887-30.011
								c5.105-9.597,10.839-18.843,16.754-27.958c6.081-9.371,12.378-18.602,18.882-27.684c6.502-9.08,13.212-18.011,20.125-26.782
								c6.915-8.774,14.03-17.389,21.339-25.837c0.896-1.035,1.794-2.068,2.696-3.098c0.468-0.535-0.313-1.322-0.784-0.784
								c-7.384,8.441-14.577,17.049-21.567,25.82c-6.964,8.738-13.73,17.635-20.288,26.682c-6.583,9.08-12.957,18.311-19.115,27.685
								c-6.032,9.181-11.913,18.478-17.216,28.103c-5.243,9.518-9.915,19.379-13.483,29.653c-0.451,1.299-0.883,2.604-1.299,3.915
								C331.417,374.428,332.487,374.72,332.702,374.041L332.702,374.041z"/>
						</g>
						<g>
							<path style="fill:#388C5A;" d="M343.329,348.469c4.812-4.617,9.683-9.172,14.614-13.662
								c4.931-4.49,9.921-8.915,14.968-13.274c2.836-2.449,5.69-4.877,8.561-7.284c0.547-0.459-0.24-1.239-0.784-0.784
								c-5.11,4.285-10.165,8.635-15.162,13.052c-4.996,4.417-9.935,8.899-14.814,13.445c-2.741,2.554-5.464,5.129-8.167,7.724
								C342.03,348.181,342.814,348.964,343.329,348.469L343.329,348.469z"/>
						</g>
						<g>
							<path style="fill:#388C5A;" d="M351.015,333.538c0.18-5.846,0.678-11.684,1.509-17.474c0.825-5.752,1.967-11.459,3.42-17.085
								c0.826-3.197,1.752-6.367,2.776-9.506c0.222-0.68-0.848-0.971-1.069-0.295c-1.822,5.588-3.334,11.275-4.524,17.031
								c-1.191,5.76-2.061,11.588-2.609,17.444c-0.308,3.287-0.51,6.584-0.612,9.884
								C349.884,334.252,350.993,334.251,351.015,333.538L351.015,333.538z"/>
						</g>
						<g>
							<path style="fill:#388C5A;" d="M366.632,309.523c4.363-3.42,8.756-6.801,13.194-10.124c4.279-3.203,8.6-6.351,12.956-9.448
								c2.601-1.849,5.214-3.681,7.836-5.5c0.582-0.404,0.029-1.365-0.56-0.957c-4.577,3.175-9.126,6.39-13.632,9.666
								c-4.357,3.167-8.672,6.392-12.949,9.666c-2.555,1.956-5.097,3.929-7.629,5.914c-0.236,0.185-0.194,0.59,0,0.784
								C366.081,309.755,366.395,309.708,366.632,309.523L366.632,309.523z"/>
						</g>
						<g>
							<path style="fill:#388C5A;" d="M381.605,287.684c0.32-4.481,1.279-8.896,2.681-13.159c1.413-4.295,3.279-8.431,5.455-12.391
								c1.229-2.236,2.558-4.416,3.97-6.541c0.396-0.596-0.564-1.152-0.957-0.559c-2.539,3.822-4.814,7.825-6.712,12.004
								c-1.902,4.187-3.445,8.547-4.434,13.042c-0.551,2.504-0.929,5.047-1.112,7.605
								C380.446,288.396,381.555,288.392,381.605,287.684L381.605,287.684z"/>
						</g>
						<g>
							<path style="fill:#388C5A;" d="M395.042,269.93c1.521-0.747,3.109-1.352,4.623-2.114c1.664-0.837,3.195-1.961,4.744-2.991
								c3.236-2.149,6.438-4.348,9.661-6.515c1.926-1.295,3.86-2.578,5.807-3.839c0.597-0.386,0.042-1.346-0.559-0.957
								c-3.341,2.163-6.636,4.395-9.93,6.628c-1.628,1.104-3.257,2.206-4.893,3.297c-0.837,0.558-1.676,1.114-2.518,1.665
								c-0.766,0.502-1.522,1.032-2.326,1.47c-1.67,0.91-3.464,1.562-5.169,2.399C393.842,269.287,394.404,270.244,395.042,269.93
								L395.042,269.93z"/>
						</g>
						<g>
							<path style="fill:#388C5A;" d="M407.467,253.882c0.598-2.336,1.461-4.588,2.594-6.718c1.105-2.076,2.434-4.024,3.868-5.886
								c0.858-1.114,1.754-2.199,2.662-3.273c0.458-0.542-0.323-1.33-0.784-0.784c-3.173,3.757-6.169,7.684-8.053,12.264
								c-0.549,1.334-0.997,2.706-1.355,4.102C406.221,254.279,407.289,254.574,407.467,253.882L407.467,253.882z"/>
						</g>
					</g>
				</g>
				<g>
					<g>
						<path style="fill:#50A56C;" d="M227.959,480.252c-8.951,2.301-22.012,4.112-29.306,4.807
							c-29.159,2.779-58.158-7.121-84.201-20.528c-7.922-4.078-15.679-8.498-23.046-13.511
							c-28.489-19.39-50.178-46.934-71.061-74.425c-1.021-1.343,0.276-3.208,1.891-2.72l13.253,4.002
							c42.712,12.898,86.052,26.08,123.576,50.217C182.961,443.463,207.149,460.911,227.959,480.252"/>
					</g>
					<g>
						<g>
							<path style="fill:#388C5A;" d="M228.047,479.57c-13.346-2.24-26.383-5.99-39.093-10.603
								c-12.672-4.599-25.023-10.03-37.244-15.708c-12.564-5.837-24.994-11.962-37.278-18.368
								c-12.28-6.404-24.414-13.089-36.387-20.051c-11.976-6.964-23.793-14.202-35.438-21.707c-1.427-0.92-2.851-1.844-4.273-2.771
								c-0.738-0.482-1.569,0.614-0.826,1.099c11.65,7.599,23.471,14.933,35.457,21.99c11.942,7.031,24.043,13.791,36.293,20.27
								c12.295,6.503,24.739,12.724,37.319,18.654c12.323,5.809,24.762,11.413,37.503,16.25
								c12.599,4.782,25.521,8.802,38.757,11.397c1.674,0.328,3.352,0.632,5.034,0.914
								C228.746,481.081,228.918,479.716,228.047,479.57L228.047,479.57z"/>
						</g>
						<g>
							<path style="fill:#388C5A;" d="M194.799,470.971c-6.507-5.105-12.947-10.294-19.318-15.568
								c-6.371-5.273-12.673-10.63-18.903-16.069c-3.501-3.056-6.979-6.138-10.434-9.245c-0.659-0.592-1.48,0.511-0.826,1.099
								c6.15,5.53,12.372,10.979,18.664,16.346c6.293,5.367,12.656,10.651,19.087,15.851c3.613,2.922,7.249,5.816,10.905,8.685
								C194.671,472.617,195.496,471.517,194.799,470.971L194.799,470.971z"/>
						</g>
						<g>
							<path style="fill:#388C5A;" d="M175.128,464.132c-7.21,0.796-14.465,1.201-21.719,1.188
								c-7.206-0.013-14.412-0.422-21.573-1.227c-4.069-0.457-8.123-1.044-12.156-1.755c-0.873-0.154-1.045,1.211-0.176,1.364
								c7.178,1.265,14.425,2.132,21.699,2.592c7.28,0.46,14.587,0.514,21.874,0.168c4.09-0.194,8.173-0.519,12.243-0.968
								C176.201,465.396,176.007,464.034,175.128,464.132L175.128,464.132z"/>
						</g>
						<g>
							<path style="fill:#388C5A;" d="M142.922,449.134c-4.958-4.762-9.875-9.568-14.726-14.439
								c-4.678-4.697-9.295-9.455-13.856-14.265c-2.723-2.872-5.427-5.762-8.117-8.665c-0.597-0.645-1.681,0.202-1.078,0.854
								c4.695,5.067,9.435,10.094,14.24,15.057c4.647,4.799,9.357,9.536,14.122,14.218c2.846,2.797,5.711,5.575,8.589,8.339
								c0.268,0.257,0.758,0.135,0.962-0.136C143.304,449.77,143.191,449.392,142.922,449.134L142.922,449.134z"/>
						</g>
						<g>
							<path style="fill:#388C5A;" d="M113.501,434.547c-5.557,0.386-11.146-0.022-16.624-1.003
								c-5.52-0.988-10.923-2.56-16.164-4.543c-2.96-1.12-5.867-2.373-8.722-3.737c-0.8-0.382-1.316,0.893-0.52,1.273
								c5.135,2.453,10.445,4.549,15.907,6.153c5.472,1.607,11.094,2.743,16.785,3.175c3.171,0.241,6.36,0.263,9.532,0.042
								C114.577,435.847,114.38,434.486,113.501,434.547L113.501,434.547z"/>
						</g>
						<g>
							<path style="fill:#388C5A;" d="M89.364,421.137c-1.182-1.738-2.201-3.582-3.4-5.309c-1.318-1.898-2.964-3.581-4.497-5.305
								c-3.202-3.599-6.459-7.149-9.681-10.73c-1.925-2.139-3.837-4.291-5.725-6.463c-0.578-0.665-1.661,0.183-1.078,0.854
								c3.238,3.725,6.551,7.384,9.866,11.04c1.639,1.807,3.275,3.615,4.9,5.435c0.831,0.931,1.659,1.864,2.482,2.802
								c0.749,0.853,1.531,1.689,2.21,2.6c1.408,1.892,2.521,3.982,3.845,5.93C88.783,422.722,89.86,421.867,89.364,421.137
								L89.364,421.137z"/>
						</g>
						<g>
							<path style="fill:#388C5A;" d="M67.497,408.673c-2.973-0.328-5.888-0.995-8.7-2.016c-2.742-0.995-5.365-2.289-7.9-3.725
								c-1.518-0.859-3.005-1.772-4.482-2.699c-0.745-0.468-1.577,0.628-0.826,1.099c5.165,3.242,10.509,6.238,16.46,7.755
								c1.733,0.442,3.496,0.753,5.273,0.95C68.201,410.134,68.377,408.77,67.497,408.673L67.497,408.673z"/>
						</g>
					</g>
				</g>
				<g>
					<g>
						<path style="fill:#388C5A;" d="M342.376,407.443c7.485-0.803,14.093-8.044,17.721-14.641
							c3.627-6.597,4.806-14.264,5.154-21.784c0.706-15.241-1.787-30.622-7.269-44.859c-0.214-0.556-0.499-1.175-1.067-1.354
							c-0.535-0.169-1.097,0.127-1.576,0.419c-12.357,7.522-21.792,19.487-27,32.983c-2.712,7.029-4.333,14.56-3.971,22.086
							c0.362,7.526,2.791,15.052,7.51,20.925C334.51,404.494,338.173,407.36,342.376,407.443"/>
					</g>
					<g>
						<path style="fill:#388C5A;" d="M308.604,435.04c5.909-2.376,9.624-9.791,11.06-15.996c1.436-6.205,0.632-12.718-0.815-18.921
							c-2.931-12.57-8.498-24.52-16.236-34.85c-0.302-0.403-0.677-0.842-1.18-0.857c-0.475-0.014-0.864,0.356-1.187,0.704
							c-8.33,8.966-13.26,20.877-14.395,33.063c-0.592,6.347-0.178,12.851,1.847,18.895c2.025,6.044,5.735,11.612,10.928,15.309
							C301.522,434.449,305.163,435.939,308.604,435.04"/>
					</g>
					<g>
						<path style="fill:#388C5A;" d="M387.625,383.552c-0.526-1.151-0.401-2.484-0.204-3.734
							c2.678-16.985,16.859-30.641,33.116-36.241c16.257-5.601,34.188-4.203,50.853,0.032c0.955,0.243,2.028,0.592,2.431,1.491
							c0.235,0.524,0.183,1.127,0.114,1.698c-0.815,6.73-3.404,13.238-7.435,18.688c-2.12,2.866-4.62,5.432-7.236,7.853
							c-9.333,8.638-20.513,15.64-32.944,18.322C413.888,394.342,397.704,391.307,387.625,383.552"/>
					</g>
					<g>
						<path style="fill:#388C5A;" d="M359.319,398.258c0.258-0.917,0.98-1.621,1.701-2.242c9.807-8.443,24.595-9.374,36.651-4.671
							c12.056,4.702,21.666,14.236,29.167,24.781c0.43,0.604,0.876,1.327,0.669,2.039c-0.121,0.415-0.444,0.736-0.761,1.03
							c-3.745,3.466-8.399,5.939-13.367,7.104c-2.612,0.612-5.296,0.868-7.976,0.983c-9.562,0.412-19.388-1.014-27.827-5.528
							C369.137,417.238,361.327,407.616,359.319,398.258"/>
					</g>
					<g>
						<path style="fill:#388C5A;" d="M312.357,432.073c0.332-1.177,1.258-2.082,2.185-2.88c12.595-10.843,31.587-12.038,47.07-5.999
							c15.483,6.039,27.825,18.283,37.458,31.826c0.552,0.776,1.125,1.704,0.859,2.619c-0.155,0.533-0.57,0.945-0.978,1.322
							c-4.809,4.451-10.787,7.627-17.167,9.123c-3.354,0.786-6.801,1.114-10.243,1.262c-12.28,0.529-24.899-1.302-35.737-7.1
							C324.965,456.449,314.936,444.091,312.357,432.073"/>
					</g>
					<g>
						<path style="fill:#125E31;" d="M288.761,457.906c5.219-6.342,10.739-12.435,16.539-18.25
							c5.774-5.79,11.827-11.3,18.124-16.516c6.325-5.24,12.897-10.181,19.687-14.803c6.764-4.605,13.744-8.892,20.911-12.841
							c7.189-3.96,14.573-7.57,22.109-10.82c0.925-0.399,1.853-0.792,2.783-1.181c0.919-0.384,0.357-1.825-0.565-1.441
							c-7.607,3.177-15.061,6.718-22.328,10.609c-7.272,3.894-14.363,8.124-21.236,12.685c-6.869,4.558-13.524,9.44-19.933,14.626
							c-6.413,5.189-12.579,10.683-18.476,16.452c-5.893,5.764-11.511,11.809-16.824,18.113c-0.669,0.794-1.333,1.592-1.993,2.393
							C286.924,457.702,288.128,458.674,288.761,457.906L288.761,457.906z"/>
						<g>
							<path style="fill:#125E31;" d="M342.759,407.494c0.907-9.532,1.307-19.099,1.907-28.652c0.298-4.747,0.668-9.487,1.133-14.22
								c0.411-4.189,0.88-8.382,1.741-12.507c0.966-4.627,2.456-9.18,4.883-13.258c0.251-0.422-0.361-0.897-0.616-0.469
								c-4.355,7.318-5.708,15.855-6.579,24.198c-0.986,9.439-1.486,18.908-2.034,28.379c-0.317,5.481-0.681,10.959-1.201,16.425
								C341.945,407.886,342.712,407.991,342.759,407.494L342.759,407.494z"/>
						</g>
						<g>
							<path style="fill:#125E31;" d="M308.928,434.994c-1.454-7.969-3.329-15.85-5.038-23.766
								c-0.849-3.933-1.638-7.877-2.349-11.838c-0.629-3.505-1.211-7.027-1.459-10.583c-0.278-3.989-0.112-8.039,0.926-11.917
								c0.108-0.402-0.5-0.647-0.609-0.24c-1.863,6.96-1,14.222,0.209,21.214c1.368,7.911,3.139,15.736,4.871,23.573
								c1.003,4.535,1.967,9.079,2.8,13.649C308.355,435.5,309.003,435.409,308.928,434.994L308.928,434.994z"/>
						</g>
						<g>
							<path style="fill:#125E31;" d="M387.766,383.912c9.453-3.226,18.832-6.669,28.131-10.315
								c9.421-3.694,18.761-7.595,27.99-11.745c5.037-2.265,10.04-4.606,14.999-7.037c0.444-0.218,0.166-0.94-0.282-0.72
								c-8.967,4.396-18.075,8.5-27.273,12.386c-9.322,3.939-18.739,7.654-28.232,11.161c-5.181,1.914-10.386,3.765-15.614,5.549
								C387.012,383.353,387.295,384.073,387.766,383.912L387.766,383.912z"/>
						</g>
						<g>
							<path style="fill:#125E31;" d="M359.225,398.533c6.996,2.752,14.054,5.343,21.166,7.779
								c7.205,2.468,14.465,4.778,21.782,6.89c3.993,1.153,8.004,2.246,12.034,3.265c0.361,0.091,0.553-0.459,0.189-0.551
								c-7.286-1.844-14.512-3.924-21.683-6.173c-7.268-2.279-14.481-4.733-21.636-7.342c-3.906-1.425-7.794-2.897-11.663-4.419
								C359.064,397.845,358.877,398.396,359.225,398.533L359.225,398.533z"/>
						</g>
						<g>
							<path style="fill:#125E31;" d="M312.236,432.427c8.984,3.534,18.049,6.862,27.182,9.991
								c9.253,3.169,18.576,6.136,27.973,8.848c5.129,1.481,10.28,2.884,15.454,4.194c0.464,0.117,0.71-0.589,0.242-0.707
								c-9.357-2.368-18.637-5.04-27.846-7.928c-9.333-2.927-18.597-6.078-27.786-9.43c-5.016-1.83-10.009-3.721-14.978-5.675
								C312.03,431.543,311.789,432.251,312.236,432.427L312.236,432.427z"/>
						</g>
					</g>
				</g>
				<g>
					<g>
						<path style="fill:#388C5A;" d="M382.033,335.912c2.746-0.295,5.17-2.951,6.5-5.371c1.331-2.42,1.763-5.232,1.891-7.991
							c0.259-5.591-0.655-11.233-2.667-16.456c-0.078-0.204-0.183-0.431-0.391-0.497c-0.196-0.062-0.402,0.047-0.578,0.154
							c-4.533,2.759-7.994,7.148-9.904,12.099c-0.995,2.578-1.589,5.341-1.457,8.102c0.133,2.761,1.024,5.521,2.755,7.676
							C379.148,334.831,380.492,335.882,382.033,335.912"/>
					</g>
					<g>
						<path style="fill:#388C5A;" d="M369.645,346.036c2.168-0.871,3.53-3.592,4.057-5.868c0.527-2.276,0.232-4.665-0.299-6.941
							c-1.075-4.611-3.117-8.995-5.956-12.784c-0.111-0.148-0.248-0.309-0.433-0.314c-0.174-0.005-0.317,0.13-0.435,0.258
							c-3.056,3.289-4.864,7.658-5.281,12.129c-0.217,2.328-0.065,4.714,0.677,6.931c0.743,2.217,2.104,4.26,4.009,5.616
							C367.047,345.819,368.383,346.366,369.645,346.036"/>
					</g>
					<g>
						<path style="fill:#388C5A;" d="M398.632,327.148c-0.193-0.422-0.147-0.911-0.075-1.37c0.982-6.23,6.184-11.24,12.148-13.294
							c5.963-2.054,12.541-1.542,18.654,0.012c0.35,0.089,0.744,0.217,0.892,0.547c0.086,0.192,0.067,0.414,0.042,0.623
							c-0.299,2.469-1.249,4.856-2.727,6.855c-0.778,1.051-1.695,1.992-2.654,2.881c-3.424,3.169-7.525,5.737-12.085,6.721
							C408.266,331.106,402.329,329.993,398.632,327.148"/>
					</g>
					<g>
						<path style="fill:#388C5A;" d="M388.249,332.543c0.095-0.336,0.359-0.595,0.624-0.823c3.598-3.097,9.022-3.439,13.445-1.714
							c4.423,1.725,7.948,5.222,10.699,9.091c0.158,0.222,0.321,0.487,0.245,0.748c-0.044,0.152-0.163,0.27-0.279,0.378
							c-1.374,1.271-3.081,2.179-4.903,2.606c-0.958,0.225-1.943,0.318-2.926,0.361c-3.508,0.151-7.112-0.372-10.208-2.028
							C391.85,339.505,388.985,335.976,388.249,332.543"/>
					</g>
					<g>
						<path style="fill:#388C5A;" d="M371.022,344.947c0.122-0.432,0.461-0.764,0.802-1.056c4.62-3.977,11.587-4.416,17.267-2.201
							c5.68,2.215,10.207,6.707,13.741,11.675c0.202,0.285,0.413,0.625,0.315,0.961c-0.057,0.196-0.209,0.347-0.359,0.485
							c-1.764,1.633-3.957,2.798-6.297,3.347c-1.23,0.289-2.495,0.409-3.758,0.463c-4.505,0.194-9.134-0.478-13.109-2.604
							C375.647,353.889,371.968,349.356,371.022,344.947"/>
					</g>
					<g>
						<path style="fill:#125E31;" d="M362.366,354.423c1.914-2.327,3.939-4.561,6.067-6.695c2.118-2.124,4.338-4.145,6.648-6.059
							c2.32-1.922,4.731-3.735,7.222-5.43c2.481-1.689,5.042-3.262,7.671-4.71c2.637-1.453,5.346-2.777,8.11-3.969
							c0.339-0.146,0.68-0.291,1.021-0.433c0.337-0.141,0.131-0.67-0.207-0.529c-2.79,1.165-5.525,2.464-8.191,3.892
							c-2.668,1.428-5.269,2.98-7.79,4.653c-2.52,1.672-4.961,3.463-7.312,5.365c-2.353,1.904-4.614,3.919-6.778,6.035
							c-2.162,2.115-4.223,4.332-6.172,6.644c-0.245,0.291-0.489,0.584-0.731,0.878
							C361.692,354.349,362.134,354.706,362.366,354.423L362.366,354.423z"/>
						<g>
							<path style="fill:#125E31;" d="M382.174,335.931c0.333-3.497,0.479-7.006,0.699-10.51c0.109-1.741,0.245-3.48,0.415-5.216
								c0.151-1.537,0.323-3.075,0.639-4.588c0.354-1.697,0.901-3.367,1.791-4.863c0.092-0.155-0.132-0.329-0.226-0.172
								c-1.598,2.685-2.094,5.816-2.414,8.876c-0.362,3.462-0.545,6.936-0.746,10.41c-0.116,2.011-0.25,4.02-0.44,6.025
								C381.875,336.075,382.157,336.113,382.174,335.931L382.174,335.931z"/>
						</g>
						<g>
							<path style="fill:#125E31;" d="M369.764,346.019c-0.533-2.923-1.221-5.814-1.848-8.718c-0.311-1.443-0.601-2.89-0.861-4.342
								c-0.231-1.286-0.444-2.578-0.535-3.882c-0.102-1.463-0.041-2.949,0.34-4.371c0.039-0.147-0.184-0.238-0.223-0.088
								c-0.683,2.553-0.367,5.217,0.077,7.782c0.502,2.902,1.151,5.772,1.787,8.647c0.368,1.664,0.721,3.331,1.027,5.007
								C369.554,346.204,369.792,346.171,369.764,346.019L369.764,346.019z"/>
						</g>
						<g>
							<path style="fill:#125E31;" d="M398.684,327.281c3.468-1.184,6.908-2.446,10.319-3.784c3.456-1.355,6.882-2.786,10.267-4.309
								c1.848-0.831,3.683-1.69,5.502-2.581c0.163-0.08,0.061-0.345-0.103-0.264c-3.289,1.613-6.63,3.118-10.005,4.544
								c-3.42,1.445-6.874,2.808-10.356,4.094c-1.901,0.702-3.81,1.381-5.728,2.036C398.407,327.076,398.511,327.34,398.684,327.281
								L398.684,327.281z"/>
						</g>
						<g>
							<path style="fill:#125E31;" d="M388.214,332.644c2.566,1.009,5.155,1.96,7.764,2.854c2.643,0.905,5.306,1.753,7.99,2.527
								c1.465,0.423,2.936,0.824,4.414,1.198c0.133,0.033,0.203-0.168,0.069-0.202c-2.673-0.676-5.323-1.439-7.954-2.264
								c-2.666-0.836-5.312-1.736-7.937-2.693c-1.433-0.523-2.859-1.063-4.278-1.621
								C388.155,332.391,388.086,332.594,388.214,332.644L388.214,332.644z"/>
						</g>
						<g>
							<path style="fill:#125E31;" d="M370.977,345.077c3.296,1.296,6.621,2.517,9.971,3.665c3.394,1.163,6.814,2.251,10.261,3.246
								c1.881,0.543,3.771,1.058,5.669,1.538c0.17,0.043,0.26-0.216,0.089-0.259c-3.432-0.869-6.836-1.849-10.215-2.908
								c-3.424-1.074-6.822-2.229-10.193-3.459c-1.84-0.671-3.672-1.365-5.494-2.082
								C370.902,344.753,370.813,345.013,370.977,345.077L370.977,345.077z"/>
						</g>
					</g>
				</g>
				<g>
					<g>
						<path style="fill:#388C5A;" d="M366.634,486.664c2.765-0.297,5.206-2.971,6.546-5.408c1.34-2.437,1.775-5.269,1.904-8.046
							c0.261-5.629-0.66-11.311-2.685-16.57c-0.079-0.205-0.184-0.434-0.394-0.5c-0.198-0.062-0.405,0.047-0.582,0.155
							c-4.564,2.779-8.049,7.198-9.973,12.183c-1.002,2.596-1.6,5.378-1.467,8.158c0.134,2.78,1.031,5.56,2.774,7.729
							C363.729,485.575,365.082,486.633,366.634,486.664"/>
					</g>
					<g>
						<path style="fill:#388C5A;" d="M354.16,496.857c2.183-0.878,3.555-3.616,4.085-5.908c0.531-2.292,0.233-4.698-0.301-6.989
							c-1.083-4.643-3.139-9.057-5.997-12.873c-0.112-0.149-0.25-0.311-0.436-0.316c-0.175-0.005-0.319,0.131-0.438,0.26
							c-3.077,3.312-4.898,7.711-5.317,12.213c-0.219,2.344-0.066,4.747,0.682,6.979c0.748,2.232,2.118,4.289,4.036,5.655
							C351.544,496.639,352.889,497.19,354.16,496.857"/>
					</g>
					<g>
						<path style="fill:#388C5A;" d="M383.348,477.839c-0.194-0.425-0.148-0.918-0.075-1.379
							c0.989-6.274,6.227-11.318,12.232-13.386c6.005-2.069,12.628-1.553,18.784,0.012c0.353,0.09,0.749,0.219,0.898,0.551
							c0.087,0.194,0.068,0.416,0.042,0.627c-0.301,2.486-1.257,4.89-2.746,6.903c-0.783,1.059-1.706,2.006-2.673,2.901
							c-3.447,3.191-7.577,5.777-12.169,6.768C393.049,481.825,387.071,480.704,383.348,477.839"/>
					</g>
					<g>
						<path style="fill:#388C5A;" d="M372.893,483.271c0.095-0.339,0.362-0.599,0.628-0.828c3.622-3.119,9.085-3.462,13.538-1.725
							c4.453,1.737,8.003,5.258,10.773,9.154c0.159,0.223,0.324,0.49,0.247,0.753c-0.045,0.153-0.164,0.272-0.281,0.38
							c-1.383,1.28-3.102,2.194-4.937,2.624c-0.965,0.226-1.956,0.32-2.946,0.363c-3.532,0.152-7.161-0.374-10.279-2.042
							C376.519,490.282,373.635,486.728,372.893,483.271"/>
					</g>
					<g>
						<path style="fill:#388C5A;" d="M355.546,495.762c0.123-0.435,0.465-0.769,0.807-1.064c4.652-4.005,11.667-4.447,17.386-2.216
							c5.719,2.231,10.278,6.753,13.836,11.756c0.204,0.287,0.415,0.63,0.317,0.967c-0.057,0.197-0.211,0.349-0.361,0.488
							c-1.777,1.644-3.985,2.817-6.341,3.37c-1.239,0.29-2.512,0.411-3.784,0.466c-4.536,0.195-9.197-0.481-13.2-2.622
							C360.203,504.765,356.499,500.201,355.546,495.762"/>
					</g>
					<g>
						<path style="fill:#125E31;" d="M346.831,505.303c1.928-2.343,3.967-4.593,6.109-6.741c2.133-2.138,4.369-4.174,6.695-6.101
							c2.336-1.935,4.764-3.761,7.272-5.468c2.498-1.701,5.077-3.285,7.724-4.743c2.655-1.463,5.383-2.796,8.166-3.997
							c0.342-0.147,0.684-0.293,1.028-0.436c0.339-0.142,0.132-0.674-0.209-0.532c-2.81,1.174-5.563,2.481-8.248,3.919
							c-2.686,1.438-5.305,3.001-7.844,4.685c-2.537,1.684-4.995,3.487-7.363,5.402c-2.369,1.917-4.646,3.946-6.825,6.077
							c-2.177,2.129-4.252,4.362-6.214,6.69c-0.247,0.293-0.492,0.588-0.736,0.884C346.152,505.228,346.597,505.587,346.831,505.303
							L346.831,505.303z"/>
						<g>
							<path style="fill:#125E31;" d="M366.776,486.683c0.335-3.521,0.483-7.054,0.704-10.583c0.11-1.753,0.247-3.504,0.418-5.252
								c0.152-1.547,0.325-3.096,0.643-4.62c0.357-1.709,0.907-3.391,1.803-4.897c0.093-0.156-0.133-0.331-0.228-0.173
								c-1.609,2.703-2.108,5.857-2.43,8.938c-0.364,3.486-0.549,6.984-0.751,10.482c-0.117,2.024-0.251,4.048-0.443,6.067
								C366.475,486.828,366.758,486.866,366.776,486.683L366.776,486.683z"/>
						</g>
						<g>
							<path style="fill:#125E31;" d="M354.28,496.84c-0.537-2.944-1.23-5.854-1.861-8.779c-0.314-1.453-0.605-2.91-0.867-4.373
								c-0.232-1.295-0.447-2.596-0.539-3.909c-0.103-1.474-0.042-2.969,0.342-4.402c0.04-0.148-0.185-0.239-0.225-0.089
								c-0.688,2.571-0.369,5.253,0.077,7.836c0.505,2.922,1.16,5.812,1.799,8.707c0.37,1.675,0.726,3.354,1.034,5.042
								C354.068,497.027,354.308,496.994,354.28,496.84L354.28,496.84z"/>
						</g>
						<g>
							<path style="fill:#125E31;" d="M383.4,477.972c3.492-1.192,6.956-2.463,10.391-3.81c3.48-1.364,6.93-2.805,10.339-4.338
								c1.861-0.837,3.708-1.701,5.54-2.599c0.164-0.081,0.061-0.347-0.104-0.266c-3.312,1.624-6.676,3.14-10.074,4.575
								c-3.443,1.455-6.922,2.827-10.428,4.123c-1.914,0.707-3.837,1.391-5.768,2.05C383.122,477.766,383.227,478.032,383.4,477.972
								L383.4,477.972z"/>
						</g>
						<g>
							<path style="fill:#125E31;" d="M372.858,483.373c2.584,1.016,5.191,1.974,7.818,2.873c2.661,0.912,5.343,1.765,8.046,2.545
								c1.475,0.426,2.957,0.829,4.445,1.206c0.133,0.034,0.204-0.169,0.07-0.203c-2.691-0.681-5.36-1.449-8.009-2.28
								c-2.684-0.842-5.349-1.748-7.992-2.712c-1.443-0.526-2.879-1.07-4.308-1.632
								C372.799,483.118,372.729,483.322,372.858,483.373L372.858,483.373z"/>
						</g>
						<g>
							<path style="fill:#125E31;" d="M355.502,495.892c3.319,1.305,6.667,2.535,10.04,3.69c3.418,1.171,6.862,2.266,10.333,3.268
								c1.894,0.547,3.797,1.065,5.708,1.549c0.171,0.043,0.262-0.218,0.09-0.261c-3.456-0.875-6.884-1.862-10.286-2.928
								c-3.447-1.081-6.869-2.245-10.263-3.483c-1.853-0.676-3.697-1.374-5.532-2.096
								C355.425,495.566,355.336,495.827,355.502,495.892L355.502,495.892z"/>
						</g>
					</g>
				</g>
				<g>
					<g>
						<path style="fill:#388C5A;" d="M155.737,339.94c-7.485-0.803-14.093-8.044-17.721-14.641
							c-3.628-6.597-4.806-14.264-5.154-21.784c-0.706-15.24,1.787-30.622,7.269-44.859c0.214-0.556,0.499-1.175,1.067-1.354
							c0.535-0.169,1.097,0.127,1.576,0.419c12.357,7.522,21.792,19.487,26.999,32.983c2.713,7.029,4.333,14.56,3.971,22.086
							c-0.362,7.526-2.791,15.052-7.51,20.926C163.603,336.992,159.94,339.858,155.737,339.94"/>
					</g>
					<g>
						<path style="fill:#388C5A;" d="M189.509,367.538c-5.909-2.376-9.624-9.791-11.06-15.996
							c-1.436-6.205-0.632-12.718,0.815-18.921c2.931-12.57,8.498-24.52,16.237-34.85c0.302-0.403,0.676-0.842,1.18-0.857
							c0.475-0.014,0.864,0.356,1.187,0.704c8.33,8.966,13.259,20.877,14.395,33.063c0.591,6.347,0.178,12.851-1.847,18.895
							c-2.025,6.044-5.735,11.612-10.928,15.309C196.591,366.947,192.95,368.437,189.509,367.538"/>
					</g>
					<g>
						<path style="fill:#388C5A;" d="M110.488,316.05c0.526-1.151,0.401-2.484,0.204-3.734
							c-2.677-16.985-16.859-30.641-33.116-36.241c-16.257-5.601-34.188-4.203-50.853,0.032c-0.955,0.243-2.028,0.592-2.431,1.491
							c-0.235,0.524-0.183,1.127-0.114,1.698c0.815,6.73,3.404,13.238,7.435,18.688c2.12,2.866,4.619,5.432,7.236,7.853
							c9.333,8.638,20.513,15.64,32.944,18.322C84.225,326.84,100.409,323.805,110.488,316.05"/>
					</g>
					<g>
						<path style="fill:#388C5A;" d="M138.794,330.756c-0.258-0.917-0.979-1.621-1.701-2.242
							c-9.807-8.443-24.595-9.374-36.651-4.671c-12.056,4.702-21.666,14.236-29.167,24.781c-0.43,0.604-0.876,1.327-0.669,2.039
							c0.121,0.415,0.444,0.736,0.761,1.03c3.745,3.465,8.399,5.939,13.367,7.104c2.612,0.612,5.296,0.867,7.976,0.983
							c9.562,0.412,19.388-1.014,27.827-5.528C128.977,349.736,136.786,340.114,138.794,330.756"/>
					</g>
					<g>
						<path style="fill:#388C5A;" d="M185.756,364.571c-0.332-1.177-1.258-2.082-2.185-2.88
							c-12.595-10.843-31.587-12.038-47.07-5.999c-15.483,6.039-27.825,18.283-37.458,31.826c-0.552,0.776-1.125,1.704-0.859,2.619
							c0.155,0.533,0.57,0.945,0.978,1.322c4.809,4.451,10.787,7.627,17.167,9.123c3.354,0.786,6.801,1.114,10.244,1.262
							c12.28,0.529,24.899-1.302,35.737-7.1C173.148,388.947,183.177,376.589,185.756,364.571"/>
					</g>
					<g>
						<path style="fill:#125E31;" d="M209.352,390.404c-5.219-6.342-10.739-12.435-16.539-18.25
							c-5.774-5.79-11.827-11.3-18.124-16.516c-6.325-5.24-12.897-10.181-19.687-14.803c-6.764-4.605-13.744-8.892-20.911-12.841
							c-7.189-3.96-14.573-7.57-22.109-10.82c-0.925-0.399-1.853-0.792-2.783-1.181c-0.919-0.384-0.356-1.825,0.564-1.441
							c7.607,3.177,15.061,6.718,22.329,10.609c7.272,3.894,14.363,8.124,21.236,12.685c6.869,4.558,13.524,9.44,19.932,14.626
							c6.413,5.189,12.579,10.683,18.476,16.452c5.893,5.765,11.511,11.809,16.824,18.113c0.669,0.794,1.333,1.592,1.993,2.393
							C211.188,390.2,209.985,391.172,209.352,390.404L209.352,390.404z"/>
						<g>
							<path style="fill:#125E31;" d="M155.354,339.992c-0.907-9.532-1.307-19.099-1.907-28.652
								c-0.298-4.747-0.668-9.487-1.133-14.22c-0.411-4.189-0.88-8.383-1.741-12.507c-0.966-4.627-2.456-9.18-4.883-13.258
								c-0.251-0.422,0.361-0.897,0.616-0.468c4.355,7.318,5.708,15.855,6.579,24.198c0.986,9.439,1.486,18.908,2.034,28.379
								c0.317,5.481,0.681,10.96,1.201,16.425C156.168,340.384,155.401,340.489,155.354,339.992L155.354,339.992z"/>
						</g>
						<g>
							<path style="fill:#125E31;" d="M189.185,367.492c1.454-7.969,3.329-15.85,5.038-23.766c0.849-3.933,1.638-7.877,2.348-11.838
								c0.629-3.505,1.211-7.027,1.459-10.583c0.278-3.989,0.112-8.039-0.926-11.917c-0.108-0.402,0.5-0.647,0.609-0.24
								c1.863,6.96,1,14.222-0.209,21.214c-1.368,7.911-3.139,15.736-4.872,23.573c-1.003,4.535-1.967,9.079-2.8,13.649
								C189.758,367.998,189.11,367.907,189.185,367.492L189.185,367.492z"/>
						</g>
						<g>
							<path style="fill:#125E31;" d="M110.347,316.41c-9.453-3.226-18.832-6.669-28.131-10.315
								c-9.421-3.694-18.761-7.595-27.99-11.745c-5.037-2.265-10.04-4.606-14.999-7.037c-0.444-0.218-0.166-0.94,0.282-0.72
								c8.966,4.396,18.075,8.5,27.273,12.386c9.322,3.939,18.739,7.654,28.231,11.161c5.182,1.914,10.386,3.765,15.614,5.549
								C111.102,315.851,110.818,316.571,110.347,316.41L110.347,316.41z"/>
						</g>
						<g>
							<path style="fill:#125E31;" d="M138.888,331.031c-6.996,2.752-14.054,5.343-21.166,7.779
								c-7.205,2.468-14.465,4.777-21.782,6.89c-3.993,1.153-8.004,2.246-12.034,3.265c-0.361,0.091-0.553-0.459-0.189-0.551
								c7.286-1.844,14.511-3.924,21.682-6.173c7.268-2.279,14.481-4.732,21.636-7.342c3.906-1.425,7.794-2.897,11.663-4.419
								C139.049,330.343,139.236,330.894,138.888,331.031L138.888,331.031z"/>
						</g>
						<g>
							<path style="fill:#125E31;" d="M185.877,364.925c-8.984,3.534-18.049,6.862-27.182,9.991
								c-9.253,3.169-18.576,6.136-27.973,8.848c-5.129,1.481-10.279,2.884-15.454,4.194c-0.464,0.117-0.71-0.589-0.243-0.707
								c9.357-2.368,18.637-5.04,27.846-7.928c9.333-2.927,18.597-6.078,27.786-9.43c5.016-1.83,10.009-3.721,14.978-5.675
								C186.083,364.041,186.324,364.749,185.877,364.925L185.877,364.925z"/>
						</g>
					</g>
				</g>
				<g>
					<g>
						<path style="fill:#388C5A;" d="M123.427,280.486c-2.669-1.194-4.243-4.662-4.792-7.534c-0.549-2.872-0.066-5.846,0.707-8.667
							c1.566-5.715,4.331-11.1,8.064-15.703c0.146-0.18,0.325-0.374,0.557-0.372c0.218,0.002,0.39,0.178,0.532,0.344
							c3.664,4.261,5.715,9.812,6.021,15.423c0.159,2.922-0.145,5.899-1.181,8.636c-1.036,2.737-2.836,5.227-5.284,6.831
							C126.687,280.339,124.99,280.959,123.427,280.486"/>
					</g>
					<g>
						<path style="fill:#388C5A;" d="M132.596,294.731c-1.898-1.586-2.382-4.771-2.168-7.236c0.213-2.465,1.291-4.775,2.569-6.893
							c2.59-4.293,6.079-8.04,10.177-10.93c0.16-0.113,0.351-0.23,0.539-0.175c0.177,0.052,0.276,0.235,0.354,0.402
							c2.003,4.311,2.396,9.303,1.355,13.942c-0.542,2.416-1.475,4.769-2.948,6.76c-1.473,1.99-3.511,3.603-5.873,4.346
							C135.284,295.362,133.76,295.476,132.596,294.731"/>
					</g>
					<g>
						<path style="fill:#388C5A;" d="M109.573,266.234c0.332-0.362,0.446-0.87,0.523-1.355c1.047-6.596-2.555-13.342-7.89-17.36
							c-5.335-4.018-12.128-5.652-18.793-6.085c-0.382-0.025-0.82-0.024-1.077,0.26c-0.15,0.166-0.203,0.395-0.246,0.614
							c-0.506,2.584-0.329,5.299,0.507,7.796c0.44,1.313,1.056,2.561,1.732,3.769c2.413,4.31,5.704,8.238,9.975,10.719
							C98.576,267.072,104.919,267.891,109.573,266.234"/>
					</g>
					<g>
						<path style="fill:#388C5A;" d="M118.268,275.061c0.014-0.37-0.168-0.716-0.36-1.032c-2.611-4.295-7.963-6.412-12.982-6.12
							c-5.018,0.292-9.712,2.662-13.747,5.659c-0.231,0.172-0.483,0.385-0.492,0.673c-0.005,0.168,0.076,0.325,0.158,0.472
							c0.968,1.729,2.391,3.201,4.087,4.227c0.892,0.539,1.853,0.955,2.829,1.319c3.484,1.299,7.285,1.95,10.944,1.294
							C112.365,280.897,116.404,278.278,118.268,275.061"/>
					</g>
					<g>
						<path style="fill:#388C5A;" d="M131.565,293.185c0.018-0.475-0.215-0.92-0.462-1.326c-3.354-5.516-10.227-8.235-16.672-7.86
							s-12.473,3.419-17.655,7.268c-0.297,0.221-0.62,0.495-0.631,0.865c-0.007,0.216,0.097,0.418,0.203,0.606
							c1.243,2.221,3.071,4.111,5.249,5.429c1.145,0.693,2.379,1.227,3.633,1.694c4.474,1.668,9.356,2.504,14.055,1.661
							C123.984,300.68,129.172,297.316,131.565,293.185"/>
					</g>
					<g>
						<path style="fill:#125E31;" d="M137.186,305.558c-1.168-2.969-2.477-5.882-3.923-8.726c-1.439-2.831-3.015-5.593-4.716-8.275
							c-1.709-2.694-3.545-5.308-5.499-7.83c-1.947-2.512-4.012-4.933-6.187-7.251c-2.181-2.325-4.477-4.544-6.871-6.648
							c-0.294-0.258-0.59-0.515-0.887-0.77c-0.293-0.252,0.087-0.717,0.381-0.465c2.43,2.086,4.759,4.288,6.978,6.597
							c2.22,2.31,4.333,4.724,6.325,7.233c1.992,2.508,3.865,5.109,5.611,7.794c1.747,2.686,3.367,5.455,4.854,8.294
							c1.486,2.836,2.837,5.743,4.045,8.709c0.152,0.374,0.302,0.748,0.449,1.123C137.889,305.703,137.328,305.918,137.186,305.558
							L137.186,305.558z"/>
						<g>
							<path style="fill:#125E31;" d="M123.279,280.459c0.808-3.631,1.807-7.213,2.731-10.815c0.459-1.789,0.89-3.585,1.286-5.39
								c0.35-1.597,0.68-3.203,0.856-4.83c0.198-1.825,0.193-3.686-0.214-5.484c-0.042-0.186,0.241-0.288,0.284-0.099
								c0.732,3.226,0.208,6.542-0.47,9.729c-0.767,3.605-1.718,7.164-2.651,10.729c-0.54,2.063-1.063,4.131-1.526,6.213
								C123.533,280.701,123.237,280.648,123.279,280.459L123.279,280.459z"/>
						</g>
						<g>
							<path style="fill:#125E31;" d="M132.482,294.675c1.493-2.77,3.13-5.457,4.711-8.177c0.785-1.351,1.55-2.714,2.287-4.092
								c0.653-1.22,1.29-2.451,1.808-3.735c0.581-1.441,1.005-2.957,1.087-4.514c0.008-0.161,0.262-0.179,0.254-0.016
								c-0.146,2.795-1.335,5.374-2.621,7.813c-1.454,2.759-3.046,5.438-4.626,8.125c-0.914,1.555-1.815,3.119-2.671,4.707
								C132.633,294.931,132.404,294.82,132.482,294.675L132.482,294.675z"/>
						</g>
						<g>
							<path style="fill:#125E31;" d="M109.478,266.35c-3.106-2.325-6.158-4.722-9.157-7.184c-3.038-2.494-6.021-5.055-8.933-7.695
								c-1.589-1.441-3.157-2.906-4.698-4.398c-0.138-0.134,0.051-0.367,0.191-0.232c2.786,2.699,5.659,5.307,8.592,7.846
								c2.972,2.573,6.006,5.075,9.093,7.508c1.685,1.328,3.386,2.636,5.104,3.922C109.823,266.234,109.632,266.466,109.478,266.35
								L109.478,266.35z"/>
						</g>
						<g>
							<path style="fill:#125E31;" d="M118.27,275.174c-2.915,0.178-5.833,0.289-8.753,0.337c-2.958,0.048-5.917,0.031-8.874-0.066
								c-1.614-0.053-3.227-0.13-4.838-0.236c-0.144-0.01-0.149-0.236-0.004-0.226c2.913,0.192,5.832,0.29,8.751,0.319
								c2.958,0.029,5.918-0.012,8.874-0.119c1.614-0.058,3.227-0.136,4.839-0.234C118.412,274.939,118.415,275.165,118.27,275.174
								L118.27,275.174z"/>
						</g>
						<g>
							<path style="fill:#125E31;" d="M131.568,293.33c-3.743,0.228-7.491,0.371-11.241,0.432c-3.799,0.062-7.599,0.04-11.396-0.085
								c-2.072-0.068-4.144-0.167-6.213-0.303c-0.186-0.012-0.192-0.303-0.005-0.29c3.741,0.247,7.49,0.372,11.239,0.409
								c3.799,0.038,7.6-0.016,11.397-0.153c2.073-0.075,4.144-0.175,6.214-0.301C131.75,293.028,131.754,293.319,131.568,293.33
								L131.568,293.33z"/>
						</g>
					</g>
				</g>
				<g>
					<g>
						<path style="fill:#388C5A;" d="M124.306,490.064c-2.669-1.194-4.243-4.662-4.792-7.534c-0.549-2.872-0.066-5.846,0.707-8.666
							c1.566-5.716,4.331-11.1,8.064-15.703c0.146-0.18,0.325-0.374,0.557-0.372c0.218,0.002,0.39,0.178,0.532,0.344
							c3.663,4.261,5.715,9.812,6.021,15.423c0.159,2.922-0.145,5.899-1.181,8.636s-2.836,5.227-5.284,6.831
							C127.566,489.917,125.869,490.537,124.306,490.064"/>
					</g>
					<g>
						<path style="fill:#388C5A;" d="M133.475,504.309c-1.899-1.586-2.382-4.771-2.169-7.236c0.213-2.465,1.291-4.775,2.569-6.893
							c2.59-4.293,6.079-8.041,10.177-10.93c0.16-0.113,0.351-0.23,0.539-0.175c0.177,0.052,0.277,0.235,0.354,0.402
							c2.003,4.311,2.396,9.303,1.355,13.942c-0.542,2.416-1.475,4.769-2.948,6.76c-1.473,1.99-3.511,3.603-5.873,4.346
							C136.163,504.94,134.639,505.054,133.475,504.309"/>
					</g>
					<g>
						<path style="fill:#388C5A;" d="M110.452,475.812c0.332-0.362,0.446-0.87,0.523-1.355c1.047-6.596-2.555-13.342-7.89-17.36
							c-5.335-4.018-12.128-5.652-18.793-6.085c-0.382-0.025-0.82-0.025-1.077,0.259c-0.15,0.165-0.203,0.395-0.246,0.613
							c-0.506,2.584-0.329,5.299,0.507,7.796c0.44,1.313,1.056,2.561,1.732,3.769c2.413,4.311,5.704,8.238,9.975,10.719
							C99.455,476.65,105.798,477.468,110.452,475.812"/>
					</g>
					<g>
						<path style="fill:#388C5A;" d="M119.147,484.638c0.014-0.37-0.168-0.716-0.36-1.032c-2.611-4.295-7.963-6.412-12.982-6.12
							c-5.018,0.292-9.712,2.662-13.747,5.659c-0.231,0.172-0.483,0.385-0.492,0.673c-0.005,0.168,0.076,0.325,0.158,0.472
							c0.968,1.729,2.391,3.201,4.087,4.227c0.892,0.539,1.853,0.955,2.829,1.319c3.484,1.299,7.285,1.95,10.944,1.294
							C113.244,490.474,117.283,487.855,119.147,484.638"/>
					</g>
					<g>
						<path style="fill:#388C5A;" d="M132.444,502.763c0.018-0.475-0.215-0.92-0.462-1.326c-3.354-5.516-10.227-8.235-16.672-7.86
							c-6.445,0.375-12.473,3.419-17.655,7.268c-0.297,0.221-0.62,0.495-0.631,0.865c-0.007,0.216,0.097,0.418,0.203,0.606
							c1.243,2.221,3.071,4.111,5.249,5.429c1.145,0.693,2.379,1.227,3.633,1.695c4.474,1.668,9.355,2.504,14.055,1.661
							S130.05,506.894,132.444,502.763"/>
					</g>
					<g>
						<path style="fill:#125E31;" d="M138.065,515.136c-1.168-2.969-2.477-5.882-3.923-8.726c-1.439-2.831-3.015-5.593-4.716-8.275
							c-1.709-2.694-3.544-5.308-5.499-7.83c-1.947-2.512-4.012-4.933-6.187-7.251c-2.181-2.325-4.477-4.544-6.871-6.648
							c-0.294-0.258-0.59-0.515-0.887-0.77c-0.293-0.252,0.087-0.717,0.381-0.465c2.43,2.086,4.759,4.288,6.978,6.597
							c2.22,2.311,4.333,4.724,6.325,7.233c1.992,2.508,3.865,5.109,5.611,7.794c1.747,2.686,3.367,5.455,4.854,8.294
							c1.486,2.836,2.837,5.743,4.045,8.709c0.152,0.373,0.302,0.748,0.449,1.123C138.768,515.281,138.207,515.496,138.065,515.136
							L138.065,515.136z"/>
						<g>
							<path style="fill:#125E31;" d="M124.158,490.037c0.808-3.631,1.807-7.213,2.731-10.815c0.459-1.79,0.89-3.585,1.286-5.39
								c0.35-1.597,0.68-3.203,0.856-4.83c0.198-1.825,0.193-3.686-0.214-5.484c-0.042-0.186,0.241-0.288,0.284-0.099
								c0.732,3.226,0.208,6.542-0.47,9.729c-0.767,3.605-1.718,7.164-2.651,10.729c-0.54,2.063-1.062,4.131-1.526,6.213
								C124.412,490.279,124.116,490.226,124.158,490.037L124.158,490.037z"/>
						</g>
						<g>
							<path style="fill:#125E31;" d="M133.361,504.253c1.493-2.77,3.13-5.457,4.711-8.177c0.785-1.351,1.549-2.714,2.287-4.092
								c0.653-1.22,1.29-2.451,1.808-3.735c0.581-1.441,1.005-2.957,1.087-4.514c0.009-0.161,0.262-0.179,0.254-0.016
								c-0.146,2.795-1.336,5.375-2.621,7.813c-1.454,2.759-3.046,5.438-4.626,8.125c-0.914,1.555-1.815,3.119-2.671,4.707
								C133.512,504.509,133.283,504.397,133.361,504.253L133.361,504.253z"/>
						</g>
						<g>
							<path style="fill:#125E31;" d="M110.356,475.928c-3.106-2.325-6.158-4.722-9.157-7.184c-3.038-2.494-6.021-5.055-8.933-7.695
								c-1.589-1.441-3.157-2.906-4.698-4.398c-0.138-0.134,0.051-0.367,0.191-0.232c2.786,2.699,5.659,5.307,8.592,7.846
								c2.972,2.573,6.006,5.075,9.093,7.508c1.685,1.329,3.386,2.636,5.104,3.922C110.702,475.812,110.511,476.044,110.356,475.928
								L110.356,475.928z"/>
						</g>
						<g>
							<path style="fill:#125E31;" d="M119.149,484.752c-2.915,0.178-5.833,0.289-8.753,0.337c-2.958,0.048-5.917,0.031-8.874-0.066
								c-1.614-0.053-3.227-0.13-4.838-0.236c-0.144-0.01-0.149-0.236-0.004-0.226c2.913,0.192,5.832,0.29,8.751,0.319
								c2.958,0.029,5.918-0.013,8.874-0.119c1.614-0.058,3.227-0.136,4.839-0.234C119.291,484.517,119.294,484.743,119.149,484.752
								L119.149,484.752z"/>
						</g>
						<g>
							<path style="fill:#125E31;" d="M132.446,502.908c-3.743,0.229-7.492,0.371-11.241,0.432
								c-3.799,0.062-7.599,0.04-11.396-0.085c-2.072-0.068-4.144-0.167-6.213-0.303c-0.186-0.012-0.192-0.303-0.005-0.29
								c3.741,0.247,7.49,0.372,11.239,0.409c3.799,0.038,7.6-0.016,11.397-0.153c2.073-0.075,4.144-0.175,6.214-0.301
								C132.629,502.606,132.633,502.897,132.446,502.908L132.446,502.908z"/>
						</g>
					</g>
				</g>
			</g>
			<g>
				<path style="fill:#F6C95D;" d="M330.922,166.871c0,0-6.967-7.418-7.444-16.425c-0.477-9.007,11.392-8.001,11.869-0.53
					c0,0,4.304-7.012,9.643-1.801C350.447,153.439,340.634,163.58,330.922,166.871z"/>
				<path style="fill:#F6C95D;" d="M298.524,138.584c0,0-2.179-6.219-0.099-11.676c2.08-5.457,8.842-1.749,7.165,2.799
					c0,0,4.387-3.022,6.181,1.462C313.605,135.753,305.137,139.183,298.524,138.584z"/>
				<path style="fill:#F6C95D;" d="M332.357,114.162c0,0-3.997-1.349-5.933-4.548c-1.936-3.199,2.599-5.152,4.234-2.514
					c0,0,0.202-3.404,3.172-2.544C336.867,105.435,335.263,111.06,332.357,114.162z"/>
			</g>
			<g>
				<g>
					<path style="fill:#1E121E;" d="M343.517,500c-4.11-16.952-8.646-33.793-13.802-50.467c-2.902-9.384-6.012-18.743-10.341-27.56
						c-7.265-14.796-17.782-27.711-28.244-40.449l-100.043,9.723c-16.076,34.636-26.403,71.266-33.675,108.752H343.517z"/>
				</g>
				<g>
					<g>
						<path style="fill:#B4482E;" d="M156.883,94.482c0,0-4.297,17.697-6.525,62.544c-1.537,30.934-16.471,41.059-15.342,72.653
							c1.128,31.594,22.426,35.402,29.902,36.108c7.475,0.705,29.742,2.68,43.151,22.003c13.408,19.323,74.901,34.979,80.784-14.105
							c5.883-49.084,16.772-63.795,0-102.399c-16.921-38.946-24.28-76.804-24.28-76.804"/>
						<path style="fill:#A0341F;" d="M180.72,124.891c0,0,3.622,15.378,0,35.161c-3.622,19.783-13.331,24.362-12.598,44.877
							c0.733,20.516,14.562,22.988,19.416,23.446c4.854,0.458,19.313,1.74,28.02,14.288c8.707,12.547,48.636,22.714,52.456-9.159
							c3.82-31.872,16.365-44.603,0-66.492c-16.365-21.889-15.453-47.808-15.453-47.808"/>
					</g>
					<g>
						<path style="fill:#EAA8A2;" d="M197.798,158.945c1.568,3.549,3.043,7.139,4.221,10.817
							c6.504,20.306,3.369,43.111-8.419,61.241c9.364,4.863,20.239,6.786,30.963,6.919c10.724,0.133,21.382-1.447,31.937-3.214
							c0.691-0.116,1.477-0.295,1.797-0.877c0.276-0.502,0.089-1.109-0.135-1.633c-1.27-2.969-3.559-5.439-5.566-8.032
							c-7.064-9.122-10.86-20.208-12.069-31.394c-1.209-11.186,0.072-22.501,2.466-33.521"/>
					</g>
					<g>
						<path style="fill:#F4BDB5;" d="M238.178,79.085c9.758,6.596,15.586,17.665,19.21,28.872c3.431,10.61,5.237,21.913,3.725,32.96
							c-1.512,11.048-8.944,26.596-17.493,33.755c-8.549,7.159-18.999,4.315-29.55,0.705c-4.522-1.547-7.963-3.054-11.751-5.968
							c-20.171-15.514-33.994-40.968-30.455-66.169"/>
					</g>
					<path style="fill:#B4482E;" d="M262.731,87.638c-3.771-12.006-11.657-20.618-18.088-25.698
						c-4.076-3.22-6.793-4.75-10.187-4.705c-13.343-12.727-47.736-14.03-67.672,15.721c-22.875,34.137-3.05,52.062-3.05,52.062
						l0.004-0.003c2.589,4.036,5.701,7.804,8.84,11.053c1.581,1.636,3.466,3.236,5.808,3.551c3.163,0.426,6.051-1.583,8.484-3.51
						c17.831-14.125,33.734-30.199,48.953-46.775c1.064,1.622,2.164,3.216,3.275,4.777c7.31,10.269,16.018,15.325,21.975,29.915
						c2.711-6.476,3.648-10.868,3.986-17.341C265.486,98.503,265.187,95.457,262.731,87.638z"/>
					<g>
						<g>
							<path style="fill:#F4BDB5;" d="M186.301,142.215c-1.209-1.204-2.419-2.408-3.628-3.612c-2.673-2.662-5.489-5.413-9.081-6.565
								c-3.592-1.153-8.184-0.137-9.869,3.239c-0.899,1.801-0.834,3.94-0.42,5.911c0.995,4.736,3.962,9.025,8.041,11.628
								c2.848,1.817,6.253,2.825,9.623,2.586c3.37-0.238,6.679-1.776,8.844-4.37"/>
						</g>
						<path style="fill:#EAA8A2;" d="M184.079,148.418c-1.167,1.83-4.469,1.811-7.376-0.042c-2.906-1.854-4.316-4.84-3.149-6.67
							c1.167-1.83,4.47-1.812,7.376,0.042C183.837,143.601,185.246,146.587,184.079,148.418z"/>
					</g>
					<g>
						<g>
							<path style="fill:#F4BDB5;" d="M258.97,127.808c0.139-1.516,0.279-3.032,0.418-4.548c0.308-3.351,0.655-6.843,2.13-9.648
								c1.474-2.805,4.448-4.648,6.852-3.221c1.283,0.761,2.183,2.295,2.817,3.905c1.524,3.87,1.766,8.524,0.658,12.615
								c-0.774,2.857-2.208,5.456-4.169,7.163c-1.961,1.708-4.456,2.471-6.783,1.859"/>
						</g>
						<path style="fill:#EAA8A2;" d="M262.908,130.916c1.444,0.632,3.254-1.217,4.044-4.132c0.79-2.914,0.26-5.79-1.184-6.422
							c-1.444-0.632-3.254,1.217-4.044,4.132C260.934,127.408,261.464,130.284,262.908,130.916z"/>
					</g>
					<g>
						<g style="opacity:0.39;">
							<path style="fill:#F74C2F;" d="M241.75,151.132c2.973,0.132-3.063,4.38-5.168,5.057c-3.82,1.229-9.02,1.21-14.434-0.766
								C222.148,155.424,237.514,150.944,241.75,151.132z"/>
						</g>
						<g>
							<path style="fill:#B4482E;" d="M216.633,127.355c-1.842-0.431-3.716-0.735-5.61-0.502c-2.701,0.333-5.047,1.679-6.949,3.594
								c-0.517,0.52,0.288,1.326,0.805,0.805c1.752-1.763,3.937-3.048,6.445-3.294c1.699-0.167,3.358,0.109,5.008,0.495
								C217.043,128.619,217.347,127.522,216.633,127.355L216.633,127.355z"/>
						</g>
						<g>
							<path style="fill:#B4482E;" d="M250.422,118.954c-1.842-0.431-3.716-0.735-5.61-0.502c-2.701,0.333-5.047,1.679-6.949,3.594
								c-0.517,0.52,0.288,1.326,0.805,0.805c1.751-1.763,3.937-3.048,6.445-3.295c1.699-0.167,3.358,0.109,5.008,0.495
								C250.832,120.219,251.136,119.121,250.422,118.954L250.422,118.954z"/>
						</g>
						<g>
							<path style="fill:#EAA8A2;" d="M226.403,123.844c1.28,4.329,3.68,8.541,6.595,11.958c1.358,1.593,2.906,3.005,4.624,4.202
								c0-0.587,0-1.175,0-1.762c-0.936,0.654-1.883,1.293-2.838,1.919c-0.727,0.477-1.458,0.947-2.204,1.393
								c-0.328,0.196-0.658,0.388-0.996,0.566c-0.122,0.064-0.245,0.124-0.368,0.185c-0.197,0.098,0.127-0.031-0.174,0.067
								c-1.243,0.406-0.711,2.377,0.543,1.968c1.472-0.481,2.831-1.501,4.113-2.339c0.994-0.65,1.98-1.315,2.954-1.995
								c0.653-0.456,0.655-1.306,0-1.762c-2.73-1.902-4.931-4.486-6.688-7.293c-1.275-2.037-2.348-4.207-3.145-6.342
								c-0.16-0.431-0.318-0.864-0.448-1.305C227.999,122.045,226.029,122.58,226.403,123.844L226.403,123.844z"/>
						</g>
						<path style="opacity:0.16;fill:#F74C2F;" d="M218.675,141.619c0.504,3.118-3.333,6.333-8.571,7.18
							c-5.238,0.847-9.893-0.994-10.397-4.113c-0.504-3.118,3.333-6.333,8.571-7.18C213.516,136.66,218.17,138.501,218.675,141.619z
							"/>
						<path style="fill:#B4482E;" d="M236.783,112.179c0,0,11.158-5.182,20.555-3.108c0,0-1.062-3.359-9.329-3.409
							C239.74,105.611,232.734,109.685,236.783,112.179z"/>
						<path style="fill:#B4482E;" d="M214.535,117.34c0,0-12.282,0.708-19.583,6.976c0,0-0.652-3.462,6.61-7.414
							C208.824,112.951,216.923,113.229,214.535,117.34z"/>
						<path style="opacity:0.16;fill:#F74C2F;" d="M259.995,131.507c0.947,3.014-2.389,6.746-7.451,8.337
							c-5.062,1.59-9.933,0.437-10.88-2.577c-0.947-3.014,2.389-6.746,7.451-8.337C254.177,127.34,259.048,128.494,259.995,131.507z
							"/>
					</g>
				</g>
				<path style="fill:#EAB339;" d="M355.735,311.646c0,0,8.992,67.078-36.93,67.178c-45.922,0.1-41.592-114.507-41.592-114.507
					S301.624,170.672,355.735,311.646z"/>
				<g>
					<g>
						<path style="fill:#F6C95D;" d="M205.769,204.287c9.209,1.455,18.764,0.674,27.615-2.257c2.134-0.707,4.28-1.546,6.527-1.572
							c1.939-0.022,3.828,0.564,5.678,1.145c10.863,3.408,21.727,6.816,32.59,10.225c2.448,0.768,4.99,1.591,6.835,3.373
							c1.717,1.658,2.63,3.957,3.496,6.182c5.67,14.577,11.345,29.169,15.95,44.116c15.101,49.012,20.41,69.957,14.394,126.561
							c-0.124,1.166-1.872,23.112-2.557,24.064c-0.703,0.977-9.959,5.135-11.13,5.414c-47.774,11.38-76.334,6.533-124.832-1.203
							c-1.41-0.225-2.758-3.419-3.459-4.662c-1.579-2.801-7.03-19.567-7.37-20.906c-14.266-56.178-17.379-96.463-10.864-154.057
							c0.294-2.597,0.635-5.274,1.947-7.535c1.358-2.341,3.616-3.997,5.828-5.555c11.99-8.447,24.544-16.094,37.551-22.872"/>
					</g>
					<g>
						<path style="fill:#EAB339;" d="M203.837,200.458c0,0,10.501,5.535,21.751,3.566c0,0,0.421,26.106-14.067,22.296
							c-14.489-3.81-21.824-13.678-21.824-13.678L203.837,200.458z"/>
						<path style="fill:#EAB339;" d="M225.587,204.024c0,0,3.707,18.335,15.873,18.485c12.167,0.15,15.873-17.221,15.873-17.221
							l-14.631-6.721L225.587,204.024z"/>
					</g>
					<path style="fill:#EAB339;" d="M174.982,249.165c0,0,15.366,73.68,50.606,80.865c38.795,7.91,85.091-2.683,85.091-2.683
						s3.228,49.973-50.477,76.293c-27.1,13.281-64.253,11.828-85.369,7.327c0,0-15.701-37.871-15.852-75.53"/>
				</g>
				<g>
					<path style="fill:#EAB339;" d="M358.367,235.683c-1.712-1.908-4.282-2.997-6.888-3.54c-5.638-1.175-11.644-0.003-16.735,2.564
						c-0.292,0.147-0.583,0.297-0.869,0.453c-0.454,0.248-0.899,0.507-1.337,0.776c-1.069,0.657-2.087,1.379-3.07,2.142
						c-0.31,0.015-0.621,0.022-0.931,0.039c-1.37,0.078-2.738,0.18-4.104,0.297c-0.026-0.744-0.126-1.483-0.264-2.216
						c0.012-0.005,0.025-0.01,0.037-0.015c0,0-0.052-0.212-0.161-0.603c-0.024-0.103-0.036-0.208-0.062-0.311
						c-0.077-0.296-0.19-0.581-0.284-0.872c-0.072-0.236-0.15-0.486-0.239-0.766c-0.31-0.968-0.667-1.839-0.911-2.397
						c3.8-4.985,6.785-10.508,8.792-16.328c0.357-1.034,0.672-2.204,0.134-3.167c-0.84-1.503-3.109-1.545-4.907-1.278
						c-6.459,0.958-12.678,3.241-18.133,6.596c-1.452-0.935-2.954-1.801-4.52-2.556c0-0.001,0-0.001,0.001-0.002l-0.089-0.036
						c-0.811-0.389-1.634-0.756-2.473-1.088c-0.53-0.209-1.066-0.402-1.606-0.586l-0.054-0.022
						c-0.001,0.001-0.001,0.001-0.002,0.002c-2.636-0.893-5.388-1.475-8.177-1.765c-1.476-0.416-6.095-0.186-6.095-0.186
						c-0.001,0.009-0.002,0.018-0.004,0.028c-4.201,0.218-8.357,1.11-12.216,2.669l-0.188,0.064
						c0.001,0.004,0.001,0.008,0.002,0.012c-0.299,0.123-0.602,0.239-0.898,0.37c-1.193,0.529-2.348,1.126-3.466,1.778
						c-5.115-4.05-11.172-7.071-17.651-8.722c-1.756-0.447-4.016-0.635-5.027,0.773c-0.648,0.903-0.471,2.098-0.238,3.162
						c1.572,7.17,4.593,14.056,8.827,20.223c-0.522,1.156-0.978,2.339-1.351,3.545c-0.117,0.38-0.227,0.762-0.327,1.148c0,0,0,0,0,0
						c0,0-0.362,1.247-0.496,2.404c-0.002,0.016-0.003,0.033-0.005,0.049c-0.018,0.122-0.027,0.245-0.043,0.368
						c-2.335-0.247-4.676-0.438-7.021-0.571c-2.724-0.154-5.452-0.23-8.181-0.23c-0.271,0-0.272,0.393,0,0.393
						c5.064,0,10.126,0.274,15.156,0.804c-0.06,0.582-0.094,1.165-0.092,1.746c-0.003,0.074-0.005,0.127-0.005,0.127
						c0.003-0.001,0.006-0.001,0.009-0.002c0.008,0.703,0.057,1.404,0.173,2.098c-4.124,0.479-8.211,1.244-12.212,2.298
						c-3.052,0.804-6.049,1.776-8.979,2.904c-0.247,0.095-0.139,0.475,0.112,0.379c6.767-2.607,13.905-4.335,21.165-5.18
						c0.05,0.249,0.093,0.498,0.159,0.744c0.1,0.377,0.224,0.745,0.358,1.11c-0.002,0.001-0.004,0.001-0.006,0.002
						c0,0,0.015,0.039,0.037,0.092c0.018,0.048,0.039,0.095,0.058,0.143c0.048,0.117,0.11,0.268,0.184,0.439
						c-5.876,1.499-11.571,3.619-16.927,6.321c-3.136,1.582-6.152,3.366-9.027,5.331c-0.217,0.148-0.006,0.489,0.213,0.339
						c5.077-3.471,10.602-6.369,16.423-8.613c3.087-1.19,6.257-2.192,9.48-3.012c0.041,0.09,0.082,0.18,0.125,0.27
						c0.008,0.016,0.016,0.033,0.024,0.049c0.089,0.186,0.181,0.366,0.268,0.517c0.06,0.103,0.128,0.217,0.199,0.334
						c0.276,0.478,0.57,0.948,0.894,1.402c0.001,0.001,0.005,0.007,0.005,0.007c0,0,0.001,0,0.001,0
						c0.3,0.42,0.623,0.826,0.956,1.226c-1.393,0.677-2.776,1.373-4.137,2.103c-1.969,1.057-3.902,2.172-5.799,3.338
						c-0.226,0.139-0.014,0.479,0.213,0.339c3.226-1.983,6.561-3.81,9.989-5.473c0.746,0.862,1.553,1.682,2.401,2.45
						c1.238,1.12,2.565,2.152,3.955,3.104c-0.04,0.158-0.052,0.32-0.071,0.48c-0.937,1.92-1.699,3.934-2.396,5.933
						c-0.079,0.226-0.151,0.453-0.229,0.679l-38.734,4.263l-4.324,68.418l65.773,14.454l58.127-3.998l7.721-65.997l0.396-3.386
						l0.182-1.552l0,0l0,0h0l-20.022-4.887c0.688-0.563,1.384-1.119,2.09-1.663c0.752-0.579,1.515-1.147,2.288-1.704
						c0.925-0.666,1.862-1.319,2.807-1.963c1.301-0.886,2.621-1.751,3.946-2.609c0.367-0.238,0.734-0.476,1.102-0.713
						c1.188-0.764,2.379-1.525,3.571-2.285c0.012-0.008,0.024-0.015,0.036-0.023c1.298-0.828,2.595-1.657,3.88-2.496
						c0.592-0.387,1.183-0.781,1.771-1.181c0.384-0.261,0.765-0.525,1.142-0.794c0.001,0,0.001-0.001,0.001-0.001
						c0.353-0.251,0.701-0.507,1.046-0.767c0.008-0.006,0.016-0.012,0.023-0.017c0.01-0.008,0.021-0.015,0.031-0.023
						c0,0,0,0,0.001-0.001c0.001,0,0.001-0.001,0.002-0.002c0.468-0.354,0.923-0.721,1.37-1.094c0.141-0.118,0.28-0.236,0.419-0.356
						c0.418-0.361,0.826-0.729,1.217-1.111c0.052-0.05,0.103-0.101,0.155-0.152c0.395-0.392,0.768-0.801,1.129-1.219
						c0.102-0.118,0.203-0.238,0.302-0.359c0.375-0.456,0.736-0.923,1.063-1.413c0-0.001,0.001-0.001,0.001-0.002
						c0,0,0.001-0.001,0.001-0.001l0,0c0.115-0.172,0.238-0.338,0.346-0.514C360.992,244.176,361.37,239.029,358.367,235.683z
						 M305.667,264.748c-0.28-1.602-0.648-3.187-1.167-4.743c-0.009-0.029-0.021-0.057-0.031-0.086
						c2.895-0.898,5.721-2.005,8.32-3.488c1.252-0.715,2.444-1.527,3.565-2.413c-0.444,0.788-0.879,1.582-1.294,2.385
						c-0.462,0.894-0.906,1.796-1.333,2.706c-1.061,2.26-2.017,4.566-2.889,6.901L305.667,264.748z M328.931,238.498
						c-0.046,0.037-0.094,0.072-0.14,0.109c-1.788,1.451-3.421,3.07-4.943,4.778c-0.006-0.001-0.012-0.002-0.018-0.003
						c0.179-0.658,0.31-1.333,0.384-1.766c0.009-0.053,0.019-0.106,0.028-0.16c0.03-0.182,0.046-0.292,0.046-0.292
						c-0.004,0-0.009,0.001-0.013,0.002c0.109-0.78,0.159-1.565,0.152-2.35C325.927,238.688,327.428,238.579,328.931,238.498z"/>
					<g>
						<g>
							<polygon style="fill:#CE763A;" points="232.932,260.8 301.023,252.746 365.418,269.64 356.82,348.626 228.452,336.983 
															"/>
							<g>
								<g>
									<g>
										<path style="fill:#FFEACF;" d="M375.171,225.511c-1.774-2.124-4.436-3.337-7.137-3.941
											c-5.842-1.309-12.064-0.003-17.338,2.855c-0.303,0.164-0.604,0.331-0.9,0.505c-1.88,1.105-3.627,2.406-5.267,3.836
											c-3.12,2.72-5.832,5.935-8.192,9.348c-1.668,2.412-3.171,4.926-4.541,7.513c-1.033,1.951-1.989,3.943-2.874,5.97
											c-2.181,4.996-3.943,10.192-5.416,15.442c-0.014,0.051-0.029,0.101-0.043,0.151c-0.6,2.146-1.162,4.32-1.748,6.489
											c-0.353,1.308-0.722,2.611-1.106,3.907c-0.179,0.605-0.365,1.208-0.555,1.808c-0.048,0.151-0.098,0.302-0.147,0.453
											c-0.173,0.537-0.35,1.072-0.534,1.603c-0.072,0.208-0.151,0.412-0.225,0.619c-0.265,0.739-0.546,1.469-0.84,2.194
											c-0.169,0.416-0.337,0.832-0.517,1.243c-0.131,0.298-0.271,0.592-0.407,0.887c-0.196,0.423-0.397,0.843-0.607,1.259
											c-0.139,0.275-0.281,0.547-0.425,0.819c-0.242,0.453-0.496,0.899-0.757,1.342c-0.132,0.224-0.26,0.45-0.397,0.671
											c-0.408,0.657-0.832,1.305-1.289,1.936c-0.001,0.001-0.001,0.002-0.002,0.003l0,0l0,0l7.702,3.868
											c1.502-2.73,3.012-5.47,4.576-8.178c1.564-2.707,3.181-5.383,4.896-7.983c1.251-1.897,2.554-3.754,3.928-5.555
											c0.914-1.198,1.858-2.371,2.839-3.514c0.981-1.144,1.998-2.257,3.057-3.336c0.583-0.593,1.179-1.17,1.786-1.736
											s1.222-1.121,1.844-1.67c1.516-1.339,3.075-2.629,4.677-3.869c0.958-0.742,1.929-1.469,2.909-2.186
											c2.938-2.151,5.957-4.207,8.967-6.269c1.345-0.922,2.688-1.845,4.02-2.779c0.614-0.43,1.226-0.87,1.835-1.315
											c0.398-0.291,0.793-0.586,1.184-0.885c0.366-0.28,0.726-0.565,1.084-0.854c0.019-0.015,0.038-0.03,0.057-0.045
											c2.272-1.841,4.337-3.895,5.862-6.356c0-0.001,0.001-0.001,0.001-0.002h0c0.119-0.192,0.247-0.376,0.359-0.573
											C377.89,234.967,378.282,229.236,375.171,225.511z"/>
									</g>
									<g style="opacity:0.43;">
										<path style="fill:#B7805C;" d="M323.506,267.038c-0.014,0.051-0.029,0.101-0.043,0.151c-0.6,2.146-1.162,4.32-1.748,6.489
											c3.087,2.201,6.19,4.383,9.365,6.45c1.251-1.897,2.554-3.754,3.928-5.555c-3.554-2.044-7.011-4.256-10.35-6.636
											C324.268,267.659,323.869,267.364,323.506,267.038z"/>
									</g>
									<g style="opacity:0.43;">
										<path style="fill:#B7805C;" d="M350.696,224.424c-0.303,0.164-0.604,0.331-0.9,0.505c-1.88,1.105-3.627,2.406-5.267,3.836
											c3.954,8.714,9.616,16.644,16.557,23.229c1.345-0.922,2.688-1.845,4.02-2.779c0.614-0.43,1.226-0.87,1.835-1.315
											C360.146,241.159,354.597,233.165,350.696,224.424z"/>
									</g>
									<g style="opacity:0.43;">
										<path style="fill:#B7805C;" d="M328.923,251.596c4.732,4.78,9.973,9.054,15.611,12.722
											c1.516-1.339,3.075-2.629,4.677-3.869c-6.327-4.281-12.175-9.264-17.415-14.823
											C330.763,247.577,329.807,249.569,328.923,251.596z"/>
									</g>
									<g style="opacity:0.26;">
										<path style="fill:#B7805C;" d="M350.39,249.611c-10.195,10.128-22.06,30.923-29.781,27.975
											c-1.565,5.281-3.491,10.401-6.703,14.836l7.703,3.868c3.004-5.461,6.041-10.96,9.472-16.162
											c1.251-1.897,2.554-3.754,3.928-5.555c1.828-2.395,3.777-4.693,5.896-6.85c1.165-1.186,2.387-2.309,3.629-3.406
											c1.516-1.339,3.075-2.629,4.677-3.869c3.834-2.966,7.863-5.705,11.875-8.455c1.345-0.922,2.688-1.845,4.02-2.779
											c0.614-0.43,1.226-0.87,1.835-1.315c3.152-2.303,6.154-4.859,8.189-8.142C371.034,239.777,359.388,240.673,350.39,249.611
											z"/>
									</g>
								</g>
								<g>
									<g>
										<path style="fill:#FFEACF;" d="M265.319,288.815c1.761-11.361,4.432-22.582,7.981-33.518
											c1.605-4.948,3.491-10.004,7.135-13.716c2.297-2.34,5.234-4.046,8.405-4.881c3.609-0.951,7.419-0.777,11.124-0.327
											c2.643,0.321,5.3,0.787,7.74,1.853c5.83,2.547,9.772,8.291,11.657,14.368c1.886,6.076,1.996,12.54,2.091,18.902
											c0.124,8.351,0.249,16.702,0.373,25.052"/>
									</g>
									<g style="opacity:0.26;">
										<path style="fill:#B7805C;" d="M278.517,242.56c-0.565,1.094-1.13,2.188-1.695,3.282
											c-0.516,0.998-1.039,2.026-1.077,3.127c-0.07,2.067,1.58,3.961,3.435,5.399c2.707,2.098,5.995,3.62,9.432,4.691
											c8.6,2.68,18.298,2.519,26.493-0.439c2.138-0.772,4.419-2.025,4.577-3.988c0.056-0.693-0.171-1.387-0.395-2.064
											c-1.135-3.425-2.27-6.851-3.404-10.276"/>
									</g>
								</g>
								<g>
									<g>
										<g>
											<path style="fill:#FFEACF;" d="M316.536,211.215c0.217-1.091,1.073-1.928,1.911-2.659
												c6.681-5.829,15.022-9.733,23.777-11.128c1.862-0.297,4.213-0.25,5.083,1.423c0.558,1.073,0.231,2.375-0.139,3.527
												c-2.722,8.486-7.172,16.414-12.998,23.158"/>
										</g>
										<g style="opacity:0.5;">
											<path style="fill:#B7805C;" d="M327.243,212.199c4.992-4.046,10.238-7.778,15.698-11.167
												c1.222-0.758,2.778,0.337,2.436,1.733c-1.745,7.131-5.971,13.652-11.83,18.087"/>
										</g>
									</g>
									<g>
										<g>
											<path style="fill:#FFEACF;" d="M287.964,210.097c-0.096-1.108-0.857-2.033-1.61-2.851
												c-6.006-6.522-13.872-11.312-22.423-13.653c-1.819-0.498-4.161-0.707-5.208,0.861c-0.672,1.006-0.488,2.336-0.247,3.521
												c1.781,8.732,5.34,17.098,10.397,24.437"/>
										</g>
										<g style="opacity:0.5;">
											<path style="fill:#B7805C;" d="M277.213,209.908c-4.521-4.566-9.33-8.847-14.387-12.811
												c-1.132-0.887-2.798,0.032-2.61,1.458c0.957,7.279,4.448,14.222,9.788,19.269"/>
										</g>
									</g>
									<g>
										<path style="fill:#FFEACF;" d="M339.547,225.051c-0.662-2.753-1.996-5.303-3.56-7.662
											c-2.633-3.972-5.944-7.478-9.655-10.468c-3.121-2.516-6.541-4.681-10.231-6.248c-9.579-4.068-20.896-3.825-30.291,0.652
											c-9.395,4.477-16.713,13.113-19.587,23.115c-0.985,3.427-1.465,7.094-0.61,10.556c0.93,3.767,3.365,6.998,6.146,9.703
											c4.686,4.558,10.522,7.925,16.813,9.701c2.132,0.602,7.738,1.896,19.273,0.634l-0.012-0.001
											c3.57-0.343,7.115-1.13,10.536-2.208c3.336-1.051,6.6-2.382,9.582-4.211c3.99-2.448,7.466-5.828,9.657-9.964
											C339.799,234.515,340.641,229.602,339.547,225.051z"/>
									</g>
									<g>
										<g style="opacity:0.5;">
											<path style="fill:#B7805C;" d="M309.619,224.003c1.428-1.956,3.851-3.102,6.27-2.945
												c2.371,0.153,4.555,1.583,5.735,3.625c0.281,0.487,1.037,0.047,0.755-0.441c-1.339-2.319-3.811-3.885-6.49-4.059
												c-2.743-0.178-5.42,1.179-7.025,3.379C308.532,224.017,309.29,224.454,309.619,224.003L309.619,224.003z"/>
										</g>
										<g style="opacity:0.5;">
											<path style="fill:#B7805C;" d="M279.137,224.003c1.428-1.956,3.851-3.102,6.27-2.945
												c2.371,0.153,4.555,1.583,5.735,3.625c0.281,0.487,1.037,0.047,0.755-0.441c-1.34-2.319-3.811-3.885-6.49-4.059
												c-2.744-0.178-5.42,1.179-7.025,3.379C278.049,224.017,278.808,224.454,279.137,224.003L279.137,224.003z"/>
										</g>
										<g>
											<g>
												<path style="fill:#B7805C;" d="M299.542,229.907c-0.373-0.672-1.066-1.088-1.647-1.591
													c-0.581-0.502-1.101-1.236-0.925-1.984c0.164-0.699,0.867-1.124,1.537-1.38c2.193-0.839,4.743-0.686,6.821,0.408
													c0.293,0.154,0.591,0.34,0.75,0.631c0.368,0.669-0.156,1.466-0.669,2.032c-0.682,0.754-1.406,1.487-2.276,2.013
													c-0.87,0.526-1.908,0.831-2.911,0.664"/>
											</g>
											<g>
												<path style="fill:#B7805C;" d="M291.242,235.278c0.646,2.595,3.795,3.338,5.957,2.209
													c2.816-1.471,3.656-4.751,4.275-7.61c-0.281,0-0.562,0-0.843,0c0.39,2.793,0.981,6.031,3.477,7.745
													c2.38,1.635,5.796,0.952,7.674-1.128c0.376-0.417-0.24-1.037-0.618-0.618c-1.708,1.892-4.837,2.467-6.893,0.783
													c-2.027-1.66-2.456-4.575-2.796-7.014c-0.061-0.433-0.756-0.401-0.843,0c-0.529,2.443-1.133,5.224-3.317,6.751
													c-0.885,0.619-1.978,0.945-3.046,0.675c-1.031-0.26-1.919-0.969-2.182-2.025
													C291.949,234.5,291.106,234.731,291.242,235.278L291.242,235.278z"/>
											</g>
										</g>
									</g>
									<g style="opacity:0.48;">
										<g>
											<path style="fill:#B7805C;" d="M286.738,200.898c0.442,2.063,0.34,3.996,0.482,6.102
												c0.142,2.105,0.517,4.274,1.706,6.018c0.663,0.972,1.793,1.841,2.927,1.527c0.751-0.208,1.29-0.903,1.513-1.649
												c0.223-0.746,0.181-1.543,0.112-2.319c-0.341-3.825-1.302-7.594-2.832-11.116"/>
										</g>
										<g>
											<path style="fill:#B7805C;" d="M306.166,198.133c0.131,0.069-0.227,2.529-0.148,3.801
												c0.227,3.691,0.237,7.436-0.6,11.038c-0.16,0.688-0.362,1.392-0.814,1.935c-0.452,0.543-1.218,0.883-1.882,0.643
												c-0.44-0.159-0.762-0.535-1.035-0.915c-1.897-2.641-2.368-6.037-2.465-9.287c-0.077-2.596,0.015-4.951,0.371-7.524
												C299.593,197.824,305.033,197.533,306.166,198.133z"/>
										</g>
										<g>
											<path style="fill:#B7805C;" d="M318.756,201.924c-0.765,2.323-0.841,4.408-1.323,6.806
												c-0.482,2.398-1.313,4.837-3.066,6.543c-0.288,0.28-0.616,0.547-1.01,0.625c-0.628,0.125-1.27-0.28-1.604-0.827
												c-0.334-0.547-0.419-1.207-0.459-1.847c-0.236-3.821,0.888-7.58,1.999-11.244c0.193-0.635,0.53-1.623,1.087-1.985
												L318.756,201.924z"/>
										</g>
										<g>
											<path style="fill:#B7805C;" d="M339.778,226.068c-4.535,1.918-9.069,3.836-13.604,5.754
												c-0.688,0.291-1.54,0.565-2.128,0.104c-0.65-0.509-0.491-1.527-0.187-2.294c1.088-2.739,3.227-4.976,5.717-6.552
												c2.49-1.576,5.324-2.534,8.19-3.22c0,0,0.695,1.544,1.237,3.367C339.547,225.051,339.778,226.068,339.778,226.068z"/>
										</g>
										<g>
											<path style="fill:#B7805C;" d="M337.392,238.804c-2.897,0.318-4.275,0.804-7.172,1.122
												c-0.656,0.072-1.337,0.142-1.964-0.065c-0.627-0.207-1.188-0.771-1.168-1.432c0.017-0.546,0.406-1.001,0.791-1.388
												c3.007-3.025,7.738-5.043,11.985-5.427c0,0-0.267,1.998-0.72,3.32C338.691,236.256,337.392,238.804,337.392,238.804z"/>
										</g>
										<g>
											<path style="fill:#B7805C;" d="M265.171,231.385c3.979-1.046,8.32,0.38,12.264-0.793
												c0.851-0.253,1.728-0.682,2.124-1.475c0.515-1.031-0.006-2.35-0.918-3.055c-0.912-0.705-2.108-0.919-3.258-0.993
												c-3.353-0.216-7.439,0.389-9.5,0.649c0,0-0.375,1.388-0.514,2.677C265.229,229.684,265.171,231.385,265.171,231.385z"/>
										</g>
										<g>
											<path style="fill:#B7805C;" d="M268.003,240.263c3.743-0.54,8.366-1.846,11.889-3.222
												c0.357-0.139,0.749-0.319,0.884-0.678c0.225-0.596-0.405-1.154-0.978-1.432c-2.214-1.073-4.794-1.197-7.22-0.787
												c-2.426,0.41-4.324,1.156-6.601,2.089c0,0,0.487,1.344,0.888,2.089C267.266,239.067,268.003,240.263,268.003,240.263z"/>
										</g>
									</g>
									<g style="opacity:0.26;">
										<g>
											<path style="fill:#B7805C;" d="M287.177,233.804c-11.503-1.541-23.303-0.686-34.47,2.475
												c-3.161,0.895-6.267,1.977-9.303,3.234c-0.256,0.106-0.144,0.529,0.116,0.422c10.721-4.438,22.334-6.637,33.935-6.432
												c3.252,0.057,6.498,0.306,9.722,0.738C287.455,234.278,287.452,233.841,287.177,233.804L287.177,233.804z"/>
										</g>
										<g>
											<path style="fill:#B7805C;" d="M286.264,234.079c-6.534,0.128-13.046,1.049-19.362,2.726
												c-6.314,1.677-12.431,4.104-18.174,7.217c-3.249,1.762-6.374,3.747-9.353,5.936c-0.224,0.165-0.006,0.544,0.221,0.378
												c5.26-3.866,10.984-7.092,17.015-9.59c5.961-2.469,12.212-4.238,18.584-5.251c3.662-0.582,7.362-0.906,11.069-0.978
												C286.545,234.511,286.546,234.074,286.264,234.079L286.264,234.079z"/>
										</g>
										<g>
											<path style="fill:#B7805C;" d="M287.404,234.303c-2.056,0.116-4.036,0.995-5.939,1.718
												c-1.909,0.725-3.799,1.501-5.668,2.325c-3.793,1.674-7.497,3.553-11.088,5.625c-2.04,1.177-4.043,2.418-6.008,3.717
												c-0.234,0.154-0.015,0.533,0.221,0.378c6.793-4.489,14.052-8.267,21.638-11.23c1.082-0.423,2.169-0.829,3.263-1.218
												c1.164-0.414,2.338-0.808,3.582-0.878C287.684,234.724,287.686,234.287,287.404,234.303L287.404,234.303z"/>
										</g>
										<g>
											<path style="fill:#B7805C;" d="M287.458,233.206c-9.589-2.71-19.468-4.378-29.414-4.984
												c-2.822-0.172-5.649-0.256-8.476-0.256c-0.281,0-0.282,0.437,0,0.437c9.971,0.001,19.938,1.07,29.68,3.197
												c2.718,0.593,5.416,1.271,8.093,2.027C287.613,233.704,287.729,233.283,287.458,233.206L287.458,233.206z"/>
										</g>
									</g>
									<g style="opacity:0.26;">
										<g>
											<path style="fill:#B7805C;" d="M315.133,233.804c11.503-1.541,23.303-0.686,34.47,2.475
												c3.162,0.895,6.267,1.977,9.303,3.234c0.256,0.106,0.144,0.529-0.116,0.422c-10.721-4.438-22.334-6.637-33.935-6.432
												c-3.252,0.057-6.498,0.306-9.722,0.738C314.855,234.278,314.858,233.841,315.133,233.804L315.133,233.804z"/>
										</g>
										<g>
											<path style="fill:#B7805C;" d="M316.046,234.079c6.534,0.128,13.046,1.049,19.362,2.726
												c6.314,1.677,12.431,4.104,18.174,7.217c3.249,1.762,6.374,3.747,9.352,5.936c0.224,0.165,0.007,0.544-0.221,0.378
												c-5.26-3.866-10.984-7.092-17.015-9.59c-5.961-2.469-12.211-4.238-18.584-5.251c-3.662-0.582-7.362-0.906-11.069-0.978
												C315.765,234.511,315.764,234.074,316.046,234.079L316.046,234.079z"/>
										</g>
										<g>
											<path style="fill:#B7805C;" d="M314.906,234.303c2.056,0.116,4.036,0.995,5.939,1.718
												c1.909,0.725,3.799,1.501,5.668,2.325c3.794,1.674,7.497,3.553,11.088,5.625c2.04,1.177,4.043,2.418,6.008,3.717
												c0.234,0.154,0.015,0.533-0.221,0.378c-6.793-4.489-14.052-8.267-21.638-11.23c-1.081-0.423-2.169-0.829-3.263-1.218
												c-1.165-0.414-2.338-0.808-3.582-0.878C314.626,234.724,314.624,234.287,314.906,234.303L314.906,234.303z"/>
										</g>
										<g>
											<path style="fill:#B7805C;" d="M314.852,233.206c9.589-2.71,19.468-4.378,29.414-4.984
												c2.822-0.172,5.648-0.256,8.476-0.256c0.281,0,0.282,0.437,0,0.437c-9.971,0.001-19.938,1.07-29.68,3.197
												c-2.718,0.593-5.416,1.271-8.093,2.027C314.697,233.704,314.581,233.283,314.852,233.206L314.852,233.206z"/>
										</g>
									</g>
								</g>
							</g>
							<g>
								<g>
									<path style="fill:#F19D62;" d="M299.125,329.856l5.651-51.913L232.932,260.8l-3.821,64.984
										C239,330.195,266.91,340.169,299.125,329.856z"/>
									<path style="fill:#E5925A;" d="M229.111,325.784l-0.658,11.199l68.145,16.094l2.528-23.222
										C266.91,340.169,239,330.195,229.111,325.784z"/>
								</g>
								<g>
									<path style="fill:#E58D51;" d="M364.819,275.138l0.598-5.498l-60.642,8.303l-5.651,51.913
										C320.463,323.024,343.688,307.288,364.819,275.138z"/>
									<path style="fill:#D88044;" d="M299.125,329.856l-2.528,23.222l60.223-4.452l7.999-73.488
										C343.688,307.288,320.463,323.024,299.125,329.856z"/>
								</g>
							</g>
						</g>
						<g>
							
								<text transform="matrix(0.9872 0.1596 -0.1596 0.9872 245.2426 292.5352)" style="fill:#381503; font-family:'Coiny-Regular'; font-size:13.3856px;">ADOPT</text>
						</g>
						<g>
							
								<text transform="matrix(0.9872 0.1596 -0.1596 0.9872 252.193 309.812)" style="fill:#381503; font-family:'Coiny-Regular'; font-size:13.3856px;">ME</text>
						</g>
						<g>
							<g>
								<path style="fill:#F4BDB5;" d="M364.98,274.821c0,0-0.339,3.784-9.248,6.88c-8.909,3.095-7.591,6.294-6.992,6.779
									c1.579,1.278,8.974,0.058,15.139-3.551C370.045,281.32,369.341,275.484,364.98,274.821z"/>
								<path style="fill:#F4BDB5;" d="M365.981,281.411c0,0-0.339,3.784-9.247,6.88c-8.909,3.096-7.591,6.294-6.992,6.779
									c1.579,1.278,8.974,0.058,15.139-3.551C371.046,287.911,370.342,282.074,365.981,281.411z"/>
								<path style="fill:#F4BDB5;" d="M366.052,288.972c0,0-0.315,3.524-8.613,6.408c-8.298,2.883-7.071,5.863-6.512,6.315
									c1.47,1.19,8.359,0.054,14.101-3.307C370.769,295.026,370.114,289.59,366.052,288.972z"/>
								<path style="fill:#F4BDB5;" d="M365.181,296.32c0,0-0.248,2.771-6.772,5.038c-6.524,2.267-5.559,4.609-5.12,4.965
									c1.156,0.936,6.572,0.042,11.087-2.6C368.89,301.08,368.374,296.806,365.181,296.32z"/>
							</g>
							<path style="fill:#EAA8A2;" d="M354.178,286.457c0.217,0.801-0.785,1.77-2.24,2.164c-1.454,0.394-2.809,0.064-3.026-0.737
								c-0.217-0.801,0.785-1.77,2.24-2.164C352.606,285.326,353.961,285.656,354.178,286.457z"/>
							<path style="fill:#EAA8A2;" d="M355.103,292.9c0.217,0.801-0.785,1.77-2.24,2.164c-1.454,0.394-2.809,0.064-3.026-0.737
								c-0.217-0.801,0.785-1.77,2.24-2.164C353.531,291.769,354.885,292.099,355.103,292.9z"/>
							<path style="fill:#EAA8A2;" d="M355.996,299.616c0.217,0.801-0.785,1.77-2.24,2.164c-1.454,0.394-2.809,0.065-3.026-0.737
								c-0.217-0.801,0.785-1.77,2.24-2.164C354.424,298.486,355.779,298.815,355.996,299.616z"/>
							<path style="fill:#EAA8A2;" d="M356.693,304.879c0.177,0.654-0.456,1.396-1.416,1.656c-0.959,0.26-1.881-0.06-2.058-0.714
								c-0.177-0.654,0.456-1.396,1.416-1.656S356.515,304.225,356.693,304.879z"/>
						</g>
					</g>
				</g>
				<g>
					<g>
						<g>
							<path style="fill:#F4BDB5;" d="M267.314,343.169c5.793,0.889,11.532-2.097,15.959-5.937
								c4.427-3.841,8.01-8.587,12.521-12.329c5.308-4.404,11.874-7.404,16.164-12.804c0.549-0.69,1.073-1.431,1.817-1.904
								c0.744-0.473,1.79-0.607,2.476-0.052c0.35,0.283,0.561,0.706,0.695,1.135c0.897,2.863-1.186,5.712-3.017,8.089
								c-1.504,1.952-2.922,3.97-4.249,6.046c-0.39,0.61-0.706,1.56-0.086,1.935c0.318,0.192,0.724,0.099,1.083,0
								c8.98-2.475,18.091-5.005,26.058-9.833c2.445-1.482,4.775-3.176,7.367-4.383c1.227-0.572,2.85-0.966,3.799-0.001
								c0.672,0.682,0.683,1.816,0.277,2.684c-0.406,0.867-1.144,1.526-1.874,2.146c-5.736,4.877-12.151,8.954-19.001,12.078
								c7.408-0.995,13.836-5.448,19.928-9.923c0.802-0.589,1.848-0.859,2.841-0.794c0.993,0.065,2.014,0.764,2.11,1.754
								c0.083,0.861-0.516,1.627-1.119,2.247c-3.232,3.324-7.541,6.126-11.709,8.155c-3.977,1.936-7.905,3.164-11.882,5.101
								c6.956-2.221,10.536-2.983,20.659-8.498c0.636-0.346,1.377-0.556,2.095-0.465c0.718,0.091,1.425,0.702,1.349,1.421
								c-0.051,0.477-0.412,0.855-0.758,1.188c-5.836,5.61-13.225,10.35-21.006,12.583c5.568-0.745,11.077-4.17,16.623-3.992
								c0.815,0.026,1.324,0.912,0.904,1.611c-0.451,0.751-1.252,1.383-2.005,1.881c-5.359,3.544-11.158,6.424-17.22,8.552
								c-4.998,1.755-10.16,2.997-15.341,4.097c-15.829,3.362-31.933,5.429-48.098,6.175"/>
						</g>
						<g>
							<path style="fill:#EAA8A2;" d="M310.062,314.276c1.053,0.728,2.639,0.533,3.484-0.428c0.845-0.962,0.834-2.56-0.024-3.51"/>
						</g>
						<g>
							<path style="fill:#EAA8A2;" d="M345.876,317.979c-0.727,0.34-1.613-0.416-1.717-1.211c-0.104-0.796,0.38-1.576,1.027-2.051
								c0.647-0.475,1.436-0.704,2.208-0.924c0,0,0.745-0.193,0.877-0.112C348.403,313.761,349.42,316.32,345.876,317.979z"/>
						</g>
						<g>
							<path style="fill:#EAA8A2;" d="M349.554,324.533c-0.727,0.34-1.613-0.416-1.717-1.211c-0.104-0.796,0.38-1.576,1.027-2.051
								c0.647-0.475,1.436-0.704,2.208-0.924c0,0,0.745-0.193,0.878-0.112C352.081,320.316,353.098,322.875,349.554,324.533z"/>
						</g>
						<g>
							<path style="fill:#EAA8A2;" d="M349.315,331.751c-0.591,0.276-1.311-0.338-1.395-0.984c-0.085-0.646,0.309-1.281,0.834-1.666
								c0.525-0.386,1.167-0.572,1.794-0.751c0,0,0.606-0.157,0.713-0.091C351.368,328.324,352.194,330.403,349.315,331.751z"/>
						</g>
						<g>
							<path style="fill:#EAA8A2;" d="M344.971,342.617c-0.591,0.276-1.311-0.338-1.395-0.984c-0.084-0.646,0.309-1.281,0.834-1.667
								c0.525-0.386,1.167-0.572,1.794-0.75c0,0,0.606-0.157,0.713-0.091C347.024,339.191,347.85,341.27,344.971,342.617z"/>
						</g>
					</g>
					<path style="fill:#F6C95D;" d="M164.904,228.861c0,0,10.422,10.609,13.43,37.389s5.214,60.777,10.829,67.674
						c5.615,6.897,87.617,0,87.617,0l3.276,25.336c0,0-43.969,46.34-101.321,41.81c-57.352-4.53-38.903-114.622-36.898-132.848
						C143.842,249.996,156.674,232.352,164.904,228.861z"/>
				</g>
			</g>
		</g>
	</g>
</g>
</svg>
