<svg width="1058" height="720" viewBox="0 0 1058 720" fill="none" xmlns="http://www.w3.org/2000/svg">
<path d="M999.668 608.949C1068.82 547.872 1081.74 427.368 1009.84 209.161C962.892 66.6556 970.135 2.39749e-05 970.135 2.39749e-05L0.00012207 0L0 615.938C0 615.938 40.5317 608.949 119.122 623.578C206.662 639.872 224.405 661.938 315.152 696.144L315.427 696.248C366.323 715.433 445.569 745.304 607.491 679.956C755.257 620.321 923.252 676.444 999.668 608.949Z" fill="#EDDDD0"/>
<path d="M999.668 608.949C1068.82 547.872 1081.74 427.368 1009.84 209.161C962.892 66.6557 970.135 2.39749e-05 970.135 2.39749e-05L0.00012207 0L0 615.938C0 615.938 40.5317 608.949 119.122 623.578C206.662 639.872 224.405 661.938 315.152 696.144L315.427 696.248C366.323 715.433 445.569 745.304 607.491 679.956C755.257 620.321 923.252 676.444 999.668 608.949Z" fill="url(#paint0_linear_123_1214)"/>
<defs>
<linearGradient id="paint0_linear_123_1214" x1="497.5" y1="129" x2="445.823" y2="746.354" gradientUnits="userSpaceOnUse">
<stop offset="0.646518" stop-color="#EDDDD0" stop-opacity="0"/>
<stop offset="1" stop-color="#F4B04E"/>
</linearGradient>
</defs>
</svg>
