<svg width="174" height="190" viewBox="0 0 174 190" fill="none" xmlns="http://www.w3.org/2000/svg">
<g clip-path="url(#clip0_196_1243)">
<path d="M166.563 40.612C159.902 54.2519 157.803 69.6013 160.564 84.4768C161.146 87.3263 161.502 90.2155 161.63 93.1187C163.142 103.071 158.457 123.924 155.804 138.003C154.986 142.275 152.854 174.634 152.309 178.421C151.763 182.208 150.103 190 145.417 190C140.732 190 131.114 181.649 129.8 180.46C125.957 177.037 114.926 167.594 112.1 159.268C111.861 158.568 111.367 157.979 110.714 157.612C110.06 157.245 109.292 157.126 108.555 157.277C106.299 157.642 103.597 157.909 100.597 158.103C96.5664 158.678 92.4988 158.97 88.4254 158.977C85.4273 158.975 82.4315 158.813 79.4515 158.491H79.1292C74.1713 158.491 70.2297 158.248 69.2133 158.127C68.1512 157.909 67.0471 158.005 66.0408 158.403C65.0346 158.801 64.1716 159.482 63.5612 160.36C56.62 172.498 43.7293 181.795 42.589 182.669C40.4571 184.32 33.9621 189.951 30.1941 189.078C26.426 188.204 24.2693 177.086 23.9966 169.002C23.7735 162.132 22.9306 144.849 22.7075 139.702C22.7075 139.144 20.3773 125.89 18.3941 114.408C18.3818 114.287 18.3818 114.165 18.3941 114.044C16.2947 108.118 15.2222 101.891 15.221 95.619C15.218 91.8596 15.6084 88.1097 16.3861 84.4283C19.1474 69.5527 17.0482 54.2033 10.387 40.5634C5.14287 29.0383 1.66776 16.8172 0.0743865 4.29668C0.0332445 3.74785 0.108745 3.19662 0.296124 2.67781C0.483504 2.159 0.778696 1.68385 1.16306 1.28238C1.54742 0.88092 2.0126 0.561829 2.52924 0.345291C3.04588 0.128754 3.60275 0.0194702 4.16471 0.024292L170.009 0.655441C170.557 0.658325 171.098 0.768936 171.602 0.980728C172.105 1.1925 172.56 1.50113 172.939 1.88829C173.318 2.27545 173.614 2.73326 173.809 3.23453C174.004 3.73581 174.094 4.27039 174.074 4.80646C173.479 16.4584 170.852 31.3875 166.563 40.612Z" fill="#F6BD60"/>
<path d="M29.7227 153.782C29.7227 159.972 31.0118 171.309 31.3836 174.173C31.7555 177.037 32.3009 178.664 33.8626 179.222C35.4244 179.78 39.5147 176.795 40.7542 175.629C44.2 172.474 54.1655 161.453 55.2811 160.191C56.3966 158.928 58.2806 155.845 57.5369 154.049C57.1081 153.311 56.4548 152.723 55.6683 152.366C54.8818 152.009 54.0011 151.902 53.1491 152.058C50.4818 152.247 47.8006 152.051 45.1916 151.476C42.4622 150.793 39.922 149.524 37.7546 147.762C36.2424 146.5 33.6891 144.388 31.3589 145.067C29.0286 145.747 29.7227 152.447 29.7227 153.782Z" fill="#FDFDFE"/>
<path d="M146.607 153.782C146.607 159.972 145.343 171.309 144.971 174.173C144.599 177.037 144.078 178.664 142.492 179.222C140.905 179.78 136.939 176.795 135.724 175.629C132.328 172.474 122.511 161.453 121.42 160.191C120.33 158.928 118.47 155.845 119.189 154.049C119.61 153.315 120.254 152.729 121.032 152.372C121.81 152.015 122.683 151.905 123.527 152.058C126.154 152.246 128.794 152.05 131.361 151.476C134.026 150.78 136.498 149.511 138.6 147.762C140.087 146.5 142.616 144.388 144.921 145.067C147.227 145.747 146.607 152.447 146.607 153.782Z" fill="#FDFDFE"/>
<path d="M57.8095 98.192C66.4897 98.192 73.5263 105.083 73.5263 113.582C73.5263 122.082 66.4897 128.973 57.8095 128.973C49.1294 128.973 42.0928 122.082 42.0928 113.582C42.0928 105.083 49.1294 98.192 57.8095 98.192Z" fill="#FDFDFE"/>
<path d="M118.991 98.192C127.671 98.192 134.708 105.083 134.708 113.582C134.708 122.082 127.671 128.973 118.991 128.973C110.311 128.973 103.274 122.082 103.274 113.582C103.274 105.083 110.311 98.192 118.991 98.192Z" fill="#FDFDFE"/>
<path d="M66.3626 106.999C70.4288 106.999 73.7252 110.227 73.7252 114.208C73.7252 118.19 70.4288 121.418 66.3626 121.418C62.2963 121.418 59 118.19 59 114.208C59 110.227 62.2963 106.999 66.3626 106.999Z" fill="#040000"/>
<path d="M127.363 106.999C131.429 106.999 134.725 110.227 134.725 114.208C134.725 118.19 131.429 121.418 127.363 121.418C123.296 121.418 120 118.19 120 114.208C120 110.227 123.296 106.999 127.363 106.999Z" fill="#040000"/>
<path d="M96.482 25.4651L133.196 52.8715C137.212 55.8574 132.204 59.5957 124.172 59.5957C124.172 59.5957 96.6308 54.061 87.4585 54.061C78.2863 54.061 50.72 59.5957 50.72 59.5957C42.7129 59.5957 37.7053 55.8574 41.7213 52.8715L78.435 25.4651C82.5254 22.4793 92.5405 22.4793 96.482 25.4651Z" fill="#FDFDFE"/>
<path d="M79.5498 91.6855C80.5365 90.5544 81.7599 89.6439 83.137 89.0157C84.5141 88.3875 86.013 88.0562 87.5321 88.0443C90.5393 88.3305 93.356 89.6154 95.5145 91.6855" stroke="#FDFDFE" stroke-miterlimit="10" stroke-linecap="round"/>
<path d="M87.5322 82.9229V88.0449" stroke="#FDFDFE" stroke-miterlimit="10" stroke-linecap="round"/>
</g>
<defs>
<clipPath id="clip0_196_1243">
<rect width="174" height="190" fill="white" transform="matrix(1 0 0 -1 0 190)"/>
</clipPath>
</defs>
</svg>
