<svg width="148" height="148" viewBox="0 0 148 148" fill="none" xmlns="http://www.w3.org/2000/svg">
<path d="M105.248 114.013C102.952 122.652 93.9041 127.685 85.2843 124.97C83.5109 124.412 81.8967 123.554 80.488 122.47C76.8178 119.651 72.6875 117.486 68.2121 116.297L67.0092 115.976C62.4036 114.75 57.6034 114.465 52.8807 115.106C50.6469 115.41 48.3095 115.237 45.9983 114.507C38.2988 112.076 33.6521 104.059 35.3675 96.1733C36.5005 90.9711 40.0403 86.9783 44.5286 85.0436C50.9755 82.2651 56.2748 77.3445 59.779 71.2598C63.8474 64.1931 70.8282 57.4635 82.1661 60.4822C93.3848 63.4692 96.0913 72.8163 96.1418 80.9984C96.1813 88.0847 98.5468 94.9458 102.733 100.665C105.45 104.372 106.525 109.232 105.251 114.021L105.248 114.013Z" fill="#6C584C"/>
<path d="M53.9837 64.5289C56.0562 56.7388 52.5348 49.038 46.1183 47.3287C39.7019 45.6195 32.8202 50.5491 30.7477 58.3392C28.6751 66.1294 32.1966 73.8302 38.613 75.5394C45.0294 77.2487 51.9111 72.3191 53.9837 64.5289Z" fill="#6C584C"/>
<path d="M84.9296 38.6185C87.0021 30.8284 83.4807 23.1276 77.0643 21.4183C70.6478 19.7091 63.7661 24.6387 61.6936 32.4288C59.621 40.219 63.1425 47.9198 69.5589 49.629C75.9754 51.3383 82.8571 46.4087 84.9296 38.6185Z" fill="#6C584C"/>
<path d="M127.84 84.2032C129.913 76.4131 126.392 68.7123 119.975 67.0031C113.559 65.2938 106.677 70.2234 104.604 78.0136C102.532 85.8037 106.053 93.5045 112.47 95.2137C118.886 96.923 125.768 91.9934 127.84 84.2032Z" fill="#6C584C"/>
<path d="M115.085 46.6543C117.157 38.8641 113.636 31.1633 107.219 29.4541C100.803 27.7449 93.9212 32.6744 91.8486 40.4646C89.7761 48.2548 93.2975 55.9556 99.714 57.6648C106.13 59.374 113.012 54.4445 115.085 46.6543Z" fill="#6C584C"/>
<path d="M65.0389 98V89.103H61.6019V87.92H69.7219V89.103H66.2849V98H65.0389ZM72.9354 98.21C72.184 98.21 71.5354 98.0397 70.9894 97.699C70.448 97.3583 70.0304 96.887 69.7364 96.285C69.4424 95.683 69.2954 94.9923 69.2954 94.213C69.2954 93.4197 69.4447 92.7243 69.7434 92.127C70.042 91.5297 70.4644 91.0653 71.0104 90.734C71.5564 90.398 72.198 90.23 72.9354 90.23C73.6914 90.23 74.3424 90.4003 74.8884 90.741C75.4344 91.077 75.852 91.546 76.1414 92.148C76.4354 92.7453 76.5824 93.4337 76.5824 94.213C76.5824 95.0017 76.4354 95.697 76.1414 96.299C75.8474 96.8963 75.4274 97.3653 74.8814 97.706C74.3354 98.042 73.6867 98.21 72.9354 98.21ZM72.9354 97.027C73.7194 97.027 74.3027 96.7657 74.6854 96.243C75.068 95.7203 75.2594 95.0437 75.2594 94.213C75.2594 93.359 75.0657 92.68 74.6784 92.176C74.291 91.6673 73.71 91.413 72.9354 91.413C72.408 91.413 71.974 91.532 71.6334 91.77C71.2927 92.008 71.0384 92.337 70.8704 92.757C70.7024 93.177 70.6184 93.6623 70.6184 94.213C70.6184 95.0623 70.8144 95.7437 71.2064 96.257C71.5984 96.7703 72.1747 97.027 72.9354 97.027ZM81.5956 98.21C80.8862 98.21 80.2889 98.035 79.8036 97.685C79.3182 97.3303 78.9496 96.852 78.6976 96.25C78.4502 95.6433 78.3266 94.9643 78.3266 94.213C78.3266 93.4523 78.4502 92.771 78.6976 92.169C78.9496 91.567 79.3182 91.0933 79.8036 90.748C80.2936 90.4027 80.8932 90.23 81.6026 90.23C82.3026 90.23 82.9046 90.405 83.4086 90.755C83.9172 91.1003 84.3069 91.574 84.5776 92.176C84.8482 92.778 84.9836 93.457 84.9836 94.213C84.9836 94.969 84.8482 95.648 84.5776 96.25C84.3069 96.852 83.9172 97.3303 83.4086 97.685C82.9046 98.035 82.3002 98.21 81.5956 98.21ZM78.1166 101.36V90.44H79.2296V96.005H79.3696V101.36H78.1166ZM81.4416 97.069C81.9409 97.069 82.3539 96.943 82.6806 96.691C83.0072 96.439 83.2522 96.0983 83.4156 95.669C83.5789 95.235 83.6606 94.7497 83.6606 94.213C83.6606 93.681 83.5789 93.2003 83.4156 92.771C83.2569 92.3417 83.0096 92.001 82.6736 91.749C82.3422 91.497 81.9199 91.371 81.4066 91.371C80.9166 91.371 80.5106 91.4923 80.1886 91.735C79.8666 91.973 79.6262 92.3067 79.4676 92.736C79.3089 93.1607 79.2296 93.653 79.2296 94.213C79.2296 94.7637 79.3066 95.256 79.4606 95.69C79.6192 96.1193 79.8619 96.4577 80.1886 96.705C80.5152 96.9477 80.9329 97.069 81.4416 97.069Z" fill="white"/>
</svg>
