<svg width="32" height="36" viewBox="0 0 32 36" fill="none" xmlns="http://www.w3.org/2000/svg">
<g clip-path="url(#clip0_82_274)">
<path d="M31.8217 27.7015C31.5218 27.9721 31.1376 28.1144 30.7441 28.1006C29.8224 27.8927 28.9289 27.5637 28.0841 27.1211L28.1525 27.0576C27.8194 27.3023 27.4532 27.4919 27.0663 27.6199C26.5194 27.8091 25.942 27.8793 25.3689 27.8263C24.7957 27.7733 24.2386 27.5982 23.7307 27.3115C24.0384 27.8503 24.2368 28.4511 24.3134 29.0757C24.39 29.7003 24.343 30.335 24.1755 30.9392C23.8733 32.0256 23.2111 32.9596 22.311 33.5693C22.8256 34.1758 23.247 34.8644 23.5597 35.6099C23.7564 36.3717 23.611 36.3535 23.611 36.3535C23.217 36.3877 22.8247 36.2684 22.5077 36.018C21.9757 35.4552 21.5234 34.8137 21.1649 34.1134C21.0419 34.1562 20.9161 34.1896 20.7885 34.2132C20.1584 34.3396 19.5098 34.3175 18.8887 34.1483C18.2676 33.9791 17.6892 33.6671 17.1945 33.2343C16.6999 32.8015 16.3011 32.2586 16.0265 31.6441C15.7519 31.0296 15.6082 30.3586 15.6055 29.6786C15.6055 29.5698 15.6055 29.47 15.6055 29.3612L15.5457 29.3612C15.5457 29.47 15.5457 29.5698 15.5457 29.6786C15.5417 30.3531 15.3989 31.0185 15.1273 31.6285C14.8557 32.2384 14.4618 32.7781 13.9732 33.2099C13.4845 33.6417 12.9128 33.9552 12.2981 34.1285C11.6833 34.3018 11.0403 34.3307 10.4139 34.2132C10.1934 34.1739 9.97603 34.1162 9.76394 34.0409C9.41212 34.743 8.95906 35.3825 8.42113 35.9363C7.82244 36.3898 7.77967 36.2447 7.77967 36.2447C7.6131 35.8672 7.58268 35.4381 7.69415 35.0385C7.93752 34.453 8.25708 33.9065 8.64352 33.4151C7.86066 32.8167 7.28394 31.9631 7.00136 30.9846C6.82929 30.4077 6.77013 29.7997 6.82749 29.1977C6.88484 28.5958 7.05753 28.0126 7.33493 27.4839L7.25795 27.4113C6.76265 27.7013 6.21749 27.8828 5.65479 27.9451C5.09209 28.0074 4.52331 27.9493 3.98221 27.7741C3.19033 27.5173 2.48217 27.0303 1.93808 26.3684C1.43041 26.8455 0.852603 27.2315 0.227513 27.5111C-0.490926 27.7106 -0.473813 27.5564 -0.473813 27.5564C-0.505516 27.1415 -0.392961 26.7286 -0.157362 26.3956C0.268771 25.9363 0.755689 25.5452 1.28807 25.2347C1.10699 24.8249 0.98862 24.3871 0.937401 23.9378C0.814777 22.9462 0.998542 21.9393 1.46114 21.0678C1.92373 20.1963 2.64023 19.5072 3.50325 19.1039C4.23025 17.5259 4.24735 15.5942 5.38488 14.0252C5.23589 13.8448 5.14327 13.6198 5.11974 13.3813L2.03412 -9.85331C2.01989 -10.0199 2.03847 -10.1877 2.08869 -10.3462C2.13891 -10.5048 2.21966 -10.6505 2.32582 -10.7741C2.43199 -10.8978 2.56125 -10.9967 2.70539 -11.0646C2.84952 -11.1324 3.00539 -11.1678 3.1631 -11.1683L27.265 -11.1683C27.4207 -11.1688 27.5749 -11.1351 27.7177 -11.0694C27.8606 -11.0036 27.9891 -10.9072 28.0951 -10.7863C28.2012 -10.6653 28.2825 -10.5224 28.3339 -10.3665C28.3853 -10.2107 28.4058 -10.0452 28.394 -9.88051L26.2025 13.3541C26.1899 13.4473 26.1669 13.5386 26.1341 13.6262C26.69 14.9231 26.0828 16.483 27.3742 17.7617C29.3927 18.3693 30.3848 21.471 30.0684 23.8743C29.9463 24.7707 29.574 25.6077 28.9993 26.2777L29.0934 26.187C29.8956 26.367 30.6681 26.6727 31.3855 27.0939C31.95 27.6199 31.8217 27.7015 31.8217 27.7015Z" fill="#E4A52A"/>
<path d="M13.7075 23.6021L10.1831 18.9035C9.94167 18.5869 9.79002 18.204 9.74579 17.7995C9.70156 17.3951 9.76658 16.9856 9.93328 16.6188C10.1 16.2519 10.3615 15.9428 10.6874 15.7275C11.0133 15.5121 11.3902 15.3993 11.7742 15.4023L18.8314 15.4023C19.2148 15.4012 19.5906 15.5149 19.9156 15.7303C20.2407 15.9457 20.5018 16.2541 20.6689 16.6198C20.836 16.9856 20.9024 17.394 20.8603 17.798C20.8182 18.202 20.6695 18.5852 20.4311 18.9035L16.8982 23.6021C16.7066 23.8556 16.4638 24.0602 16.1877 24.2007C15.9115 24.3413 15.6091 24.4143 15.3028 24.4143C14.9965 24.4143 14.6941 24.3413 14.418 24.2007C14.1418 24.0602 13.899 23.8556 13.7075 23.6021Z" fill="#F0E8E0"/>
<path d="M5.27401 21.3796C6.28975 21.3796 7.11317 22.2528 7.11317 23.3298C7.11317 24.4069 6.28975 25.28 5.27401 25.28C4.25827 25.28 3.43485 24.4069 3.43485 23.3298C3.43485 22.2528 4.25827 21.3796 5.27401 21.3796Z" fill="#F0E8E0"/>
<path d="M11.2353 27.7009C12.2511 27.7009 13.0745 28.5741 13.0745 29.6511C13.0745 30.7282 12.2511 31.6013 11.2353 31.6013C10.2196 31.6013 9.39618 30.7282 9.39618 29.6511C9.39618 28.5741 10.2196 27.7009 11.2353 27.7009Z" fill="#F0E8E0"/>
<path d="M20.0362 27.7009C21.052 27.7009 21.8754 28.5741 21.8754 29.6511C21.8754 30.7282 21.052 31.6013 20.0362 31.6013C19.0205 31.6013 18.197 30.7282 18.197 29.6511C18.197 28.5741 19.0205 27.7009 20.0362 27.7009Z" fill="#F0E8E0"/>
<path d="M26.2456 21.3796C27.2613 21.3796 28.0847 22.2528 28.0847 23.3298C28.0847 24.4069 27.2613 25.28 26.2456 25.28C25.2298 25.28 24.4064 24.4069 24.4064 23.3298C24.4064 22.2528 25.2298 21.3796 26.2456 21.3796Z" fill="#F0E8E0"/>
<path d="M3.51545 16.7135C4.12301 15.1827 4.93749 13.8807 5.90112 12.8998C6.86474 11.9189 7.95392 11.2832 9.09138 11.0378C14.9239 9.48707 17.549 10.6656 17.549 10.6656" stroke="#F0E8E0" stroke-miterlimit="10" stroke-linecap="round"/>
</g>
<defs>
<clipPath id="clip0_82_274">
<rect width="32.2613" height="57.3535" fill="white" transform="matrix(1 1.74846e-07 1.74846e-07 -1 -0.422485 36.3535)"/>
</clipPath>
</defs>
</svg>
