<svg width="72" height="64" viewBox="0 0 72 64" fill="none" xmlns="http://www.w3.org/2000/svg">
<path d="M37.4482 56C29.1989 55.8739 22.5371 55.2066 16.1509 52.9323C13.5015 51.9884 11.0274 50.7373 8.88438 48.9512C4.51509 45.3078 3.41903 40.6492 4.26297 35.3967C4.88472 31.5377 6.3034 27.9471 8.29041 24.5417C8.53398 24.1247 8.60449 23.5836 8.6344 23.0933C8.85874 19.4621 9.32024 15.8675 10.5979 12.4235C11.0188 11.2863 11.6299 10.1959 12.2794 9.15639C12.9588 8.06601 13.8199 7.69577 14.9971 8.26537C16.8816 9.17674 18.7105 10.2447 20.4091 11.4409C22.0029 12.5659 23.3768 13.9695 24.9001 15.1901C25.2099 15.4383 25.7996 15.5868 26.1842 15.4952C32.7328 13.9329 39.2814 13.9004 45.8257 15.4708C46.4325 15.6173 46.7808 15.5115 47.2295 15.1372C49.3447 13.3796 51.4556 11.6077 53.6648 9.95994C54.6263 9.24387 55.7886 8.72716 56.9274 8.27554C58.1986 7.77307 58.9998 8.08025 59.7647 9.15436C61.5637 11.6891 62.2496 14.6002 62.7453 17.5478C63.0764 19.517 63.1875 21.5208 63.4354 23.5042C63.4866 23.9233 63.6383 24.3546 63.8456 24.7289C66.0377 28.653 67.5846 32.7481 67.9435 37.2337C68.4456 43.5156 65.5826 47.9991 60.019 51.0953C55.5771 53.565 50.6779 54.7103 45.6441 55.3266C42.4393 55.7193 39.2002 55.8617 37.4525 56H37.4482Z" fill="#E4A52A"/>
<path d="M20.1773 39V28.92H21.3113L25.1193 36.949L28.9063 28.92H30.0543V38.993H28.8713V31.657L25.4483 39H24.7833L21.3603 31.657V39H20.1773ZM35.2371 39.21C34.4858 39.21 33.8371 39.0397 33.2911 38.699C32.7498 38.3583 32.3321 37.887 32.0381 37.285C31.7441 36.683 31.5971 35.9923 31.5971 35.213C31.5971 34.4197 31.7464 33.7243 32.0451 33.127C32.3438 32.5297 32.7661 32.0653 33.3121 31.734C33.8581 31.398 34.4998 31.23 35.2371 31.23C35.9931 31.23 36.6441 31.4003 37.1901 31.741C37.7361 32.077 38.1538 32.546 38.4431 33.148C38.7371 33.7453 38.8841 34.4337 38.8841 35.213C38.8841 36.0017 38.7371 36.697 38.4431 37.299C38.1491 37.8963 37.7291 38.3653 37.1831 38.706C36.6371 39.042 35.9884 39.21 35.2371 39.21ZM35.2371 38.027C36.0211 38.027 36.6044 37.7657 36.9871 37.243C37.3698 36.7203 37.5611 36.0437 37.5611 35.213C37.5611 34.359 37.3674 33.68 36.9801 33.176C36.5928 32.6673 36.0118 32.413 35.2371 32.413C34.7098 32.413 34.2758 32.532 33.9351 32.77C33.5944 33.008 33.3401 33.337 33.1721 33.757C33.0041 34.177 32.9201 34.6623 32.9201 35.213C32.9201 36.0623 33.1161 36.7437 33.5081 37.257C33.9001 37.7703 34.4764 38.027 35.2371 38.027ZM40.4253 39V31.44H41.5383V33.267L41.3563 33.029C41.445 32.7957 41.5593 32.581 41.6993 32.385C41.844 32.189 42.005 32.028 42.1823 31.902C42.3783 31.7433 42.6 31.622 42.8473 31.538C43.0946 31.454 43.3466 31.405 43.6033 31.391C43.86 31.3723 44.1003 31.3887 44.3243 31.44V32.609C44.063 32.539 43.776 32.5203 43.4633 32.553C43.1506 32.5857 42.8613 32.7 42.5953 32.896C42.3526 33.0687 42.1636 33.2787 42.0283 33.526C41.8976 33.7733 41.8066 34.0417 41.7553 34.331C41.704 34.6157 41.6783 34.9073 41.6783 35.206V39H40.4253ZM48.7873 39.21C48.0453 39.21 47.3966 39.0467 46.8413 38.72C46.2906 38.3887 45.8613 37.929 45.5533 37.341C45.2453 36.7483 45.0913 36.0577 45.0913 35.269C45.0913 34.443 45.2429 33.729 45.5463 33.127C45.8496 32.5203 46.2719 32.0537 46.8133 31.727C47.3593 31.3957 47.9986 31.23 48.7313 31.23C49.4919 31.23 50.1383 31.405 50.6703 31.755C51.2069 32.105 51.6083 32.6043 51.8743 33.253C52.1449 33.9017 52.2616 34.674 52.2243 35.57H50.9643V35.122C50.9503 34.1933 50.7613 33.5003 50.3973 33.043C50.0333 32.581 49.4919 32.35 48.7733 32.35C48.0033 32.35 47.4176 32.5973 47.0163 33.092C46.6149 33.5867 46.4143 34.296 46.4143 35.22C46.4143 36.1113 46.6149 36.802 47.0163 37.292C47.4176 37.782 47.9893 38.027 48.7313 38.027C49.2306 38.027 49.6646 37.9127 50.0333 37.684C50.4019 37.4553 50.6913 37.1263 50.9013 36.697L52.0983 37.11C51.8043 37.7773 51.3609 38.2953 50.7683 38.664C50.1803 39.028 49.5199 39.21 48.7873 39.21ZM45.9943 35.57V34.569H51.5803V35.57H45.9943Z" fill="white"/>
</svg>
