<svg width="1920" height="363" viewBox="0 0 1920 363" fill="none" xmlns="http://www.w3.org/2000/svg">
<path fill-rule="evenodd" clip-rule="evenodd" d="M478.526 5.0268L577.802 60.1165C702.958 44.2026 830.521 36 960 36C1089.48 36 1217.04 44.2026 1342.2 60.1165L1441.47 5.0268C1458.6 -4.4764 1480.09 -0.181513 1492.24 15.1745L1555.52 95.1057C2927.1 371.335 3960 1583.04 3960 3036C3960 4692.85 2616.85 6036 960 6036C-696.854 6036 -2040 4692.85 -2040 3036C-2040 1583.04 -1007.1 371.335 364.477 95.1057L427.756 15.1745C439.912 -0.181513 461.4 -4.4764 478.526 5.0268Z" fill="#E4A52A"/>
</svg>
