<svg width="72" height="64" viewBox="0 0 72 64" fill="none" xmlns="http://www.w3.org/2000/svg">
<path d="M37.6293 59C28.3488 58.8581 20.8542 58.1075 13.6697 55.5488C10.6892 54.4869 7.90578 53.0794 5.49493 51.0701C0.579476 46.9712 -0.653594 41.7304 0.295845 35.8213C0.995306 31.4799 2.59133 27.4405 4.82672 23.6094C5.10073 23.1403 5.18005 22.5315 5.2137 21.98C5.46609 17.8949 5.98527 13.851 7.42265 9.9764C7.89617 8.69708 8.58361 7.4704 9.31432 6.30094C10.0787 5.07426 11.0473 4.65774 12.3718 5.29854C14.4918 6.32383 16.5493 7.52533 18.4602 8.87101C20.2533 10.1366 21.7989 11.7157 23.5126 13.0889C23.8612 13.3681 24.5246 13.5351 24.9572 13.4321C32.3244 11.6745 39.6916 11.6379 47.0539 13.4047C47.7366 13.5695 48.1284 13.4505 48.6331 13.0294C51.0128 11.052 53.3876 9.05868 55.8729 7.20493C56.9546 6.39935 58.2621 5.81805 59.5433 5.30999C60.9735 4.74471 61.8748 5.09028 62.7353 6.29865C64.7592 9.15022 65.5308 12.4252 66.0884 15.7413C66.461 17.9567 66.586 20.2109 66.8648 22.4423C66.9225 22.9137 67.0931 23.3989 67.3263 23.82C69.7924 28.2347 71.5327 32.8416 71.9365 37.8879C72.5013 44.955 69.2805 49.999 63.0214 53.4822C58.0242 56.2606 52.5126 57.549 46.8496 58.2425C43.2442 58.6842 39.6002 58.8444 37.6341 59H37.6293Z" fill="#202020"/>
<path d="M20.1773 39V28.92H21.3113L25.1193 36.949L28.9063 28.92H30.0543V38.993H28.8713V31.657L25.4483 39H24.7833L21.3603 31.657V39H20.1773ZM35.2371 39.21C34.4858 39.21 33.8371 39.0397 33.2911 38.699C32.7498 38.3583 32.3321 37.887 32.0381 37.285C31.7441 36.683 31.5971 35.9923 31.5971 35.213C31.5971 34.4197 31.7464 33.7243 32.0451 33.127C32.3438 32.5297 32.7661 32.0653 33.3121 31.734C33.8581 31.398 34.4998 31.23 35.2371 31.23C35.9931 31.23 36.6441 31.4003 37.1901 31.741C37.7361 32.077 38.1538 32.546 38.4431 33.148C38.7371 33.7453 38.8841 34.4337 38.8841 35.213C38.8841 36.0017 38.7371 36.697 38.4431 37.299C38.1491 37.8963 37.7291 38.3653 37.1831 38.706C36.6371 39.042 35.9884 39.21 35.2371 39.21ZM35.2371 38.027C36.0211 38.027 36.6044 37.7657 36.9871 37.243C37.3698 36.7203 37.5611 36.0437 37.5611 35.213C37.5611 34.359 37.3674 33.68 36.9801 33.176C36.5928 32.6673 36.0118 32.413 35.2371 32.413C34.7098 32.413 34.2758 32.532 33.9351 32.77C33.5944 33.008 33.3401 33.337 33.1721 33.757C33.0041 34.177 32.9201 34.6623 32.9201 35.213C32.9201 36.0623 33.1161 36.7437 33.5081 37.257C33.9001 37.7703 34.4764 38.027 35.2371 38.027ZM40.4253 39V31.44H41.5383V33.267L41.3563 33.029C41.445 32.7957 41.5593 32.581 41.6993 32.385C41.844 32.189 42.005 32.028 42.1823 31.902C42.3783 31.7433 42.6 31.622 42.8473 31.538C43.0946 31.454 43.3466 31.405 43.6033 31.391C43.86 31.3723 44.1003 31.3887 44.3243 31.44V32.609C44.063 32.539 43.776 32.5203 43.4633 32.553C43.1506 32.5857 42.8613 32.7 42.5953 32.896C42.3526 33.0687 42.1636 33.2787 42.0283 33.526C41.8976 33.7733 41.8066 34.0417 41.7553 34.331C41.704 34.6157 41.6783 34.9073 41.6783 35.206V39H40.4253ZM48.7873 39.21C48.0453 39.21 47.3966 39.0467 46.8413 38.72C46.2906 38.3887 45.8613 37.929 45.5533 37.341C45.2453 36.7483 45.0913 36.0577 45.0913 35.269C45.0913 34.443 45.2429 33.729 45.5463 33.127C45.8496 32.5203 46.2719 32.0537 46.8133 31.727C47.3593 31.3957 47.9986 31.23 48.7313 31.23C49.4919 31.23 50.1383 31.405 50.6703 31.755C51.2069 32.105 51.6083 32.6043 51.8743 33.253C52.1449 33.9017 52.2616 34.674 52.2243 35.57H50.9643V35.122C50.9503 34.1933 50.7613 33.5003 50.3973 33.043C50.0333 32.581 49.4919 32.35 48.7733 32.35C48.0033 32.35 47.4176 32.5973 47.0163 33.092C46.6149 33.5867 46.4143 34.296 46.4143 35.22C46.4143 36.1113 46.6149 36.802 47.0163 37.292C47.4176 37.782 47.9893 38.027 48.7313 38.027C49.2306 38.027 49.6646 37.9127 50.0333 37.684C50.4019 37.4553 50.6913 37.1263 50.9013 36.697L52.0983 37.11C51.8043 37.7773 51.3609 38.2953 50.7683 38.664C50.1803 39.028 49.5199 39.21 48.7873 39.21ZM45.9943 35.57V34.569H51.5803V35.57H45.9943Z" fill="#E4A52A"/>
</svg>
